<svg width="647" height="645" viewBox="0 0 647 645" fill="none" xmlns="http://www.w3.org/2000/svg">
<path d="M84.7527 359.737C84.7527 359.737 64.0469 365.731 41.7991 351.745C19.5513 337.981 26.3798 308.455 45.5437 308.899C64.9279 309.565 76.162 307.789 85.8541 300.907C95.5462 294.025 103.917 292.693 103.917 292.693C103.917 292.693 90.2596 268.273 58.3197 270.493C26.3798 272.935 -4.4587 291.361 1.92928 332.431C8.31725 373.501 59.8616 383.935 74.3998 382.825C79.6864 370.837 84.7527 359.737 84.7527 359.737Z" fill="#D3834C"/>
<path d="M74.3998 383.713C74.6201 383.713 75.0606 383.491 75.0606 383.269C80.3472 371.281 85.1933 359.959 85.1933 359.959C85.4136 359.737 85.1933 359.293 84.973 359.071C84.7527 358.849 84.5325 358.849 84.0919 358.849C83.8717 358.849 63.3861 364.399 41.7992 351.079C29.4638 343.309 26.6001 330.877 29.2434 321.997C31.6665 314.227 37.6139 309.565 45.3235 309.787C65.8091 310.453 76.8228 308.233 86.0744 301.573C95.5462 294.913 103.696 293.359 103.917 293.359C104.137 293.359 104.357 293.137 104.578 292.915C104.798 292.693 104.578 292.471 104.578 292.249C104.357 292.027 90.2597 267.385 58.0995 269.827C37.3936 271.381 19.7716 279.373 9.85927 292.027C1.26854 302.905 -1.59505 316.447 0.82798 332.653C7.21596 372.835 55.6764 383.713 71.9768 383.713C73.0782 383.935 73.9593 383.935 74.3998 383.713ZM102.595 292.249C99.9518 292.915 93.1232 294.913 85.1933 300.463C76.162 306.679 65.3685 308.899 45.3235 308.233C36.953 308.011 30.3448 313.117 27.7015 321.553C24.8379 331.099 27.9218 344.197 40.918 352.411C59.6414 364.177 77.704 361.957 82.9906 360.847C81.4486 364.177 77.704 372.835 73.5188 382.159C59.4211 383.047 8.75784 373.057 2.36987 332.431C-0.0531616 316.669 2.81046 303.571 10.9606 293.137C20.6527 280.927 37.8342 272.935 58.0995 271.603C59.4211 271.603 60.9631 271.381 62.2847 271.381C87.1758 271.381 99.9518 288.031 102.595 292.249Z" fill="#80412A"/>
<path d="M9.19851 294.691C2.59026 304.237 -0.713839 316.669 1.92946 332.653C2.59029 336.871 3.91195 340.867 5.45388 344.641C11.181 345.307 20.8731 344.419 29.0233 336.205C26.8205 329.323 27.7016 322.219 31.0057 317.113C24.1772 302.017 14.9257 296.467 9.19851 294.691Z" fill="#3A1B23"/>
<path d="M45.5437 309.121C64.9279 309.787 76.162 308.011 85.8541 301.129C95.5462 294.247 103.917 292.915 103.917 292.915C103.917 292.915 90.2596 268.495 58.3197 270.715C38.9355 272.047 19.9918 279.595 9.41863 294.469C14.9255 296.911 24.3974 303.127 30.7853 317.113C33.8692 312.007 38.9355 308.899 45.5437 309.121Z" fill="#F1EDDF"/>
<path d="M96.427 283.813C95.9865 284.257 95.5459 284.701 95.1054 285.145C91.8012 288.475 87.3957 290.251 82.9902 291.139C79.4658 291.805 75.9415 292.027 72.4171 292.249C68.0116 292.471 63.8264 292.915 59.4208 293.137C55.0154 293.359 50.8301 293.803 46.4246 294.025C44.6624 294.247 42.6799 294.025 40.9177 294.469C39.8163 294.691 38.9352 294.913 37.8339 295.357C34.0892 296.245 29.6837 297.133 26.1593 294.691C22.4146 292.249 20.8727 287.143 21.0929 282.481C16.4672 285.589 12.5022 289.585 9.1981 294.025C14.705 296.467 24.1768 302.683 30.5648 316.669C33.6487 311.785 38.715 308.455 45.103 308.677C64.4872 309.343 75.7212 307.567 85.4133 300.685C95.1054 293.803 103.476 292.471 103.476 292.471C103.476 292.471 101.493 288.475 96.427 283.813Z" fill="#E0DED1"/>
<path opacity="0.6" d="M70.2141 360.847C69.5533 361.735 69.1127 362.623 68.4519 363.289C66.2491 366.175 63.3855 368.617 59.8611 369.727C56.1165 371.059 52.1516 370.615 48.4069 369.727C39.1553 367.063 31.0051 360.625 24.6171 353.299C18.2291 345.973 12.9426 336.871 11.6209 327.103C10.5195 318.445 13.1628 309.787 19.5508 303.793C16.6873 300.241 12.9426 297.133 8.75736 295.357C2.36938 304.681 -0.494202 317.113 1.92883 332.653C8.3168 373.723 59.8612 384.157 74.3993 383.047C79.6859 371.059 84.532 359.737 84.532 359.737C84.532 359.737 78.8048 361.291 70.2141 360.847Z" fill="#D3834C"/>
<path d="M38.2746 287.144C38.2746 287.144 51.0505 277.82 84.3121 283.592C84.3121 283.592 75.9416 277.82 67.5712 277.82C72.8578 275.378 84.3121 278.486 91.1406 281.816C84.7526 271.382 53.9141 265.61 32.5474 278.264C27.9216 282.704 52.1519 275.822 43.1206 279.374C33.869 282.926 26.3797 294.248 38.2746 287.144Z" fill="white"/>
<path d="M227.711 460.081C227.711 460.081 219.12 474.733 197.092 492.715C165.373 518.467 170.659 547.993 195.771 563.755C217.137 556.651 233.658 570.415 234.099 583.735C234.539 597.055 224.627 606.157 214.274 601.273C201.938 608.377 191.586 602.605 191.586 602.605C174.624 605.935 150.394 608.377 136.957 589.063C123.521 569.749 116.472 541.111 133.433 493.381C150.174 445.651 170.219 440.989 227.711 460.081Z" fill="#F9F8F4"/>
<path d="M171.321 605.934C178.369 605.934 185.198 604.824 191.145 603.714C192.908 604.602 202.6 608.82 214.054 602.382C218.46 604.38 223.085 603.936 227.05 601.272C232.117 597.942 234.98 591.282 234.76 583.734C234.54 577.296 230.575 570.636 224.407 566.196C216.477 560.646 206.124 559.536 195.771 562.866C183.656 555.096 176.607 544.44 175.946 532.674C175.065 519.133 182.555 505.591 197.533 493.381C219.561 475.399 228.372 460.525 228.372 460.525C228.592 460.303 228.592 460.081 228.372 459.859C228.372 459.637 228.152 459.415 227.931 459.415C168.677 439.657 149.073 446.539 132.552 493.381C118.014 534.007 119.336 565.53 136.297 589.95C144.888 602.382 158.324 605.934 171.321 605.934ZM191.366 602.16C156.122 609.042 143.786 597.942 137.398 588.84C120.878 565.086 119.776 534.006 133.874 493.825C150.174 447.871 168.457 441.211 226.389 460.525C224.187 463.855 215.155 476.953 196.432 492.271C177.048 508.033 173.744 523.129 174.184 532.897C174.845 545.328 182.334 556.428 195.11 564.42C195.331 564.642 195.551 564.642 195.771 564.42C205.684 561.09 215.816 562.2 223.306 567.528C229.253 571.524 232.777 577.74 232.998 583.734C233.218 590.616 230.575 596.832 225.949 599.718C222.424 602.16 218.239 602.382 214.274 600.606C214.054 600.606 213.834 600.606 213.613 600.606C201.939 607.488 191.806 602.16 191.806 601.938C191.586 602.16 191.366 602.16 191.366 602.16Z" fill="#80412A"/>
<path opacity="0.6" d="M133.213 493.603C150.174 445.651 170.439 440.989 227.711 460.081C227.711 460.081 224.627 465.409 217.578 473.401C207.886 470.959 196.211 468.961 184.096 468.961C155.901 468.961 146.87 509.143 144.226 538.447C141.803 567.751 165.813 582.847 184.096 569.305C187.621 567.307 191.365 565.309 195.33 563.755C195.55 563.755 195.551 563.977 195.771 563.977C217.137 556.873 233.658 570.637 234.099 583.957C234.539 597.276 224.627 606.378 214.274 601.494C201.938 608.598 191.586 602.826 191.586 602.826C174.624 606.156 150.394 608.598 136.957 589.285C123.3 569.971 116.251 541.555 133.213 493.603Z" fill="#D3834C"/>
<path d="M206.785 567.085C208.107 568.195 209.208 569.305 210.309 570.415C211.411 571.525 212.292 572.857 213.173 574.189C214.935 576.853 216.257 579.739 216.918 582.847C217.578 585.955 217.799 589.063 217.138 592.171C216.918 593.725 216.257 595.279 216.036 596.833C215.596 598.387 214.715 599.719 214.274 601.273C215.155 599.941 216.036 598.609 216.918 597.055C217.578 595.501 218.239 593.947 218.68 592.393C219.561 589.285 219.561 585.733 218.9 582.403C218.239 579.073 216.697 575.965 214.495 573.523C212.072 571.081 209.649 568.861 206.785 567.085Z" fill="#80412A"/>
<path d="M188.502 575.965C189.603 577.963 190.705 580.183 191.366 582.403C192.026 584.623 192.687 586.843 192.908 589.063C193.128 591.283 193.128 593.725 192.908 595.945C192.687 598.165 192.026 600.607 191.145 602.827C192.467 600.829 193.568 598.609 194.009 596.167C194.45 595.057 194.45 593.725 194.67 592.615C194.67 591.283 194.67 590.173 194.45 588.841C194.009 583.957 191.806 579.295 188.502 575.965Z" fill="#80412A"/>
<path d="M196.872 563.977C193.128 564.199 189.383 565.531 186.079 567.307C182.775 569.083 179.47 571.081 176.827 573.967C180.131 572.191 183.435 570.415 186.74 568.861C190.044 566.863 193.568 565.309 196.872 563.977Z" fill="#80412A"/>
<path opacity="0.6" d="M133.213 493.603C149.513 447.649 168.677 441.433 220.662 457.861C201.939 458.083 175.065 459.193 166.034 462.301C151.496 467.407 139.601 503.149 135.416 530.233C131.23 557.317 136.076 565.309 154.58 573.967C173.083 582.403 168.457 597.055 178.369 596.389C188.282 595.723 189.824 592.615 190.705 579.073C199.956 584.845 198.855 595.723 204.141 595.279C209.428 594.835 216.697 591.727 212.952 571.303C223.966 576.631 217.578 594.391 227.05 593.281C229.914 592.837 231.896 591.283 233.658 589.063C231.676 599.497 223.085 605.491 214.274 601.495C201.939 608.599 191.586 602.827 191.586 602.827C174.625 606.157 150.394 608.599 136.958 589.285C123.3 569.971 116.252 541.555 133.213 493.603Z" fill="#D3834C"/>
<path d="M425.518 390.595C425.518 390.595 412.522 431.443 403.931 467.185C395.34 502.927 389.834 567.751 403.711 586.843C427.28 578.407 446.224 592.393 446.665 609.709C446.665 624.139 434.99 634.351 424.857 627.913C407.676 638.125 353.708 630.355 349.523 625.471C345.338 620.809 339.391 569.971 340.272 533.563C341.153 497.155 339.391 447.205 339.391 447.205L425.518 390.595Z" fill="#F9F8F4"/>
<path d="M396.442 633.685C407.896 633.685 418.69 632.353 425.078 628.801C429.043 631.243 433.668 631.243 437.633 629.023C443.581 625.693 447.546 618.145 447.546 609.709C447.325 601.495 443.14 593.947 436.091 589.063C427.501 583.069 415.826 581.959 404.151 585.955C390.935 566.641 396.222 503.815 404.812 467.407C413.183 432.109 426.179 391.261 426.399 390.817C426.399 390.595 426.399 390.151 426.179 389.929C425.959 389.707 425.518 389.707 425.298 389.929L339.17 446.761C338.95 446.983 338.73 447.205 338.73 447.427C338.73 447.871 340.492 497.821 339.611 533.563C338.73 569.749 344.677 621.031 349.083 625.915C351.946 629.245 375.295 633.685 396.442 633.685ZM425.078 627.025C424.857 627.025 424.857 627.025 424.637 627.247C407.015 637.681 353.488 628.801 350.184 625.027C346.439 620.809 340.272 570.859 341.153 533.785C342.034 499.597 340.492 452.977 340.272 447.871L424.196 392.593C421.333 401.473 410.539 436.327 403.27 467.185C394.459 504.259 389.393 568.417 403.05 587.509C403.27 587.731 403.711 587.953 403.931 587.731C415.385 583.735 426.62 584.623 434.99 590.617C441.598 595.279 445.563 602.383 445.783 609.931C445.783 617.701 442.259 624.805 436.752 627.913C433.007 629.911 429.043 629.911 425.298 627.469C425.298 627.025 425.298 627.025 425.078 627.025Z" fill="#80412A"/>
<path opacity="0.6" d="M339.39 447.427L425.518 390.595C425.518 390.595 420.231 406.801 414.284 427.891C406.795 435.883 394.679 445.429 376.176 452.977C359.215 460.081 355.691 497.377 356.352 549.325C357.012 601.495 386.75 597.943 396.001 590.839C397.763 589.507 400.186 587.953 403.05 586.177C403.27 586.399 403.27 586.621 403.49 586.843C427.06 578.407 446.004 592.393 446.444 609.709C446.444 624.139 434.77 634.351 424.637 627.913C407.455 638.125 353.488 630.355 349.303 625.471C345.118 620.809 339.17 569.971 340.051 533.563C341.373 497.377 339.39 447.427 339.39 447.427Z" fill="#D3834C"/>
<path opacity="0.6" d="M339.39 447.427L407.235 402.583C404.372 410.797 400.847 418.345 396.442 422.785C382.785 436.549 348.642 451.423 347.761 463.189C346.88 475.177 344.457 533.785 345.558 560.647C346.66 587.509 357.894 592.171 370.009 595.279C382.124 598.387 385.648 603.937 389.833 615.259C394.019 626.803 402.169 625.471 413.403 624.139C424.637 622.807 427.06 612.595 424.637 594.835C438.955 604.381 431.025 620.365 438.735 620.587C441.158 620.587 443.36 619.477 445.343 617.923C442.039 627.469 433.007 632.797 425.077 627.691C407.896 637.903 353.929 630.133 349.743 625.249C345.558 620.587 339.611 569.749 340.492 533.341C341.373 497.377 339.39 447.427 339.39 447.427Z" fill="#D3834C"/>
<path d="M417.809 589.95C419.351 591.06 420.672 592.17 421.994 593.502C423.316 594.834 424.417 596.166 425.518 597.498C427.721 600.384 429.263 603.714 429.924 607.266C430.144 608.154 430.144 609.042 430.144 609.93C430.144 610.818 430.364 611.706 430.144 612.594C430.144 613.482 429.924 614.37 429.924 615.258C429.704 616.146 429.483 617.034 429.263 617.922C429.043 618.81 428.822 619.698 428.382 620.586L427.281 623.028C426.62 624.582 425.518 626.358 424.858 627.912C425.959 626.358 427.06 625.026 427.941 623.25L429.263 620.808C429.704 619.92 430.144 619.032 430.364 618.144C430.585 617.256 431.025 616.368 431.245 615.48C431.466 614.592 431.466 613.704 431.686 612.594C431.906 611.706 431.686 610.596 431.686 609.708C431.686 608.82 431.686 607.71 431.466 606.822C430.805 603.048 429.043 599.496 426.62 596.61C423.976 593.946 421.113 591.504 417.809 589.95Z" fill="#80412A"/>
<path d="M406.134 586.177C402.609 586.843 399.305 588.175 396.221 589.951C393.138 591.727 390.054 593.725 387.631 596.389C390.935 594.835 393.798 593.059 396.882 591.283C399.966 589.729 403.05 587.953 406.134 586.177Z" fill="#80412A"/>
<path opacity="0.6" d="M404.372 447.205C404.372 447.205 386.75 501.817 392.917 570.859C380.802 551.767 379.921 488.275 404.372 447.205Z" fill="#D3834C"/>
<path d="M133.874 512.251C123.3 540.889 125.283 558.649 134.535 572.191C134.535 572.191 165.814 569.971 167.796 601.494C167.135 620.808 148.632 623.028 141.583 620.142C132.993 627.912 117.573 621.474 117.573 621.474C117.573 621.474 66.4695 628.578 70.8749 605.712C74.3994 582.846 72.1966 562.867 77.2629 531.343C82.3293 499.819 74.3994 486.277 65.1478 454.975C60.3017 438.103 58.099 420.343 60.7423 403.027C64.487 379.717 76.6021 359.959 92.6822 343.309C100.392 335.095 109.203 327.103 119.996 323.107C129.468 319.555 139.38 316.891 149.073 314.671C168.457 310.231 188.282 307.789 208.106 306.013C214.494 305.347 220.882 304.903 227.27 304.459C240.927 302.683 264.937 290.029 264.937 290.029C264.937 290.029 271.546 267.607 286.084 265.609C310.755 288.031 441.378 302.017 441.378 302.017C441.378 302.017 431.686 318.889 420.011 332.431C429.703 364.843 428.822 382.159 424.196 395.701C418.029 414.349 357.012 453.865 329.258 453.865C329.258 453.865 318.684 555.319 349.082 594.612C373.974 588.174 387.851 609.042 386.529 624.804C385.208 640.566 370.229 640.788 366.704 638.568C361.198 643.896 344.236 644.118 340.712 641.232C315.601 648.78 283.881 640.344 284.982 620.808C286.084 601.051 276.171 569.971 269.563 540.889C262.955 511.807 250.619 462.523 250.619 462.523C250.619 462.523 219.34 460.747 194.89 456.085C170.439 451.423 154.8 458.527 150.835 466.963C147.31 475.177 133.874 512.251 133.874 512.251Z" fill="#F9F8F4"/>
<path d="M321.989 644.34C328.377 644.34 334.765 643.452 340.933 641.676C345.338 644.562 361.198 644.118 367.146 639.234C369.569 640.344 374.635 640.566 379.261 638.346C382.785 636.57 386.97 632.796 387.631 624.582C388.292 615.259 384.107 605.269 376.838 599.053C371.771 594.613 362.74 590.173 349.744 593.503C334.325 573.301 329.919 536.671 328.818 509.365C327.716 482.281 329.919 458.971 330.139 454.531C358.775 453.865 418.91 414.349 425.078 395.701C429.043 384.157 431.466 367.507 421.113 332.209C432.567 318.889 442.259 302.239 442.259 302.017C442.48 301.795 442.48 301.573 442.259 301.351C442.039 301.129 441.819 300.907 441.599 300.907C440.277 300.685 310.975 286.699 286.745 264.721C286.525 264.499 286.305 264.499 286.084 264.499C271.987 266.497 265.158 286.255 264.277 289.141C261.414 290.473 239.827 301.573 227.051 303.349H226.39C218.019 304.015 209.649 304.681 201.499 305.347C189.824 306.457 177.929 308.011 166.255 310.009C153.919 312.229 141.584 314.671 129.689 318.445C124.623 319.999 119.777 321.997 114.931 323.773C111.847 324.883 108.983 327.325 106.34 329.101C100.613 333.319 95.3261 338.647 90.48 343.753C85.8543 348.637 81.6691 353.743 77.7041 359.071C70.6553 369.283 65.1484 380.605 62.0646 392.593C58.9807 404.581 58.0997 417.013 59.201 429.445C60.0821 438.103 61.8443 446.539 64.047 454.753C65.8092 460.747 67.3512 465.853 69.1134 470.959C75.7216 491.827 80.1271 505.591 76.1622 530.899C73.5189 547.993 72.8581 561.979 72.1972 574.411C71.7567 584.845 71.3161 594.835 69.7742 605.269C68.8931 609.487 69.9945 613.039 72.6378 615.703C82.5502 626.358 114.27 622.363 117.354 621.919C119.336 622.585 133.434 627.913 141.804 620.587C146.43 622.141 154.14 621.919 160.087 617.923C163.832 615.481 168.457 610.597 168.678 601.051C167.576 584.401 158.325 577.075 150.835 573.745C143.787 570.859 136.958 570.859 134.976 570.859C125.284 556.207 125.063 537.559 134.535 512.029C134.755 511.585 147.972 474.955 151.717 466.519C155.461 457.861 171.541 451.423 194.89 456.085C217.359 460.525 245.774 462.301 250.18 462.523C251.501 468.073 262.735 513.361 268.903 540.223C270.665 547.549 272.427 555.319 274.41 562.645C279.917 584.623 285.203 605.269 284.322 619.921C284.102 625.914 286.525 631.242 291.811 635.46C299.081 641.454 310.094 644.34 321.989 644.34ZM341.153 640.122H340.933C323.751 645.228 303.486 643.008 293.133 634.572C288.287 630.798 285.864 625.915 286.305 620.365C287.186 605.713 281.899 584.845 276.172 562.645C274.41 555.319 272.427 547.549 270.665 540.223C264.057 511.585 251.942 462.301 251.721 461.857C251.721 461.413 251.281 461.191 251.061 461.191C250.84 461.191 219.561 459.415 195.331 454.753C170.22 449.869 154.36 457.195 150.395 466.075C146.65 474.511 133.434 510.919 133.213 511.585C123.521 537.781 123.742 557.095 134.095 572.413C134.315 572.635 134.535 572.857 134.755 572.857C136.077 572.857 165.153 571.081 167.136 601.495C166.916 608.377 164.052 613.705 159.206 617.035C153.479 620.809 146.21 621.031 142.024 619.255C141.804 619.255 141.364 619.255 141.143 619.477C133.213 626.803 118.014 620.809 117.794 620.809C117.574 620.809 117.574 620.809 117.354 620.809C116.913 620.809 83.6516 625.471 73.7392 615.037C71.5364 612.595 70.6553 609.709 71.3162 605.935C72.8581 595.501 73.2986 585.511 73.9594 574.855C74.4 562.645 75.0608 548.659 77.7041 531.565C81.6691 505.813 77.2635 491.827 70.6553 470.737C69.1134 465.853 67.3512 460.525 65.589 454.753C50.8306 404.581 66.2498 361.957 111.406 327.769C144.668 310.897 206.345 306.679 226.39 305.125H227.271C240.928 303.349 264.277 291.139 265.378 290.695C265.599 290.695 265.819 290.473 265.819 290.251C265.819 290.029 272.427 268.717 286.084 266.497C310.315 287.809 426.179 301.129 440.277 302.683C437.854 306.679 429.483 320.665 419.571 331.765C419.351 331.987 419.351 332.209 419.351 332.431C429.924 367.507 427.281 383.935 423.536 395.257C417.368 413.683 357.233 452.977 329.479 452.977C329.038 452.977 328.818 453.199 328.597 453.643C328.597 453.865 325.954 479.395 327.055 509.365C328.157 537.115 332.783 574.411 348.642 594.835C348.863 595.057 349.083 595.279 349.524 595.057C362.299 591.727 370.89 595.945 375.736 600.163C382.785 606.157 386.75 615.48 386.089 624.36C385.428 631.908 381.684 635.238 378.6 636.792C374.194 639.012 369.348 638.569 367.586 637.458C367.366 637.237 366.925 637.237 366.705 637.458C361.418 642.564 344.677 642.564 341.814 640.122C341.373 640.122 341.373 640.122 341.153 640.122Z" fill="#80412A"/>
<path d="M186.079 422.341C204.582 424.783 213.393 437.881 224.627 447.205C235.861 456.529 251.06 461.635 251.06 461.635L250.84 462.079C249.298 462.079 219.12 460.303 195.11 455.641C172.642 451.201 157.664 456.973 152.377 464.521C156.782 447.427 157.223 438.103 157.223 438.103C157.223 438.103 167.796 419.899 186.079 422.341Z" fill="#F9F8F4"/>
<path d="M152.377 465.409C152.597 465.409 152.817 465.187 153.038 464.965C158.104 457.639 173.083 452.089 194.89 456.529C218.239 460.969 247.536 462.745 250.62 462.967C250.84 462.967 251.28 462.745 251.28 462.523L251.501 462.079C251.501 461.857 251.721 461.635 251.501 461.413C251.501 461.191 251.28 460.969 251.06 460.969C250.84 460.969 235.861 455.641 224.847 446.539C222.204 444.319 219.781 441.877 217.138 439.435C208.767 431.443 200.177 423.229 185.859 421.453C167.135 419.011 156.342 437.437 156.342 437.659C156.342 437.659 156.342 437.881 156.342 438.103C156.342 438.103 155.681 447.649 151.496 464.521C151.496 464.965 151.496 465.187 151.936 465.409C152.157 465.409 152.157 465.409 152.377 465.409ZM180.132 453.421C167.356 453.421 158.765 457.195 154.139 461.635C157.443 447.871 158.104 439.879 158.324 438.547C159.426 436.771 169.558 421.231 186.299 423.451C200.177 425.227 208.547 433.219 216.697 441.211C219.12 443.653 221.764 446.095 224.407 448.315C232.117 454.753 242.029 459.415 247.316 461.413C237.844 460.747 214.935 458.971 195.771 455.197C189.603 453.865 184.537 453.421 180.132 453.421Z" fill="#864833"/>
<path opacity="0.6" d="M60.7423 435.439C65.8086 450.313 73.7386 456.307 80.1265 472.291C90.4795 498.043 92.4619 538.891 84.7523 561.757C77.263 584.623 120.657 574.189 117.794 562.645C114.93 544.441 112.066 525.571 126.384 496.933C140.482 468.295 152.817 441.655 149.954 417.013C147.09 392.149 159.426 394.147 190.705 409.465C221.984 424.783 232.337 419.899 241.808 374.167C244.672 434.107 265.378 423.673 265.378 423.673C256.787 447.427 261.633 452.311 273.969 434.995C267.36 460.747 271.105 480.727 282.559 459.859C273.969 495.157 290.93 540.889 296.657 575.077C301.283 595.945 344.677 602.161 338.069 585.955C331.46 569.749 311.856 498.043 314.72 442.765C314.72 442.765 324.191 399.031 302.384 378.829C279.696 357.961 268.462 339.757 264.497 312.229C260.752 284.701 178.369 331.321 154.8 351.301C163.391 332.209 189.824 319.777 175.506 317.113C162.509 314.449 109.864 329.767 86.2942 349.969C88.0564 348.415 89.3781 346.417 91.1403 344.641C92.9025 342.865 94.6647 341.089 96.4269 339.313C98.4094 337.537 100.392 335.761 102.374 333.985C104.137 332.431 105.899 330.877 107.881 329.323C114.049 324.661 121.759 321.997 129.248 319.777C136.737 317.335 144.227 315.337 151.936 313.783C159.866 312.007 167.576 310.675 175.506 309.565C182.995 308.455 190.264 307.567 197.753 306.679C203.921 306.013 210.089 305.347 216.257 304.903C220.001 304.681 223.526 304.237 227.27 304.015C240.927 302.239 264.937 289.585 264.937 289.585C264.937 289.585 271.546 267.163 286.084 265.165C310.755 287.587 441.378 301.573 441.378 301.573C441.378 301.573 433.668 315.115 423.756 327.547C419.13 330.877 414.284 333.763 408.997 336.205C402.169 339.313 394.679 341.089 386.97 340.867C378.82 340.645 370.89 338.425 363.4 335.539C348.201 329.767 334.324 321.109 318.244 317.557C317.803 317.557 317.583 317.557 317.363 318.001C316.702 322.219 319.345 326.215 321.989 329.323C325.733 333.541 330.139 337.093 334.765 340.201C338.95 343.087 343.135 345.751 347.32 348.193C351.505 350.635 355.911 353.299 360.316 355.519C366.704 358.627 373.753 361.069 381.022 361.069C387.851 361.069 394.679 358.849 400.186 354.853C405.693 350.857 409.878 345.307 414.504 340.645C416.487 338.647 418.469 336.871 420.892 335.317C429.483 365.509 428.602 382.381 424.196 395.479C418.029 414.127 357.012 453.643 329.258 453.643C329.258 453.643 318.684 555.097 349.082 594.391C373.974 587.953 387.851 608.821 386.529 624.583C385.208 640.345 370.229 640.567 366.704 638.347C361.198 643.675 344.236 643.896 340.712 641.01C315.601 648.558 283.881 640.123 284.982 620.587C286.084 600.829 276.171 569.749 269.563 540.667C262.955 511.585 250.619 462.301 250.619 462.301C250.619 462.301 239.606 461.635 225.508 460.303C214.935 452.089 206.785 440.767 195.551 433.219C190.705 429.889 185.198 427.447 179.25 427.447C172.202 427.669 165.814 431.443 160.527 436.105C159.866 436.771 160.747 437.881 161.408 437.881C166.034 437.881 170.66 437.659 175.506 437.881C172.862 438.325 170.439 439.213 168.237 440.767C167.576 441.211 168.457 442.543 169.118 442.543C171.981 442.543 175.285 442.543 178.369 442.987C176.387 443.209 174.404 443.431 172.642 444.097C166.034 446.317 162.95 451.645 161.628 457.861C156.121 460.081 152.597 463.411 151.055 466.963C147.31 475.621 133.874 512.473 133.874 512.473C123.3 541.111 125.283 558.871 134.535 572.413C134.535 572.413 165.814 570.193 167.796 601.717C167.135 621.031 148.632 623.251 141.583 620.365C132.993 628.135 117.573 621.697 117.573 621.697C117.573 621.697 66.4695 628.801 70.8749 605.935C74.3994 583.069 72.1966 563.089 77.2629 531.565C82.3293 500.041 74.3994 486.499 65.1478 455.197C63.3856 449.203 61.8437 442.543 60.7423 435.439ZM374.194 625.027C373.092 632.575 391.596 624.583 382.344 609.043C373.092 593.281 360.757 595.501 364.281 599.719C364.281 599.497 377.278 607.489 374.194 625.027ZM340.492 603.715C340.492 603.715 352.827 610.375 347.1 630.577C345.338 637.681 373.753 632.797 368.246 614.149C362.519 598.165 336.747 596.167 340.492 603.715ZM336.967 625.915C339.17 618.589 335.425 610.597 335.425 610.597C327.495 595.279 302.384 616.147 303.045 626.581C303.706 637.014 333.443 637.237 336.967 625.915Z" fill="#D3834C"/>
<path d="M338.951 411.241C337.409 415.459 336.307 419.455 335.206 423.673C334.105 427.891 333.003 432.109 332.122 436.327C331.241 440.545 330.36 444.763 329.699 449.203C329.038 453.421 328.598 457.861 328.598 462.301C329.259 458.083 330.14 453.643 331.021 449.425L333.664 436.771L336.307 424.117C337.188 419.677 338.07 415.459 338.951 411.241Z" fill="#80412A"/>
<path d="M370.67 420.343C367.145 423.229 363.841 425.893 360.537 428.779L350.404 437.215C347.1 440.101 343.576 442.765 340.272 445.651C338.51 446.983 336.747 448.315 334.985 449.647L332.342 451.645L329.478 453.421C333.443 451.645 337.188 449.203 340.933 446.539C344.457 443.875 347.981 441.211 351.285 438.325C354.59 435.439 357.894 432.553 361.198 429.445C364.502 426.559 367.586 423.451 370.67 420.343Z" fill="#80412A"/>
<path d="M242.47 361.513C241.148 369.949 240.707 378.385 240.487 386.821C240.487 395.257 240.928 403.693 241.588 412.351C242.029 416.569 242.47 420.787 243.13 425.005C243.791 429.223 244.452 433.441 245.113 437.659C245.774 441.877 246.875 445.873 247.756 450.091C248.858 454.309 249.739 458.305 251.06 462.301C249.518 454.087 247.756 445.651 246.435 437.437C245.113 429.001 244.012 420.787 243.13 412.351C242.249 403.915 241.809 395.479 241.588 387.043C241.588 382.825 241.588 378.607 241.588 374.389C241.809 369.949 242.029 365.731 242.47 361.513Z" fill="#80412A"/>
<path d="M235.201 303.127C228.813 304.681 222.425 306.901 216.257 309.121C210.089 311.563 204.142 314.449 198.194 317.335C192.247 320.443 186.52 323.773 181.013 327.547C175.506 331.321 170.44 335.539 165.594 339.979C168.237 337.981 170.88 335.761 173.524 333.985L177.489 331.099L181.674 328.435C187.181 324.883 192.908 321.553 198.855 318.667C204.582 315.559 210.75 312.673 216.698 310.231C219.781 308.899 222.865 307.567 225.949 306.457C229.033 305.347 232.117 304.237 235.201 303.127Z" fill="#80412A"/>
<path d="M155.681 406.357C160.307 406.579 164.933 407.467 169.558 408.799C173.964 410.131 178.369 411.907 182.555 414.127C186.74 416.347 190.484 418.789 194.229 421.675C197.974 424.561 201.278 427.669 204.802 430.999C211.631 437.437 218.68 443.653 226.389 449.203C230.134 451.867 234.319 454.531 238.504 456.529C242.69 458.749 247.095 460.303 251.501 461.857C242.69 458.305 234.539 453.865 227.05 448.093C219.561 442.321 212.512 436.105 205.683 429.667C202.159 426.559 198.635 423.229 194.89 420.343C190.925 417.679 187.18 414.793 182.775 412.795C174.404 408.799 165.153 406.135 155.681 406.357Z" fill="#80412A"/>
<path d="M160.307 433.219C161.849 431.665 163.611 430.333 165.373 429.001C167.136 427.669 169.118 426.781 171.1 425.893C175.065 424.117 179.251 423.229 183.656 423.451C185.859 423.673 187.841 423.673 190.044 424.339C192.247 424.783 194.229 425.671 196.212 426.337C198.194 427.225 200.177 428.335 202.159 429.223C203.921 430.333 205.904 431.665 207.666 432.775C205.904 431.443 204.142 429.889 202.6 428.557C200.617 427.447 198.855 426.115 196.873 425.227C192.908 423.229 188.502 422.119 183.876 421.897C179.251 421.897 174.845 422.785 170.88 424.783C166.475 426.781 162.95 429.667 160.307 433.219Z" fill="#80412A"/>
<path d="M158.104 415.681C157.884 420.121 157.663 424.339 157.443 428.557C157.003 432.775 156.782 437.215 156.122 441.433C155.681 445.651 155.02 450.091 154.359 454.309C153.699 458.527 152.597 462.745 151.716 466.963C153.258 462.967 154.58 458.749 155.461 454.531C156.562 450.313 157.223 445.873 157.663 441.655C158.104 437.437 158.545 432.997 158.545 428.557C158.545 424.339 158.545 420.121 158.104 415.681Z" fill="#80412A"/>
<path d="M420.232 331.987C418.029 333.985 415.826 336.427 413.623 338.647C411.421 340.867 409.438 343.309 407.235 345.529C405.253 347.971 403.271 350.191 401.288 352.633C399.306 355.075 397.323 357.517 395.561 359.959C397.764 357.739 399.966 355.519 402.169 353.299C404.372 351.079 406.354 348.859 408.557 346.417C410.54 343.975 412.522 341.755 414.505 339.313C416.487 337.093 418.469 334.651 420.232 331.987Z" fill="#80412A"/>
<path d="M355.911 596.61C357.673 597.72 359.215 598.83 360.537 600.384C362.078 601.716 363.4 603.27 364.722 604.602C367.145 607.71 369.127 611.262 370.008 615.036C370.449 615.924 370.449 617.034 370.669 617.922C370.889 618.81 371.11 619.92 370.889 620.808V623.694C370.669 624.582 370.669 625.692 370.449 626.58C370.449 627.024 370.449 627.468 370.229 628.134L369.788 629.466L369.127 632.352C368.466 634.35 367.806 636.126 367.145 638.124C368.026 636.348 369.127 634.572 370.008 632.796L371.11 629.91L371.55 628.356C371.771 627.912 371.771 627.246 371.771 626.802C371.991 625.692 372.211 624.804 372.431 623.694V620.586C372.431 619.476 372.431 618.588 372.211 617.478C371.991 616.368 371.991 615.48 371.55 614.37C370.449 610.374 368.466 606.6 365.603 603.492C362.96 600.828 359.655 598.386 355.911 596.61Z" fill="#80412A"/>
<path d="M338.95 608.154C340.492 610.596 341.593 613.26 342.474 615.924C343.135 618.588 343.796 621.474 343.796 624.138C343.796 627.024 343.796 629.688 343.135 632.574C342.695 635.46 341.813 638.124 340.932 640.788C341.593 639.456 342.254 638.346 342.915 637.014C343.355 635.682 344.016 634.35 344.237 632.796C345.118 629.91 345.338 627.024 345.338 624.138C345.118 621.252 344.677 618.366 343.576 615.48C342.474 612.816 341.153 610.152 338.95 608.154Z" fill="#80412A"/>
<path d="M350.404 594.168C346.219 594.39 342.254 595.278 338.509 596.61C334.765 597.942 330.8 599.718 327.716 602.382C331.461 600.828 335.205 599.496 338.95 598.164C342.695 596.832 346.439 595.722 350.404 594.168Z" fill="#80412A"/>
<path d="M422.214 337.759C422.214 337.759 408.336 370.171 376.617 371.725C344.897 373.501 287.846 328.435 286.304 285.145C280.136 280.927 281.017 266.942 281.017 266.942C281.017 266.942 273.528 269.828 268.682 280.705C264.056 291.583 275.731 379.717 366.925 393.703C411.42 395.701 426.399 360.847 426.399 360.847C426.619 359.515 422.214 337.759 422.214 337.759Z" fill="#C1272D"/>
<path d="M370.449 394.591C391.816 394.591 405.914 385.933 414.064 378.607C423.315 370.171 427.28 361.513 427.28 361.291V361.069C427.28 359.515 423.315 339.979 422.875 337.759C422.875 337.315 422.434 337.093 422.214 337.093C421.773 337.093 421.553 337.315 421.333 337.537C421.113 337.759 407.235 369.505 376.397 371.059C360.537 371.947 337.849 361.069 318.685 343.309C299.08 325.327 287.626 304.015 286.965 285.367C286.965 285.145 286.745 284.923 286.525 284.701C280.797 280.705 281.678 267.385 281.678 267.385C281.678 267.163 281.678 266.941 281.458 266.719C281.238 266.497 281.018 266.497 280.797 266.719C280.577 266.941 272.867 269.827 268.021 280.927C265.378 286.921 267.801 312.451 281.238 337.093C293.573 359.293 318.244 387.487 366.925 394.813C368.247 394.591 369.348 394.591 370.449 394.591ZM425.959 360.847C424.637 363.511 408.997 394.813 367.145 393.037C319.345 385.711 294.895 357.961 282.78 335.983C269.123 311.119 267.361 286.255 269.563 281.149C273.088 273.157 277.934 269.605 280.357 268.273C280.357 271.825 280.577 281.593 285.643 285.367C286.525 304.459 298.199 325.771 317.804 343.975C337.408 361.957 360.537 373.057 376.617 372.169C403.711 370.615 418.029 347.083 421.773 339.757C423.536 348.415 425.738 359.071 425.959 360.847Z" fill="#79272D"/>
<path d="M268.903 280.927C273.529 270.049 281.238 267.163 281.238 267.163C281.238 267.163 280.357 280.927 286.525 285.367C287.847 328.657 345.118 373.723 376.838 371.947C408.557 370.171 422.435 337.981 422.435 337.981C422.435 337.981 426.84 359.737 426.84 361.291C426.84 361.291 425.518 364.621 422.214 369.061C422.214 368.839 422.214 368.617 421.994 368.617C421.553 366.841 420.452 364.621 418.47 364.177C416.267 363.955 413.844 365.731 412.082 366.841C408.557 369.061 405.033 371.059 401.949 373.723C399.526 375.721 397.544 377.941 396.002 380.605C394.46 383.269 393.579 386.155 392.918 389.263C392.918 389.707 392.697 390.373 392.697 391.039C385.649 393.481 377.278 394.813 367.366 394.369C363.841 393.925 360.537 393.037 357.233 392.371C356.793 389.707 356.132 387.043 355.251 384.379C353.488 379.717 350.845 375.277 346.88 372.391C344.457 370.615 341.814 369.505 339.171 368.173C336.307 366.619 333.443 365.287 330.58 363.733C319.786 357.961 309.654 351.301 302.164 341.311C298.199 335.983 295.116 329.989 292.472 323.773C289.829 317.557 287.626 311.341 284.322 305.569C282.78 302.683 280.798 300.019 278.595 297.577C276.833 295.801 274.63 294.247 271.987 294.469C270.885 294.691 269.784 295.357 268.903 296.023C267.581 288.253 267.801 283.147 268.903 280.927Z" fill="#C1272D"/>
<path d="M134.535 572.19C130.57 571.968 126.385 572.19 122.42 572.856C118.455 573.522 114.49 574.41 110.525 575.742C106.78 577.074 103.036 578.85 99.5113 581.07C96.2071 583.29 93.1233 586.176 90.48 589.284C93.3436 586.398 96.6477 583.956 99.9519 581.958C103.476 579.96 107.001 578.406 110.745 577.074C114.49 575.742 118.455 574.854 122.2 573.966C126.605 573.3 130.57 572.634 134.535 572.19Z" fill="#80412A"/>
<path d="M140.482 578.629C141.583 580.183 142.685 581.737 143.346 583.291C143.786 584.179 144.227 584.845 144.667 585.733C145.108 586.621 145.328 587.509 145.769 588.397C146.87 591.949 147.751 595.501 147.751 599.053C147.751 599.941 147.751 600.829 147.751 601.717C147.751 602.605 147.751 603.493 147.531 604.381L147.09 607.045L146.43 609.709C145.989 611.485 145.108 613.039 144.447 614.815C143.786 616.591 142.685 618.145 142.024 619.921C143.125 618.367 144.227 616.813 145.328 615.259L146.65 612.817C147.09 611.929 147.531 611.041 147.751 610.153C149.293 606.601 149.734 602.827 149.734 598.831C149.734 595.057 148.853 591.061 147.311 587.731C145.328 584.401 143.346 581.293 140.482 578.629Z" fill="#80412A"/>
<path d="M115.591 587.064C116.252 588.396 116.913 589.728 117.574 591.06C118.234 592.392 118.675 593.946 119.116 595.278C119.997 598.164 120.437 601.05 120.657 603.936C120.878 606.822 120.657 609.93 120.217 612.816C119.776 615.702 118.675 618.588 117.574 621.474C118.455 620.142 119.116 618.81 119.776 617.478C120.437 616.146 120.878 614.592 121.318 613.038C121.759 611.484 121.979 609.93 122.199 608.376C122.199 606.822 122.42 605.268 122.199 603.714C121.979 600.606 121.318 597.498 120.217 594.612C119.116 592.17 117.574 589.284 115.591 587.064Z" fill="#80412A"/>
<path d="M273.088 300.463C273.088 300.463 284.102 351.967 332.562 376.387C311.636 377.275 277.493 339.757 273.088 300.463Z" fill="#C1272D"/>
<path opacity="0.6" d="M329.479 454.309C329.258 456.973 328.377 466.075 327.937 478.951C327.716 470.737 328.377 462.745 329.479 454.309Z" fill="#D3834C"/>
<path opacity="0.6" d="M374.855 415.459C369.789 423.895 354.81 439.879 366.044 436.771C389.834 427.669 412.081 406.801 425.078 392.815C424.857 393.703 424.637 394.369 424.417 395.257C418.249 413.905 357.233 453.421 329.478 453.421C331.461 439.657 335.426 425.005 340.712 406.579C339.831 423.229 347.761 434.107 374.855 415.459Z" fill="#D3834C"/>
<path opacity="0.41" d="M229.473 319.333C229.473 319.333 207.446 323.329 149.513 363.067C125.063 383.047 129.688 366.619 151.936 340.201C173.964 314.005 103.255 340.201 80.5671 377.719C57.8788 415.237 94.4445 434.551 98.6297 478.951C101.493 510.031 113.168 492.493 125.944 465.409C138.72 438.547 142.244 418.567 139.821 398.143C137.398 377.719 150.835 383.047 181.673 393.481C212.512 403.915 225.068 416.347 235.641 368.395C245.994 320.443 243.13 389.485 269.783 410.575C296.437 431.665 317.583 414.127 297.098 389.041C276.612 363.955 262.514 355.075 257.668 330.655C252.382 306.457 238.064 315.781 229.473 319.333Z" fill="#D3834C"/>
<path opacity="0.41" d="M308.111 431.443C308.111 431.443 310.094 496.933 318.464 533.341C329.037 572.635 332.342 579.739 319.125 576.187C305.909 572.635 303.486 553.321 295.996 517.135C284.542 460.969 298.639 428.557 308.111 431.443Z" fill="#D3834C"/>
<path d="M147.311 580.627C147.311 580.627 157.223 593.503 150.615 611.485C148.192 618.145 168.677 614.815 165.373 596.611C162.069 578.629 144.447 574.855 147.311 580.627Z" fill="#F9F8F4"/>
<path d="M124.181 588.174C124.181 588.174 129.468 597.72 124.181 613.926C120.437 625.248 148.852 618.588 145.989 598.608C143.125 578.628 120.877 574.41 124.181 588.174Z" fill="#F9F8F4"/>
<path d="M115.15 595.722C115.15 595.722 120.878 609.486 111.406 615.258C101.934 621.03 84.9727 619.476 89.5985 603.936C94.4445 588.175 109.644 581.959 115.15 595.722Z" fill="#F9F8F4"/>
<path d="M386.089 369.283C386.089 369.283 394.9 385.267 378.6 400.363C365.163 393.703 362.74 381.493 363.621 371.281C363.621 371.281 363.18 363.511 373.093 363.289C383.005 362.845 383.886 365.731 386.089 369.283Z" fill="#FCEE21"/>
<path d="M378.6 401.251C378.82 401.251 379.04 401.251 379.04 401.029C395.561 385.711 386.75 369.061 386.75 369.061L386.309 368.173C384.547 364.843 382.785 362.179 373.313 362.401C369.789 362.623 366.925 363.511 365.163 365.509C362.96 367.951 362.96 371.059 362.96 371.281C361.638 385.267 366.925 395.701 378.379 401.251C378.379 401.251 378.379 401.251 378.6 401.251ZM385.208 369.727C385.648 370.393 393.358 385.267 378.379 399.475C367.806 394.147 363.18 384.601 364.282 371.281C364.282 371.059 364.282 368.617 366.044 366.619C367.586 365.065 370.009 364.177 373.093 363.955C381.683 363.733 383.005 365.731 384.767 368.839L385.208 369.727Z" fill="#FBB03B"/>
<path d="M363.621 371.281C363.621 371.281 363.18 363.511 373.092 363.289C373.313 363.289 373.313 363.289 373.533 363.289C372.872 366.619 372.211 370.171 371.991 373.501C371.55 377.719 371.33 383.269 374.414 386.599C375.736 387.931 377.498 388.597 379.26 388.375C382.344 387.931 384.547 385.933 386.089 383.491C387.19 381.493 387.851 379.273 388.512 377.053C389.393 383.047 388.291 392.149 378.819 400.807C364.942 393.925 362.739 381.715 363.621 371.281Z" fill="#FBB03B"/>
<path d="M378.599 366.397C378.599 366.397 382.124 371.503 381.463 381.715C380.802 391.927 391.155 372.613 378.599 366.397Z" fill="white"/>
<path d="M481.427 68.696C481.427 68.696 488.036 35.1741 502.354 33.8421C516.671 32.5101 546.188 60.704 589.142 83.792C632.096 106.658 652.361 120.644 644.431 164.6C636.501 208.556 605.883 280.928 605.883 280.928C605.883 280.928 609.187 225.65 596.191 186.134C585.838 205.892 554.999 216.326 539.36 204.56C523.72 193.016 481.427 68.696 481.427 68.696Z" fill="#D3834C"/>
<path d="M606.103 281.816C606.324 281.816 606.764 281.594 606.764 281.372C606.984 280.706 637.603 208.334 645.312 164.822C653.463 119.534 631.655 105.548 589.362 83.1262C570.859 73.3582 554.779 62.2582 541.563 53.3783C523.5 41.1683 510.504 32.2883 501.913 32.9543C487.155 34.2863 480.547 67.1422 480.326 68.4742C480.326 68.6962 480.326 68.6962 480.326 68.9182C482.089 74.0242 523.06 193.682 538.699 205.448C545.307 210.332 554.559 211.886 565.132 209.444C577.908 206.558 589.803 198.344 595.75 188.354C607.866 227.204 605.002 280.484 605.002 280.928C605.222 281.372 605.443 281.816 606.103 281.816C605.883 281.816 605.883 281.816 606.103 281.816ZM503.235 34.5083C511.165 34.5083 523.721 42.9443 540.682 54.7103C553.678 63.5902 569.978 74.6902 588.481 84.4582C630.113 106.658 651.48 120.422 643.55 164.378C636.942 201.674 613.593 260.06 606.984 276.266C607.425 262.058 607.645 218.324 597.072 185.912C597.072 185.69 596.632 185.468 596.411 185.246C595.971 185.246 595.75 185.468 595.53 185.69C590.023 196.124 578.128 204.782 564.912 207.668C555 209.888 545.968 208.556 539.801 203.894C524.822 192.572 484.071 74.2462 482.089 68.2522C482.749 65.3662 489.137 35.3963 502.134 34.2863C502.574 34.5083 503.015 34.5083 503.235 34.5083Z" fill="#80412A"/>
<path opacity="0.6" d="M502.133 33.842C513.367 32.732 533.853 49.826 562.929 68.4739C556.321 65.1439 549.933 62.258 544.867 60.26C519.755 51.38 568.436 110.21 586.278 128.636C603.9 147.284 611.39 183.026 611.39 207.446C611.39 232.088 629.672 199.676 644.431 164.378C636.501 208.556 605.883 280.705 605.883 280.705C605.883 280.705 609.187 225.428 596.191 185.912C585.838 205.67 554.999 216.104 539.36 204.338C523.72 192.572 481.207 68.2519 481.207 68.2519C481.207 68.2519 487.815 35.174 502.133 33.842Z" fill="#D3834C"/>
<path d="M508.742 51.8239C514.028 55.5979 592.667 157.94 596.191 186.356C585.838 206.114 554.999 216.548 539.36 204.782C529.007 196.79 506.539 138.626 492.882 100.886C495.745 72.9139 503.015 47.6059 508.742 51.8239Z" fill="#D7766B"/>
<path d="M511.825 131.078C510.944 134.852 509.402 138.404 508.521 142.178C502.794 127.97 497.508 113.318 492.882 100.886C495.745 72.9139 503.015 47.6059 508.962 51.8239C514.249 55.5979 592.887 157.94 596.411 186.356C594.208 190.574 591.125 194.348 587.38 197.456C580.551 177.476 577.688 175.478 566.233 157.94C561.608 150.836 557.202 143.954 551.916 137.516C532.972 114.206 517.332 106.88 511.825 131.078Z" fill="#854334"/>
<g opacity="0.47">
<path d="M572.621 146.618C569.758 141.956 566.674 137.516 563.37 133.076C560.947 129.746 558.083 126.416 555.66 122.864C550.374 115.538 545.087 107.99 538.699 101.774C532.972 96.2238 524.602 90.4518 516.011 92.0058C507.42 93.5598 503.235 97.9998 498.829 105.104C497.948 106.658 497.067 107.99 496.186 109.544C495.085 106.658 493.983 103.772 493.102 100.886C495.966 72.9139 503.235 47.6059 509.182 51.8239C514.469 55.5979 589.803 153.722 596.191 184.58C589.803 170.372 580.772 159.716 572.621 146.618Z" fill="#854334"/>
</g>
<path d="M495.525 108.434C494.644 105.77 493.763 103.328 492.882 100.886C495.745 72.9139 503.014 47.6059 508.962 51.8239C510.063 52.7119 514.248 57.5959 520.196 65.1439C517.332 63.1459 515.129 61.8139 513.588 62.0359C508.301 62.2579 500.812 87.5658 495.525 108.434Z" fill="#A85E40"/>
<path d="M621.302 102.884C618.218 100.886 612.051 96.8898 603.901 91.7838C610.509 95.5578 616.236 99.3318 621.302 102.884Z" fill="#D3834C"/>
<path d="M568.437 73.3579C568.437 73.3579 628.351 102.662 636.502 121.976C643.771 138.404 644.652 151.058 630.554 186.8C630.554 158.606 637.162 130.19 615.796 113.096C594.429 96.0019 568.437 73.3579 568.437 73.3579Z" fill="#D3834C"/>
<path d="M347.28 40.0582C347.28 40.0582 308.732 53.3782 284.502 82.4601C266.66 103.328 240.887 80.2401 230.535 68.2521C220.182 56.2642 212.692 56.2642 185.378 89.7861C158.064 123.308 112.027 159.05 106.96 185.246C101.894 211.442 108.502 220.322 127.666 244.076C146.83 267.83 161.809 310.454 152.117 335.095C178.109 317.114 195.731 241.856 195.731 241.856C195.731 241.856 233.398 258.95 258.509 243.41C258.509 243.41 267.981 282.704 332.302 314.228C371.511 335.095 381.864 353.743 390.675 365.953C399.486 378.163 415.125 384.601 448.387 374.167C481.648 363.733 476.582 343.975 478.124 329.102C479.666 314.45 496.627 290.03 511.165 277.598C525.703 265.166 568.657 216.548 537.598 177.476C513.368 142.4 509.403 113.984 501.473 89.7861C493.543 65.3661 478.344 57.5962 453.233 47.1622C428.121 36.7282 400.587 31.8442 388.692 32.2882C400.587 26.7382 407.415 27.8482 407.415 27.8482C407.415 27.8482 391.556 22.2983 380.322 26.9602C390.675 12.5303 415.345 7.20229 415.345 7.20229C415.345 7.20229 372.612 -20.5476 347.28 40.0582Z" fill="#F9F8F4"/>
<path d="M419.31 380.383C427.46 380.383 437.152 378.607 448.386 375.055C477.242 366.175 477.903 349.525 478.344 336.205C478.344 333.763 478.564 331.543 478.784 329.545C480.326 314.893 497.287 290.695 511.605 278.486C518.874 272.27 533.412 256.952 542.223 238.082C553.017 214.994 551.475 193.904 538.259 177.032C519.315 149.726 512.927 126.416 507.2 105.992C505.658 100.22 504.116 94.8919 502.354 89.5639C494.424 64.7 478.564 56.708 453.673 46.274C431.866 37.1721 406.975 31.8441 392.877 31.4001C401.908 27.8481 407.195 28.5141 407.415 28.5141C407.856 28.5141 408.296 28.2921 408.296 27.8481C408.296 27.4041 408.076 26.9601 407.856 26.9601C407.195 26.7381 393.978 22.2981 382.965 25.1841C393.758 12.7521 415.565 7.86813 415.786 7.86813C416.006 7.86813 416.446 7.42413 416.446 7.20213C416.446 6.75813 416.446 6.53613 416.006 6.31413C415.786 6.31413 399.485 -3.89784 381.202 1.65214C366.885 6.09213 355.21 18.7461 346.619 39.3921C342.654 40.946 306.749 54.488 283.621 82.016C278.995 87.3439 273.708 90.0079 267.54 90.2299C267.54 90.2299 267.54 90.2299 267.32 90.2299C251.46 90.2299 235.38 73.136 230.975 68.03C227.45 64.034 223.706 60.482 218.639 60.482C211.15 60.704 201.678 68.696 184.497 89.5639C175.025 101.108 163.571 112.874 152.116 124.418C130.089 146.84 109.163 167.93 105.859 185.468C100.572 212.552 108.282 222.098 126.785 244.964C146.169 268.94 160.487 310.897 151.015 335.095C150.795 335.539 151.015 335.761 151.235 335.983C151.455 336.205 151.896 336.205 152.116 335.983C176.787 319.111 193.528 252.512 195.951 243.188C201.898 245.63 234.719 258.284 257.848 244.742C260.051 251.402 273.708 286.477 331.861 315.115C366.885 333.763 378.779 350.635 387.15 362.845C388.031 364.177 388.912 365.509 389.793 366.619C396.401 375.943 406.093 380.383 419.31 380.383ZM390.454 32.9541C402.129 32.9541 427.901 37.3941 453.012 47.828C477.463 58.04 493.102 66.032 500.812 90.0079C502.574 95.3359 504.116 100.664 505.658 106.436C511.385 127.082 517.993 150.392 536.937 178.142C550.153 194.792 551.255 214.772 540.682 237.416C532.091 256.064 517.773 271.16 510.504 277.154C495.966 289.363 478.784 314.005 477.022 329.323C476.802 331.543 476.802 333.763 476.582 336.205C476.141 349.747 475.48 364.843 447.725 373.501C410.499 385.267 397.503 374.611 391.115 365.731C390.234 364.621 389.353 363.289 388.471 361.957C379.881 349.525 367.986 332.653 332.522 313.783C269.303 282.703 259.17 243.854 259.17 243.41C259.17 243.188 258.95 242.966 258.729 242.744C258.509 242.744 258.289 242.744 258.069 242.744C233.618 258.062 196.392 241.412 195.951 241.19C195.731 241.19 195.51 241.19 195.29 241.19C195.07 241.19 194.85 241.412 194.85 241.856C194.629 242.522 177.889 312.895 153.658 332.875C161.368 307.789 147.05 267.164 128.106 243.632C109.383 220.322 102.334 211.664 107.621 185.468C110.925 168.596 131.631 147.506 153.438 125.306C164.672 113.762 176.347 101.996 185.818 90.4519C202.339 70.25 211.811 62.036 218.639 61.814C222.164 61.814 225.468 63.812 229.653 68.696C234.279 74.024 250.8 91.5619 267.32 91.5619C267.32 91.5619 267.32 91.5619 267.54 91.5619C274.149 91.5619 280.096 88.6759 284.942 82.904C308.952 54.266 347.06 40.724 347.5 40.724C347.721 40.724 347.941 40.5021 347.941 40.2801C356.532 20.0781 367.766 7.64613 381.643 3.20614C395.741 -1.23385 408.517 4.09414 413.142 6.53613C406.975 8.31213 388.471 14.0841 379.66 26.2941C379.44 26.5161 379.44 26.9601 379.66 27.4041C379.881 27.6261 380.321 27.8481 380.542 27.6261C387.59 24.9621 396.401 26.0721 401.908 27.1821C398.604 27.6261 393.978 28.7361 388.251 31.4001C387.811 31.6221 387.59 32.0661 387.811 32.2881C387.811 32.7321 388.251 32.9541 388.692 32.9541C389.353 32.9541 389.793 32.9541 390.454 32.9541Z" fill="#864833"/>
<path d="M469.973 234.53C469.973 234.53 485.392 233.198 482.969 216.104C480.546 199.01 465.788 192.35 433.628 197.678C400.587 203.006 392.436 215.882 394.419 229.646C396.401 243.41 412.261 245.186 414.023 245.186C417.768 256.508 432.747 262.724 449.267 258.284C465.788 253.622 471.295 243.188 469.973 234.53Z" fill="#E0DED1"/>
<path d="M106.74 185.468C112.026 159.272 157.844 123.53 185.158 90.0079C212.472 56.486 219.961 56.486 230.314 68.4739C240.667 80.4619 266.659 103.55 284.281 82.6819C308.732 53.6 347.28 40.28 347.28 40.28C364.021 -0.345895 388.692 -1.6779 403.45 2.0961C369.087 8.09008 363.801 37.838 376.577 48.05C414.023 78.9079 408.076 134.408 408.076 134.408C412.922 120.422 414.023 102.662 412.922 81.7939C424.597 118.646 419.31 144.842 417.548 152.168C417.328 152.834 417.107 153.5 416.887 154.388C416.887 154.388 417.107 153.722 417.548 152.168C432.086 102.662 428.782 58.262 425.918 37.838C434.729 40.28 444.201 43.166 453.453 46.94C478.344 57.596 493.763 65.3659 501.473 89.7859C509.403 114.206 513.368 142.4 537.378 177.698C568.436 216.992 525.483 265.387 510.945 277.819C496.406 290.251 479.445 314.671 477.903 329.323C476.361 343.975 481.207 363.955 448.166 374.389C415.125 384.823 399.485 378.385 390.454 366.175C381.643 353.965 371.29 335.317 332.081 314.449C267.761 282.703 258.289 243.632 258.289 243.632C233.178 259.393 195.511 242.078 195.511 242.078C195.511 242.078 177.668 317.335 151.896 335.317C161.588 310.675 146.61 268.273 127.446 244.298C108.282 220.544 101.453 211.442 106.74 185.468ZM285.603 260.503C307.851 250.736 330.319 265.609 330.319 265.609C330.319 265.609 323.711 265.609 309.393 263.833C321.508 265.165 351.245 282.925 398.604 287.365C445.963 291.805 448.827 244.298 448.827 244.298C448.827 244.298 448.827 244.298 457.638 244.298C456.977 260.725 456.977 282.259 473.938 281.815C491.12 281.371 506.319 269.605 514.469 250.958C522.619 232.31 516.672 218.99 501.032 216.548C485.613 214.328 477.463 203.228 477.463 203.228C465.568 186.134 458.96 180.806 427.24 181.694C395.52 182.36 392.877 218.99 367.325 230.756C327.455 249.404 319.966 252.29 297.057 250.958C274.589 249.404 264.236 264.943 285.603 260.503Z" fill="#E0DED1"/>
<path d="M488.036 207.002C483.63 193.682 469.092 185.912 456.096 181.916C425.698 172.592 429.002 106.88 434.289 70.4719C436.491 55.8199 435.17 46.274 432.967 40.058C439.796 42.056 446.624 44.498 453.232 47.162C478.344 57.5959 493.763 65.3659 501.473 89.7859C509.403 114.206 513.367 142.4 537.377 177.698C543.765 185.912 547.07 194.348 547.951 203.006C532.091 224.984 497.728 215.438 488.036 207.002Z" fill="#D3834C"/>
<g opacity="0.4">
<path d="M440.677 148.172C433.187 46.274 472.396 54.7099 495.305 84.9019C466.449 70.0279 461.162 98.6658 461.162 98.6658C461.162 98.6658 488.476 84.9019 503.455 112.652C518.434 140.402 517.993 176.588 499.05 194.57C547.29 212.552 535.836 181.472 525.262 157.496C528.566 163.934 532.531 170.816 537.377 177.698C543.765 185.912 547.07 194.348 547.951 203.006C531.871 225.206 497.508 215.66 487.816 207.224C483.41 193.904 468.872 186.134 455.876 182.138C444.421 178.586 437.593 167.042 434.068 151.946C438.474 157.94 442.439 158.162 440.677 148.172Z" fill="#A45E3D"/>
</g>
<path d="M106.739 185.468C112.026 159.272 157.843 123.53 185.157 90.0078C212.471 56.4859 219.961 56.4859 230.314 68.4739C240.666 80.4618 266.659 103.55 284.281 82.6818C300.802 62.9239 323.93 50.4919 336.927 44.4979C357.412 48.0499 398.383 65.3659 397.062 144.842C396.401 229.645 329.658 247.405 304.546 248.071C282.739 248.515 267.981 248.737 266.218 259.837C260.271 250.291 258.729 243.853 258.729 243.853C233.618 259.615 195.951 242.299 195.951 242.299C195.951 242.299 178.108 317.557 152.336 335.539C162.028 310.897 147.05 268.495 127.886 244.519C108.281 220.543 101.453 211.442 106.739 185.468Z" fill="#D3834C"/>
<path d="M151.896 336.205C152.116 336.205 152.336 336.205 152.336 335.983C163.13 328.435 173.923 310.453 184.276 282.259C190.884 264.056 195.07 247.406 196.171 243.188C202.118 245.63 234.939 258.284 258.068 244.742C258.729 246.962 260.712 252.512 265.337 259.838C265.558 260.06 265.778 260.282 266.219 260.282C266.659 260.282 266.879 259.838 266.879 259.616C268.642 249.404 282.299 249.182 303.004 248.516H304.326C336.486 247.85 397.282 225.206 397.723 144.62C398.384 109.766 390.894 83.1259 375.695 65.366C363.14 50.492 347.72 45.164 336.927 43.166C336.707 43.166 336.486 43.166 336.486 43.166C323.931 48.938 300.361 61.592 283.4 81.5719C278.774 86.8999 273.488 89.5639 267.32 89.7859C267.32 89.7859 267.32 89.7859 267.1 89.7859C251.24 89.7859 235.16 72.6919 230.754 67.586C227.23 63.59 223.485 60.038 218.419 60.038C210.929 60.26 201.458 68.252 184.276 89.1199C174.804 100.664 163.35 112.43 151.896 123.974C129.868 146.396 108.942 167.486 105.638 185.024C100.351 212.108 108.061 221.654 126.564 244.52C145.948 268.495 160.266 310.453 150.794 334.651C150.574 335.095 150.794 335.317 151.015 335.539C151.455 336.205 151.675 336.205 151.896 336.205ZM195.51 241.19C195.29 241.19 195.29 241.19 195.07 241.19C194.849 241.19 194.629 241.412 194.629 241.856C194.409 242.522 177.668 312.895 153.438 332.875C161.147 307.789 146.829 267.164 127.886 243.632C109.162 220.322 102.114 211.664 107.4 185.468C110.704 168.596 131.41 147.506 153.217 125.306C164.451 113.762 176.126 101.996 185.598 90.4519C202.118 70.25 211.59 62.036 218.419 61.814C218.419 61.814 218.419 61.814 218.639 61.814C222.163 61.814 225.247 63.812 229.653 68.696C234.279 74.0239 250.799 91.5619 267.32 91.5619C267.32 91.5619 267.32 91.5619 267.54 91.5619C274.148 91.5619 280.096 88.6759 284.942 82.9039C301.463 63.146 324.591 50.714 337.147 44.942C359.835 49.16 397.502 67.586 396.181 144.62C395.74 223.874 335.825 246.296 304.326 246.962H303.004C282.739 247.406 268.862 247.628 265.558 257.396C260.491 248.96 259.17 243.41 259.17 243.41C259.17 243.188 258.949 242.966 258.729 242.744C258.509 242.744 258.289 242.744 258.068 242.744C233.618 258.062 196.391 241.412 195.951 241.19C195.73 241.412 195.51 241.19 195.51 241.19Z" fill="#80412A"/>
<g opacity="0.4">
<path d="M105.638 192.794C109.603 214.994 123.921 226.76 136.697 235.196C154.319 246.74 156.962 300.908 175.465 263.612C197.493 213.884 194.85 131.966 201.017 99.998C204.982 79.13 188.021 90.452 175.686 100.886C178.99 97.112 182.294 93.56 185.157 90.008C212.472 56.4861 219.961 56.4861 230.314 68.474C240.667 80.462 266.659 103.55 284.281 82.682C284.942 82.016 285.603 81.35 286.043 80.462C256.306 130.412 265.998 187.022 278.554 206.78C265.338 210.332 257.408 226.316 267.1 238.748C276.792 251.18 336.707 229.868 324.371 227.204C312.036 224.54 291.771 214.772 282.078 185.468C267.981 125.972 304.987 75.356 342.434 76.466C326.133 89.342 307.63 112.652 327.896 103.772C362.259 93.116 388.692 139.292 386.048 179.252C390.234 174.368 393.317 167.708 395.961 160.382C387.811 231.644 327.896 247.406 304.326 247.85C282.519 248.294 267.761 248.516 265.998 259.616C260.051 250.07 258.509 243.632 258.509 243.632C233.398 259.394 195.731 242.078 195.731 242.078C195.731 242.078 177.888 317.336 152.116 335.317C161.808 310.676 146.83 268.274 127.666 244.298C110.044 222.986 102.995 213.44 105.638 192.794Z" fill="#A45E3D"/>
</g>
<path d="M297.277 185.468C304.547 210.331 333.182 225.205 354.329 218.767C375.695 212.329 381.202 183.248 373.933 158.384C366.664 133.52 344.196 120.2 322.609 125.972C298.379 132.632 290.008 160.382 297.277 185.468Z" fill="#31111B"/>
<path d="M302.784 186.799C309.613 210.331 336.487 224.317 356.532 218.323C376.577 212.329 381.863 185.023 375.035 161.491C368.206 137.96 347.06 125.528 326.794 131.078C303.666 137.072 295.736 163.267 302.784 186.799Z" fill="#E6E6E6"/>
<path d="M311.816 185.468C317.323 204.338 338.91 215.659 354.99 210.775C371.07 205.892 375.476 183.914 369.748 165.044C364.242 146.174 347.28 136.184 330.98 140.624C312.697 145.73 306.309 166.598 311.816 185.468Z" fill="white"/>
<mask id="mask0_330_4404" style="mask-type:luminance" maskUnits="userSpaceOnUse" x="300" y="129" width="78" height="91">
<path d="M302.784 186.799C309.613 210.331 336.487 224.317 356.532 218.323C376.577 212.329 381.863 185.023 375.035 161.491C368.206 137.96 347.06 125.528 326.794 131.078C303.666 137.072 295.736 163.267 302.784 186.799Z" fill="white"/>
</mask>
<g mask="url(#mask0_330_4404)">
<path d="M327.014 175.034C324.151 194.57 336.266 212.33 353.888 214.994C371.51 217.658 388.031 203.894 390.894 184.358C393.758 164.822 381.643 147.062 364.021 144.398C346.399 141.956 329.878 155.72 327.014 175.034Z" fill="#5A2A22"/>
<path d="M329.878 175.478C327.235 193.238 338.248 209.444 354.328 211.664C370.408 214.106 385.387 201.452 388.03 183.914C390.674 166.154 379.66 149.948 363.58 147.728C347.5 145.286 332.521 157.718 329.878 175.478Z" fill="#873322"/>
<path d="M339.13 175.033C337.367 187.687 345.077 199.453 356.752 201.007C368.206 202.783 378.999 193.681 380.982 181.027C382.744 168.373 375.034 156.608 363.36 155.054C351.906 153.5 341.112 162.379 339.13 175.033Z" fill="black"/>
<path d="M336.927 165.488C336.266 169.706 338.909 173.48 342.654 174.146C346.399 174.59 349.923 171.704 350.584 167.486C351.245 163.268 348.601 159.494 344.857 158.828C341.112 158.384 337.588 161.27 336.927 165.488Z" fill="#F6F6F4"/>
<path d="M361.598 201.008C362.038 200.564 362.699 200.12 363.14 199.898C366.003 197.9 368.867 195.68 371.51 193.016C373.493 191.24 376.356 185.912 379.44 187.688C385.608 191.462 377.238 201.452 374.154 203.894C370.85 207.002 365.343 209.888 361.598 206.114C360.937 205.448 360.276 204.338 360.276 203.228C360.276 202.562 360.937 201.674 361.598 201.008Z" fill="#9C533D"/>
</g>
<path d="M450.589 157.496C455.215 180.362 471.956 195.902 487.816 192.794C503.675 189.464 512.707 168.374 508.081 145.73C503.455 123.086 486.714 107.324 470.854 110.654C454.995 113.762 445.963 134.852 450.589 157.496Z" fill="#31111B"/>
<path d="M454.27 161.083C450.068 140.676 458.248 121.709 472.541 118.719C486.835 115.729 501.829 129.849 506.031 150.257C510.234 170.664 502.053 189.632 487.76 192.621C473.466 195.611 458.473 181.491 454.27 161.083Z" fill="#E6E6E6"/>
<path d="M459.015 160.091C455.579 143.405 462.256 127.899 473.929 125.457C485.602 123.016 497.851 134.563 501.287 151.249C504.723 167.935 498.045 183.442 486.373 185.883C474.7 188.325 462.451 176.777 459.015 160.091Z" fill="white"/>
<path d="M460.281 163.268C461.823 180.584 473.718 193.46 486.714 192.35C499.711 191.24 509.183 176.144 507.641 159.05C506.099 141.734 494.204 128.858 481.208 129.968C468.211 131.078 458.74 146.174 460.281 163.268Z" fill="#5A2A22"/>
<path d="M462.484 163.046C463.806 178.808 474.599 190.574 486.494 189.464C498.389 188.354 506.759 174.812 505.438 159.05C504.116 143.288 493.323 131.522 481.428 132.632C469.533 133.742 461.162 147.284 462.484 163.046Z" fill="#873322"/>
<path d="M469.092 160.826C470.194 172.148 477.903 180.584 486.494 179.918C495.085 179.03 501.032 169.262 500.151 158.162C499.05 146.84 491.34 138.404 482.749 139.07C474.159 139.958 467.991 149.726 469.092 160.826Z" fill="black"/>
<path d="M465.788 153.056C466.229 156.83 468.652 159.494 471.516 159.272C474.379 159.05 476.362 155.72 475.921 152.168C475.481 148.394 473.058 145.73 470.194 145.952C467.33 146.174 465.348 149.504 465.788 153.056Z" fill="#F6F6F4"/>
<path d="M489.799 179.03C490.019 178.586 490.459 178.142 490.68 177.698C492.442 175.478 493.984 173.036 495.306 170.372C496.407 168.374 497.508 163.268 499.931 164.156C504.998 166.154 500.812 176.366 499.27 179.252C497.508 182.582 493.984 186.134 490.68 183.692C490.019 183.248 489.358 182.582 489.358 181.472C489.138 180.584 489.358 179.696 489.799 179.03Z" fill="#9C533D"/>
<path d="M500.592 160.382V160.16C500.592 159.938 500.592 159.938 500.592 159.716V159.494V159.272H500.812C501.033 159.272 501.033 159.272 501.253 159.272C501.253 159.272 501.473 159.272 501.473 159.494L501.694 159.716V159.938V160.16V160.382V160.604C501.694 160.604 501.694 160.604 501.694 160.826C501.694 161.048 501.694 161.048 501.694 161.27C501.694 161.492 501.694 161.492 501.694 161.492L501.473 161.714H501.253H501.033H500.812C500.812 161.714 500.592 161.714 500.592 161.492C500.372 161.492 500.372 161.27 500.372 161.048C500.372 161.048 500.372 160.826 500.152 160.826C500.152 160.826 500.152 160.826 500.152 160.604C500.592 160.604 500.592 160.604 500.592 160.382Z" fill="#9C533D"/>
<path d="M502.354 159.716C502.136 159.716 502.136 159.716 502.354 159.716C502.354 159.935 502.354 159.935 502.354 159.716Z" fill="#6B63AC"/>
<path d="M480.987 195.68C476.141 189.464 468.652 185.468 461.162 183.248C453.453 180.806 445.523 180.362 437.593 180.362C433.628 180.362 429.663 181.028 425.698 181.694C421.733 182.582 417.988 183.692 414.244 185.246C410.719 187.022 407.195 189.02 404.111 191.684C401.027 194.348 398.604 197.456 396.622 201.008C401.027 194.348 407.635 189.464 414.684 186.578C418.209 185.246 421.953 184.136 425.918 183.248C429.663 182.582 433.628 182.138 437.593 182.138C445.303 181.916 453.232 182.36 460.722 184.58C464.466 185.468 468.211 187.022 471.515 188.798C475.04 190.574 478.344 192.794 480.987 195.68Z" fill="#514541"/>
<path d="M377.237 216.992C375.034 219.656 372.611 222.32 370.188 224.54C367.765 226.982 365.122 228.98 362.258 230.978C359.395 232.976 356.531 234.752 353.447 236.306C350.363 237.86 347.059 238.97 343.755 240.302C347.28 239.858 350.584 238.97 353.888 237.638C357.192 236.306 360.276 234.53 363.139 232.532C366.003 230.534 368.646 228.092 371.069 225.65C373.272 222.764 375.475 220.1 377.237 216.992Z" fill="#514541"/>
<path d="M456.096 181.916C452.131 178.808 447.285 177.032 442.439 176.144C440.016 175.7 437.373 175.478 434.95 175.7C432.526 175.7 429.883 176.144 427.68 176.81C430.103 176.81 432.526 176.81 434.95 177.032C437.373 177.254 439.796 177.476 442.219 177.92C444.642 178.364 446.844 178.808 449.267 179.474C451.47 179.918 453.893 180.806 456.096 181.916Z" fill="#514541"/>
<path d="M474.159 281.594C474.159 281.594 458.299 282.038 452.352 269.828C440.016 288.032 407.416 315.116 328.117 276.71C356.752 297.8 375.255 316.448 387.591 331.543C399.926 346.639 418.429 357.961 438.254 355.741C458.299 353.521 466.89 335.095 466.89 316.448C466.89 297.578 471.295 284.036 474.159 281.594Z" fill="#660F08"/>
<path d="M321.728 263.833C317.983 262.057 313.798 260.947 309.613 260.281C305.428 259.615 301.242 259.393 296.837 260.059C294.634 260.503 292.431 261.169 290.229 262.501C289.127 263.167 288.246 264.277 287.585 265.387C286.925 266.497 286.484 267.829 286.484 269.161C286.484 271.603 287.365 273.823 288.466 275.821C289.568 277.597 290.89 279.373 292.431 280.927C291.991 279.817 291.771 278.929 291.33 278.041C291.11 276.931 290.669 276.043 290.449 275.155C289.788 273.157 289.788 271.381 290.008 269.827C290.449 266.719 293.753 265.387 297.498 264.721C301.242 264.055 305.207 264.055 309.172 264.055C313.578 263.833 317.543 263.833 321.728 263.833Z" fill="#864833"/>
<path d="M518.874 233.197C518.213 236.083 517.553 238.969 516.672 241.855C515.79 244.741 514.689 247.627 513.588 250.291C511.165 255.841 508.081 260.947 504.336 265.387C500.591 269.827 495.966 273.823 490.679 276.043C485.613 278.485 479.665 279.595 473.938 279.595H474.158L471.075 279.151C469.973 278.929 469.092 278.707 467.991 278.485C466.008 278.041 464.026 277.375 462.264 276.265C460.501 275.377 458.739 274.267 457.418 272.935C456.096 271.603 454.554 270.049 453.893 268.495L452.131 264.943L450.148 268.273C448.386 270.937 446.183 273.601 443.76 276.043C441.337 278.485 438.694 280.705 435.831 282.481C430.103 286.255 423.936 289.141 417.327 290.917C414.023 291.805 410.719 292.249 407.195 292.915C403.67 293.137 400.366 293.581 396.842 293.359C390.013 293.359 382.965 292.471 376.136 291.139C369.307 289.807 362.479 288.031 355.871 285.811C349.262 283.591 342.654 280.927 336.266 278.263C329.878 275.377 323.49 272.491 316.882 269.605C310.494 266.719 303.886 263.611 297.057 262.057C303.666 264.277 310.053 267.829 316.221 270.937C322.389 274.267 328.777 277.597 335.165 280.705C341.553 283.813 348.161 286.699 354.769 289.141C361.598 291.583 368.426 293.581 375.475 295.135C382.524 296.467 389.573 297.577 396.842 297.799C400.366 298.021 404.111 297.577 407.635 297.355C411.16 296.911 414.904 296.467 418.429 295.357C425.478 293.581 432.306 290.473 438.254 286.255C441.337 284.257 444.201 281.815 446.624 279.151C449.267 276.487 451.47 273.823 453.453 270.271L449.708 270.049C451.03 272.491 452.571 274.267 454.334 275.821C456.096 277.375 458.078 278.707 460.061 279.595C462.043 280.705 464.246 281.371 466.449 281.815C467.55 282.037 468.652 282.259 469.753 282.481L473.057 282.925C479.225 282.703 485.613 281.371 491.12 278.485C496.626 275.599 501.473 271.381 505.217 266.497C508.962 261.613 511.605 256.063 513.808 250.291C516.672 245.185 518.213 239.191 518.874 233.197Z" fill="#864833"/>
<path d="M453.232 251.846C452.571 255.176 452.351 258.506 452.131 261.836C451.911 265.166 451.911 268.274 451.47 271.826C452.571 270.494 453.232 268.718 453.673 267.164C454.113 265.388 454.334 263.834 454.554 262.058C454.554 260.282 454.554 258.728 454.334 256.952C454.113 255.176 453.893 253.4 453.232 251.846Z" fill="#864833"/>
<path d="M416.667 302.906C446.404 300.686 459.84 316.225 465.568 328.213C462.484 342.199 453.893 353.965 438.254 355.741C418.208 357.961 399.705 346.639 387.59 331.543C385.608 329.101 383.405 326.659 381.202 323.995C382.304 316.226 388.692 304.682 416.667 302.906Z" fill="#F797A3"/>
<path d="M389.353 310.675C391.115 314.893 393.097 318.889 395.741 322.663C401.027 330.211 408.957 335.095 417.548 337.981C426.359 340.867 436.712 341.977 445.303 337.981C449.047 336.205 452.572 333.541 454.774 329.767C456.537 326.659 457.197 322.885 456.757 319.111C456.537 317.557 456.316 316.003 455.876 314.671C460.501 318.889 463.585 323.773 465.788 328.213C462.704 342.199 454.114 353.965 438.474 355.741C418.429 357.961 399.926 346.639 387.811 331.543C385.828 329.101 383.625 326.659 381.423 323.995C381.643 319.999 383.846 314.893 389.353 310.675Z" fill="#F797A3"/>
<path d="M454.554 68.918C454.554 68.918 485.393 72.47 499.49 88.898C492.442 71.36 479.886 62.48 466.669 57.818C453.453 53.156 452.131 66.254 454.554 68.918Z" fill="#3A1B23"/>
<path d="M297.278 107.768C297.278 107.768 316.662 87.3441 342.655 76.4661C352.567 72.9141 351.245 59.1502 337.368 60.2602C323.711 61.5921 303.666 86.0121 297.278 107.768Z" fill="#3A1B23"/>
<path d="M224.367 84.68C261.373 110.876 262.034 139.514 262.034 139.514C262.034 139.514 246.835 122.642 238.244 110.876C240.887 132.854 256.086 146.174 256.086 146.174L244.852 139.514C244.852 139.514 245.293 142.622 251.02 151.724C245.513 147.062 227.671 137.96 219.08 157.274C235.38 157.718 244.412 172.148 244.412 172.148C244.412 172.148 226.129 158.384 216.437 165.044C227.671 168.596 233.618 175.7 242.429 195.236C251.02 223.43 258.73 243.632 258.73 243.632C233.618 259.394 195.951 242.078 195.951 242.078C195.951 242.078 212.692 166.154 214.234 143.066C215.776 119.978 218.86 82.682 224.367 84.68Z" fill="#D7766B"/>
<path d="M242.209 195.236C250.8 223.43 258.509 243.632 258.509 243.632C255.425 245.63 252.121 246.962 248.817 247.85C247.936 241.634 247.275 235.418 245.513 229.646C241.548 216.326 241.328 215.882 236.041 206.558C234.059 203.006 232.297 198.566 228.992 196.346C225.027 193.46 221.503 197.012 219.741 200.564C216.877 206.336 215.556 212.108 214.675 218.324C213.573 225.206 212.912 227.87 212.912 234.308C212.912 242.078 212.692 240.302 214.014 248.072C203.22 245.63 195.511 242.078 195.511 242.078C195.511 242.078 212.692 166.154 214.234 143.066C215.776 119.978 218.86 82.682 224.367 84.68C261.373 110.876 262.034 139.514 262.034 139.514C262.034 139.514 246.835 122.642 238.244 110.876C240.887 132.854 256.086 146.174 256.086 146.174L244.852 139.514C244.852 139.514 245.293 142.622 251.02 151.724C245.513 147.062 227.671 137.96 219.08 157.274C235.38 157.718 244.412 172.148 244.412 172.148C244.412 172.148 226.129 158.384 216.437 165.044C227.451 168.596 233.398 175.7 242.209 195.236Z" fill="#854334"/>
<g opacity="0.47">
<path d="M255.866 146.174L244.632 139.514C244.632 139.514 245.073 142.622 250.8 151.724C245.293 147.062 227.451 137.96 218.86 157.274C235.16 157.718 244.191 172.148 244.191 172.148C244.191 172.148 225.909 158.384 216.216 165.044C222.604 167.042 227.23 170.15 231.636 176.144C229.874 174.59 227.671 173.48 225.468 172.814C214.675 170.372 212.472 184.358 210.93 191.906C209.608 199.01 208.287 205.892 207.185 212.996C205.864 221.876 204.762 230.534 203.881 239.414C203.661 241.19 203.441 243.188 203.441 244.964C198.594 243.41 195.511 242.078 195.511 242.078C195.511 242.078 212.692 166.154 214.234 143.066C215.776 119.978 218.86 82.682 224.367 84.68C261.373 110.876 262.034 139.514 262.034 139.514C262.034 139.514 246.835 122.642 238.244 110.876C240.667 132.854 255.866 146.174 255.866 146.174Z" fill="#854334"/>
</g>
<path d="M278.554 93.782C275.03 96.89 272.607 101.108 270.624 105.326C268.642 109.544 266.88 113.984 265.778 118.646C265.117 120.866 264.677 123.308 264.236 125.528C263.796 127.97 263.355 130.19 263.135 132.632L262.254 139.736L262.034 146.84C261.813 149.282 262.034 151.502 262.034 153.944L262.254 161.048C262.694 165.71 262.915 170.594 263.355 175.256C264.016 179.918 264.457 184.58 265.338 189.242L267.981 203.228L268.201 202.34C265.117 206.336 262.254 210.776 260.492 215.66C258.509 220.544 257.408 225.65 257.408 230.756C257.188 235.862 258.069 240.968 259.831 245.852C261.373 250.736 263.796 255.176 266.439 259.394C264.016 254.954 261.813 250.292 260.492 245.63C259.17 240.746 258.509 235.862 258.729 230.756C258.95 225.872 260.271 220.988 262.254 216.326C264.236 211.886 266.88 207.446 269.963 203.672L270.184 203.228V202.784L267.761 188.798C267.1 184.136 266.659 179.474 265.999 174.812C265.558 170.15 265.117 165.488 264.677 160.826L264.457 153.722C264.457 151.28 264.236 149.06 264.457 146.618C264.457 137.294 265.558 127.97 267.54 118.646C269.082 110.21 272.166 100.886 278.554 93.782Z" fill="#864833"/>
<path d="M393.979 271.826C394.199 272.714 395.961 273.158 397.723 272.492C399.486 272.048 400.587 270.716 400.367 269.828C400.146 268.94 398.384 268.496 396.622 269.162C394.86 269.606 393.758 270.938 393.979 271.826Z" fill="#A09E97"/>
<path d="M493.984 257.618C494.204 258.506 495.966 258.95 497.728 258.284C499.49 257.84 500.592 256.508 500.371 255.62C500.151 254.732 498.389 254.288 496.627 254.954C494.865 255.62 493.543 256.73 493.984 257.618Z" fill="#A09E97"/>
<path d="M387.59 260.282C387.59 261.17 388.692 262.058 390.454 262.28C391.996 262.502 393.538 261.836 393.538 260.948C393.538 260.06 392.436 259.172 390.674 258.95C389.132 258.95 387.811 259.394 387.59 260.282Z" fill="#A09E97"/>
<path d="M470.854 259.838C470.854 260.726 471.956 261.614 473.718 261.836C475.26 262.058 476.802 261.392 476.802 260.504C476.802 259.616 475.7 258.728 473.938 258.506C472.396 258.506 470.854 258.95 470.854 259.838Z" fill="#A09E97"/>
<path d="M432.306 277.598C432.747 278.042 433.848 277.82 434.509 276.932C435.39 276.044 435.61 275.156 435.17 274.712C434.729 274.268 433.628 274.49 432.967 275.378C432.306 276.044 431.866 277.154 432.306 277.598Z" fill="#A09E97"/>
<path d="M485.393 248.294C485.393 248.96 486.494 249.404 487.595 249.182C488.697 248.96 489.578 248.516 489.578 247.85C489.578 247.184 488.477 246.74 487.375 246.962C486.274 247.184 485.393 247.628 485.393 248.294Z" fill="#A09E97"/>
<path d="M416.667 262.502C416.667 263.39 417.328 264.056 418.209 264.278C419.31 264.5 419.971 263.834 420.191 262.946C420.191 262.058 419.53 261.392 418.649 261.17C417.548 261.17 416.667 261.614 416.667 262.502Z" fill="#A09E97"/>
<path d="M404.772 304.903C408.296 307.123 411.821 309.565 415.125 312.007C418.429 314.449 421.733 317.113 424.817 319.999C427.901 322.885 430.764 325.993 433.187 329.101C435.831 332.431 437.813 335.983 439.796 339.757C438.694 335.539 436.932 331.543 434.509 327.991C432.086 324.439 429.222 321.109 426.139 318.223C420.191 312.451 412.922 307.789 404.772 304.903Z" fill="#F797A3"/>
<path d="M508.521 132.41C506.318 124.196 502.354 116.204 496.186 109.988C493.102 106.88 489.357 104.216 485.392 102.662C483.41 101.774 481.207 101.33 479.004 100.886C476.802 100.664 474.599 100.442 472.396 100.664C467.991 101.108 463.585 102.884 460.281 105.77C456.977 108.656 454.334 112.43 452.571 116.426C449.047 124.418 447.505 133.076 447.285 141.512C447.725 137.294 448.606 133.076 449.708 129.08C450.809 125.084 452.131 120.866 454.113 117.314C456.096 113.54 458.519 110.21 461.603 107.546C464.687 104.882 468.651 103.328 472.616 103.106C474.599 102.884 476.581 103.106 478.784 103.328C480.767 103.772 482.749 103.994 484.732 104.882C486.714 105.548 488.476 106.658 490.238 107.546L492.661 109.322C493.543 109.988 494.203 110.654 495.084 111.32C498.168 114.206 500.812 117.536 503.014 121.088C505.217 124.64 506.979 128.414 508.521 132.41Z" fill="#864833"/>
<path d="M363.36 134.63C361.818 131.966 360.056 129.524 357.853 127.304C356.752 126.194 355.651 125.084 354.549 124.196C353.228 123.308 352.126 122.198 350.805 121.532C345.518 118.202 339.571 115.982 333.183 115.76C327.015 115.538 320.627 117.092 314.9 119.312C312.036 120.422 309.173 122.198 306.75 123.974C304.327 125.972 302.124 128.192 300.141 130.634C296.397 135.74 293.753 141.512 291.991 147.506C290.449 153.5 289.568 159.716 289.568 165.932C289.568 172.148 290.449 178.364 291.991 184.358C293.533 190.352 295.956 196.346 299.921 201.008C296.397 195.902 294.414 190.13 293.093 184.136C291.771 178.142 291.33 172.148 291.33 165.932C291.551 159.938 292.211 153.722 293.974 147.95C295.736 142.178 298.159 136.628 301.904 131.966C303.666 129.524 305.869 127.526 308.071 125.528C310.494 123.752 312.917 122.198 315.781 121.088C321.288 118.868 327.235 117.314 333.183 117.536C345.078 117.314 356.312 124.418 363.36 134.63Z" fill="#864833"/>
<path d="M433.187 356.851C434.949 356.851 436.491 356.851 438.253 356.629C459.84 354.187 467.55 333.542 467.55 316.448C467.55 298.022 472.176 284.48 474.599 282.482C474.819 282.26 475.039 281.816 474.819 281.594C474.599 281.15 474.379 281.15 473.938 281.15C473.938 281.15 458.519 281.372 453.012 269.828C452.792 269.606 452.571 269.384 452.351 269.384C451.911 269.384 451.69 269.606 451.69 269.828C439.135 288.476 406.534 314.228 328.556 276.488C328.116 276.266 327.675 276.488 327.455 276.71C327.235 277.154 327.235 277.598 327.675 277.82C352.126 295.802 371.951 314.228 386.929 332.432C399.705 347.749 416.667 356.851 433.187 356.851ZM472.396 282.482C469.533 287.144 466.008 300.02 466.008 316.448C466.008 342.422 451.69 353.299 438.253 354.853C420.631 356.851 401.908 347.971 388.251 330.878C374.594 314.228 356.752 297.356 335.165 280.706C407.635 313.34 439.355 289.586 452.351 271.382C457.417 280.484 468.211 282.038 472.396 282.482Z" fill="#864833"/>
<path d="M475.48 228.092C475.48 228.092 490.9 226.76 488.477 209.666C486.053 192.572 471.295 185.912 439.135 191.24C406.094 196.568 397.943 209.444 399.926 223.208C401.908 236.972 417.768 238.748 419.53 238.748C423.275 250.07 438.254 256.286 454.774 251.846C471.075 247.184 476.802 236.75 475.48 228.092Z" fill="#504447"/>
<path d="M443.981 254.066C447.505 254.066 451.25 253.622 454.995 252.512C472.176 247.628 477.242 236.972 476.361 228.758C478.344 228.314 482.97 227.204 486.274 222.986C488.917 219.656 490.018 214.994 489.137 209.444C488.256 202.784 485.393 197.678 480.767 194.348C472.837 188.354 458.96 187.022 438.915 190.352C410.059 195.014 396.622 206.114 399.045 223.208C400.807 236.084 414.244 239.192 418.87 239.414C422.174 248.516 432.086 254.066 443.981 254.066ZM458.079 190.352C467.771 190.352 474.819 192.128 479.665 195.68C484.071 198.788 486.494 203.45 487.375 209.666C488.036 214.772 487.155 218.99 484.952 221.876C481.428 226.538 475.48 226.982 475.26 226.982C475.04 226.982 474.819 227.204 474.599 227.204C474.379 227.426 474.379 227.648 474.379 227.87C475.48 235.418 471.075 245.852 454.334 250.514C438.915 254.954 423.936 249.404 420.191 238.082C419.971 237.638 419.751 237.416 419.31 237.416C419.09 237.416 402.349 236.528 400.587 222.764C398.384 206.558 410.94 196.346 439.135 191.684C446.404 191.018 452.572 190.352 458.079 190.352Z" fill="#3A262E"/>
<g opacity="0.49">
<path d="M439.135 191.24C440.237 191.018 441.338 191.018 442.439 190.796C431.866 193.46 422.835 197.456 421.733 202.562C419.31 215.882 446.184 216.548 468.211 215.216C420.412 222.986 430.544 250.292 447.065 251.18C455.656 251.846 464.687 246.74 471.516 241.856C468.211 245.852 462.705 249.404 454.775 251.624C438.254 256.286 423.275 250.07 419.531 238.526C417.548 238.526 401.688 236.972 399.926 222.986C397.944 209.444 405.874 196.79 439.135 191.24Z" fill="#504447"/>
</g>
<path opacity="0.52" d="M410.72 232.31C410.72 236.084 415.125 238.97 420.412 238.97C425.698 238.97 430.104 236.084 430.104 232.31C430.104 228.536 425.698 225.65 420.412 225.65C415.125 225.65 410.72 228.536 410.72 232.31Z" fill="#3A262E"/>
<path opacity="0.52" d="M421.292 232.754C417.328 232.754 414.023 231.2 412.481 228.758C414.244 226.982 417.107 225.65 420.632 225.65C424.597 225.65 427.901 227.204 429.443 229.646C427.68 231.422 424.597 232.754 421.292 232.754Z" fill="#3A262E"/>
<path opacity="0.52" d="M421.292 232.754C417.328 232.754 414.023 231.2 412.481 228.758C414.244 226.982 417.107 225.65 420.632 225.65C424.597 225.65 427.901 227.204 429.443 229.646C427.68 231.422 424.597 232.754 421.292 232.754Z" fill="#3A262E"/>
<path opacity="0.52" d="M467.33 228.536C469.973 231.2 475.04 230.09 478.784 226.316C482.529 222.542 483.63 217.214 480.987 214.772C478.344 212.108 473.277 213.218 469.533 216.992C465.568 220.766 464.687 226.094 467.33 228.536Z" fill="#3A262E"/>
<path opacity="0.52" d="M469.533 216.992C471.736 214.772 474.599 213.44 477.022 213.44C478.124 216.326 477.022 220.322 473.938 223.43C471.736 225.65 468.872 226.982 466.449 226.982C465.127 224.318 466.229 220.1 469.533 216.992Z" fill="#3A262E"/>
<path opacity="0.52" d="M469.533 216.992C471.736 214.772 474.599 213.44 477.022 213.44C478.124 216.326 477.022 220.322 473.938 223.43C471.736 225.65 468.872 226.982 466.449 226.982C465.127 224.318 466.229 220.1 469.533 216.992Z" fill="#3A262E"/>
<path d="M483.41 211.442C483.41 211.442 479.886 194.57 439.796 195.458C461.603 187.022 485.833 193.46 483.41 211.442Z" fill="#504447"/>
<path d="M421.733 306.014C421.513 307.568 424.597 308.9 428.782 309.344C432.747 309.788 436.051 308.9 436.271 307.568C436.491 306.014 433.408 304.682 429.222 304.238C425.257 303.794 421.733 304.682 421.733 306.014Z" fill="#F797A3"/>
<path d="M476.141 290.918C476.141 290.918 470.193 306.457 469.533 333.985C467.33 354.187 458.519 360.847 433.407 362.179C408.296 363.733 397.943 349.525 374.374 323.551C350.804 297.578 313.137 267.83 302.784 270.716C292.431 273.602 303.445 287.81 331.64 304.237C359.615 320.665 385.608 346.639 395.961 359.959C406.314 373.279 413.583 377.053 433.628 373.279C453.673 369.505 473.498 364.399 474.158 342.865C474.819 321.553 476.141 290.918 476.141 290.918Z" fill="#F9F8F4"/>
<path d="M182.735 139.07C182.735 139.07 187.361 127.748 185.819 113.096C166.875 145.952 157.844 161.048 137.358 173.924C116.873 186.8 107.841 196.79 119.956 221.876C96.6072 200.564 105.638 172.37 133.613 150.392C161.588 128.414 178.99 104.66 188.021 93.338C197.053 82.0161 197.053 113.318 182.735 139.07Z" fill="#D3834C"/>
</svg>
