<svg width="108" height="108" viewBox="0 0 108 108" fill="none" xmlns="http://www.w3.org/2000/svg">
<path d="M35.4996 63.5023C32.215 59.4247 27.2303 60.454 25.2209 61.5625C23.1729 62.7105 20.8544 66.709 20.5452 69.0843C18.2267 68.6884 15.6764 69.7969 14.4012 71.8555C13.126 73.9141 13.1646 76.7249 14.5171 78.7043C11.0007 78.9023 6.09319 84.8406 9.26182 86.3845C10.3438 86.8992 39.6343 86.8992 39.6343 86.8992L35.4996 63.5023ZM13.9375 81.7527C13.5124 81.7527 13.2033 81.3964 13.2033 81.0005C13.2033 80.565 13.5511 80.2483 13.9375 80.2483C14.3625 80.2483 14.6717 80.6046 14.6717 81.0005C14.6717 81.436 14.3625 81.7527 13.9375 81.7527ZM16.256 81.0005C16.1787 81.238 15.9082 81.3568 15.6377 81.238C15.4059 81.1588 15.2899 80.8817 15.4059 80.6046C15.4831 80.3671 15.7536 80.2483 16.0241 80.3671C16.2946 80.4858 16.3333 80.763 16.256 81.0005Z" fill="#E0E0E0"/>
<path d="M104.167 86.0285C104.167 81.4758 99.1817 78.5067 96.0904 79.6152C98.2157 77.0815 96.8246 72.7663 93.9651 71.1828C91.1056 69.5992 87.4733 70.2326 84.6138 71.7766C85.232 68.6095 84.0728 65.1653 81.677 63.0671C79.2812 60.9689 75.4557 59.6229 72.828 61.4044C71.2824 62.4733 68.0365 88.1267 69.273 88.3247C70.5095 88.5226 76.5377 90.7792 76.8468 90.5812C77.2332 90.3437 104.167 86.0285 104.167 86.0285Z" fill="#E0E0E0"/>
<path d="M58.4531 9.70128C56.5596 7.28637 52.6955 6.77172 50.261 8.59279C49.0245 9.50333 48.1357 11.1265 48.6381 12.5913C47.6334 12.7892 46.7833 13.6206 46.5901 14.6499C46.3582 15.6792 46.7833 16.7876 47.6334 17.3815L57.7962 18.1337C60.0374 16.0751 60.3852 12.1162 58.4531 9.70128ZM51.0725 11.6807C50.5315 11.6807 50.1065 11.2452 50.1065 10.691C50.1065 10.1368 50.5315 9.70128 51.0725 9.70128C51.6135 9.70128 52.0385 10.1368 52.0385 10.691C52.0385 11.2056 51.6135 11.6807 51.0725 11.6807ZM52.1931 9.66169C51.9999 9.66169 51.8453 9.50333 51.8453 9.30539C51.8453 9.10745 51.9999 8.94909 52.1931 8.94909C52.3863 8.94909 52.5409 9.10745 52.5409 9.30539C52.5023 9.50333 52.3477 9.66169 52.1931 9.66169Z" fill="#E0E0E0"/>
<path d="M41.3346 79.9713C39.3639 81.4361 38.3979 83.9698 38.2433 86.4639C38.0887 88.9579 38.6297 91.4124 39.1707 93.8273C38.0887 93.3523 36.7749 94.342 36.6203 95.5297C36.4658 96.7173 37.2386 97.905 38.2433 98.4988C39.248 99.1322 40.4459 99.2906 41.6438 99.3698C43.6145 99.5281 45.5852 99.4489 47.556 99.4093C48.8311 99.3698 50.1836 99.2906 51.1496 98.4592C52.193 97.5091 52.4248 95.9651 52.5021 94.5399C52.6567 91.0166 52.2703 87.414 51.3815 84.0094" fill="#6F4439"/>
<path d="M79.4355 65.7193C79.4355 65.7193 78.9332 57.9995 75.9964 53.526C73.7552 50.1213 67.6884 43.8663 67.6884 43.8663L37.7797 46.6375C37.7797 46.6375 30.4377 57.1681 31.9061 68.728C33.3745 80.2879 32.2152 91.2935 32.2152 91.2935C32.2152 91.2935 27.0759 92.5208 29.1625 99.0133H36.0021C36.0021 99.0133 37.4705 99.0529 39.2867 96.9151C41.0642 94.7774 42.4553 80.8817 42.9963 78.0313L41.7984 85.3157C41.9143 85.6324 47.4015 92.7583 56.7528 93.3522C66.1041 93.946 67.3406 92.8771 67.3406 92.8771L80.9812 75.1018L79.4355 65.7193Z" fill="#AE7461"/>
<path d="M67.3018 77.8731C67.495 77.9522 68.6542 81.436 68.6929 84.6823C68.7701 87.9286 67.7655 95.4504 67.9973 97.707C68.2292 99.9635 69.4271 100.834 71.8229 101.27C74.2186 101.705 79.5126 101.626 80.0922 100.161C80.6332 98.6571 81.4447 96.4006 79.0102 95.0149C76.5758 93.6293 76.1507 91.3728 76.2667 89.6705C76.3826 87.9682 79.0875 78.6252 79.4353 74.9039C79.7831 71.1826 78.2374 66.6299 78.2374 66.6299L70.9341 69.9553L67.3018 77.8731Z" fill="#AE7461"/>
<path d="M77.8902 76.1707C77.8902 76.1707 80.4019 73.6767 83.4546 76.1707C86.5073 78.6648 85.7345 89.8288 84.8071 91.5707L84.498 92.3229C84.498 92.3229 88.594 91.6895 88.4008 98.6967C88.4008 98.6967 83.3387 101.23 80.2087 99.8448C77.0401 98.4591 73.9874 95.8067 73.9874 95.8067L72.8281 86.1075L77.8902 76.1707Z" fill="#AE7461"/>
<path d="M44.6183 70.9054C44.6183 70.9054 44.5797 71.1429 44.5024 71.618C44.4251 72.0931 44.3092 72.7265 44.1933 73.5182C43.9228 75.1414 43.5364 77.3583 43.1499 79.7733C42.7249 82.2277 42.3385 84.4447 42.0293 86.0283C41.8748 86.82 41.7588 87.4535 41.6429 87.9285C41.527 88.364 41.4883 88.6015 41.4497 88.6015C41.4497 88.6015 41.4883 88.364 41.5656 87.8889C41.6429 87.4139 41.7588 86.7805 41.8748 85.9887C42.1453 84.3655 42.5317 82.1486 42.9181 79.7337C43.3432 77.2792 43.7296 75.0622 44.0387 73.4787C44.1933 72.6869 44.3092 72.0535 44.4251 71.5784C44.541 71.1429 44.6183 70.9054 44.6183 70.9054Z" fill="#263238"/>
<path d="M67.4566 69.7178C67.4952 69.7178 67.7657 73.0828 68.0748 77.2792C68.3453 81.436 68.5385 84.8406 68.4612 84.8406C68.4226 84.8406 68.1521 81.4756 67.843 77.2792C67.5725 73.0828 67.4179 69.7178 67.4566 69.7178Z" fill="#263238"/>
<path d="M79.1645 62.3147C79.1645 62.3147 79.2031 62.3939 79.2031 62.5918C79.2031 62.7898 79.2418 63.0669 79.2804 63.3836C79.3191 63.7399 79.3577 64.1754 79.3963 64.6504C79.435 65.1651 79.4736 65.7193 79.5123 66.3527C79.6282 68.8468 79.7055 72.291 79.435 76.1311C79.2804 78.0314 79.0486 79.8525 78.7781 81.4756C78.5076 83.0987 78.1598 84.5635 77.8507 85.7512C77.5415 86.9784 77.2324 87.9286 77.0392 88.6016C76.9233 88.9183 76.846 89.1558 76.8073 89.3537C76.7301 89.5121 76.73 89.6309 76.6914 89.6309C76.6914 89.6309 76.6914 89.5517 76.7687 89.3537C76.8073 89.1558 76.8846 88.9183 76.9619 88.562C77.1551 87.889 77.4256 86.8992 77.6961 85.7116C77.9666 84.4843 78.3144 83.0592 78.5849 81.436C78.8554 79.8129 79.0872 78.0314 79.2418 76.1311C79.5509 72.3306 79.4736 68.8864 79.3963 66.3923C79.3577 65.7589 79.3577 65.2047 79.3191 64.69C79.2804 64.215 79.2804 63.7795 79.2418 63.4232C79.2418 63.1065 79.2031 62.8293 79.2031 62.6314C79.1645 62.4335 79.1645 62.3147 79.1645 62.3147Z" fill="#263238"/>
<g opacity="0.3">
<path d="M62.9743 76.4084C62.8197 74.5873 62.6652 72.7267 62.1242 70.9848C61.5832 69.2429 60.6171 67.5801 59.1488 66.5112C56.9075 64.8881 53.7389 65.0069 51.3431 66.4321C48.986 67.8573 47.363 70.3909 46.5902 73.083C45.8173 75.775 45.7787 78.6254 45.9719 81.4362C46.1651 84.247 46.6288 87.0182 46.7834 89.829L63.9017 87.0578C63.5926 83.5344 63.2834 79.9714 62.9743 76.4084Z" fill="white"/>
</g>
<path d="M62.8193 49.2901C62.8193 47.3502 61.4282 45.6479 59.8439 44.579C58.0277 43.3518 55.8252 42.758 53.6226 42.7184C52.0769 42.7184 50.4926 42.9955 49.2947 43.9852C48.0968 44.9749 47.4399 46.5189 47.4012 48.1024C47.324 49.6464 46.2806 50.9528 47.0148 52.3384C49.7584 54.1199 53.1202 54.9909 56.3661 54.6742C57.9118 54.5158 59.4575 54.1199 60.694 53.2094C61.8919 52.3384 62.8193 50.8736 62.8193 49.2901Z" fill="#6F4439"/>
<path d="M72.8661 42.7579L73.0593 39.1553C73.0593 39.1553 73.2525 37.453 71.0113 27.7538C68.0745 14.927 52.0768 16.2335 52.0768 16.2335C50.5697 16.1939 36.3496 16.5106 34.5334 30.2874C33.5673 37.6905 34.4175 40.3825 34.4175 40.3825L35.4608 45.1332C35.4608 45.1332 36.7746 54.4761 44.0779 55.4658C44.0779 55.4658 46.0873 55.9805 48.3672 51.5861C50.6084 47.3106 50.222 45.252 53.5838 44.2622C57.7958 44.5789 57.6798 47.073 60.6166 51.0319C63.5534 54.9908 65.4468 54.1594 65.4468 54.1594C72.5569 51.9424 72.8661 42.7579 72.8661 42.7579Z" fill="#AE7461"/>
<path d="M43.7306 36.582C42.61 37.4529 41.0257 37.255 40.1756 36.1069C39.3255 34.9588 39.5187 33.3357 40.6393 32.4648C41.7599 31.5938 43.3442 31.7918 44.1943 32.9398C45.0831 34.0879 44.8512 35.711 43.7306 36.582Z" fill="#263238"/>
<path d="M66.5295 35.0777C65.4088 35.9487 63.8245 35.7507 62.9744 34.6026C62.1243 33.4546 62.3175 31.8314 63.4381 30.9605C64.5587 30.0895 66.143 30.2875 66.9932 31.4356C67.8433 32.5836 67.6501 34.2068 66.5295 35.0777Z" fill="#263238"/>
<g opacity="0.2">
<path d="M72.7118 44.3413C65.563 37.8092 62.1626 33.4148 55.9026 32.6626L55.5548 32.6231C51.7679 31.9105 47.7105 33.2169 45.0056 35.9881C43.1122 37.9279 42.3393 40.8179 40.0981 42.3223C39.0934 42.9557 37.1613 43.5099 36.3885 44.3809C36.0021 44.8164 35.7702 45.2914 35.6543 45.8061C36.1566 48.023 38.0887 54.5552 44.1555 55.3865C44.1555 55.3865 46.1649 55.9012 48.4447 51.5068C50.686 47.2313 50.2995 45.1727 53.6614 44.1829C57.8733 44.4997 57.7574 46.9937 60.6942 50.9526C63.631 54.9115 65.5244 54.0801 65.5244 54.0801C70.7024 52.4966 72.2481 47.0729 72.7118 44.3413Z" fill="black"/>
</g>
<path d="M57.2937 35.3944C57.1391 34.9985 56.7527 34.6818 56.289 34.4838C56.289 34.4838 56.289 34.4838 56.2503 34.4838C55.9798 34.3651 55.6707 34.2463 55.4002 34.1671C54.0091 33.7317 52.6953 33.7317 51.2269 34.3255C50.57 34.6026 49.9517 34.9985 49.6039 35.5923C49.2562 36.1862 49.2562 37.0571 49.7971 37.5322C50.3381 38.0468 51.2269 37.9281 51.8452 38.3239C52.2702 38.5615 52.5021 38.997 52.8498 39.3533C53.1976 39.67 53.7 39.9471 54.125 39.7096C54.666 39.4324 54.666 38.6011 55.1297 38.2052C55.5548 37.8489 56.2503 37.9676 56.7527 37.6509C57.4096 37.2946 57.5641 36.107 57.2937 35.3944Z" fill="#263238"/>
<path d="M62.2784 35.0381C62.2784 35.0381 62.2011 34.9985 62.0466 34.9193C61.892 34.8401 61.6988 34.7214 61.4283 34.6026C60.8873 34.3255 60.1531 33.9296 59.1484 33.5733C58.1824 33.217 56.9458 32.8211 55.5934 32.6232C54.2409 32.4252 52.6952 32.4252 51.1109 32.7815C49.5653 33.1378 48.1355 33.8108 47.0535 34.6422C46.5126 35.0777 46.0102 35.5132 45.6238 35.9882C45.2374 36.4633 44.8896 36.9383 44.5805 37.3738C44.0008 38.2844 43.5758 39.0365 43.228 39.5116C43.0734 39.7491 42.9189 39.9471 42.8416 40.0658C42.7643 40.1846 42.687 40.2638 42.687 40.2638C42.687 40.2638 42.7257 40.1846 42.8029 40.0658C42.8802 39.9075 43.0348 39.7096 43.1507 39.472C43.4598 38.9574 43.8849 38.2052 44.4645 37.2946C44.735 36.8196 45.0828 36.3445 45.4692 35.8694C45.8943 35.3944 46.358 34.9193 46.9376 34.4838C48.0582 33.6129 49.488 32.9399 51.0723 32.544C52.6566 32.1877 54.2409 32.1877 55.632 32.3857C57.0231 32.5836 58.221 32.9795 59.2257 33.3754C60.1917 33.7713 60.9646 34.1671 61.4669 34.4838C61.7374 34.6422 61.9306 34.761 62.0466 34.8401C62.2398 34.9589 62.317 35.0381 62.2784 35.0381Z" fill="#263238"/>
<path d="M35.3449 4.63398C33.7219 2.77332 31.7512 0.714708 29.3168 0.912652C27.7324 1.07101 26.3413 2.21907 25.5299 3.60468C24.7184 5.02987 24.4093 6.653 24.216 8.27614C23.5205 14.5707 24.7184 21.1029 27.5779 26.7245C29.0076 29.5352 31.1716 32.346 34.2629 32.9003L46.5124 17.6587C42.8027 13.3039 39.0545 8.98874 35.3449 4.63398Z" fill="#AE7461"/>
<path d="M68.8471 4.04018C70.3541 2.06074 72.2475 -0.0770428 74.682 0.00213455C76.2663 0.0417232 77.7347 1.15021 78.5848 2.49622C79.4736 3.88182 79.86 5.50496 80.1305 7.12809C81.1352 13.3831 80.2464 19.9548 77.6574 25.7348C76.3436 28.6247 74.3342 31.5543 71.2815 32.2273L58.2979 17.6587C61.8529 13.106 65.3307 8.55328 68.8471 4.04018Z" fill="#AE7461"/>
<path d="M45.1989 17.7774C45.1989 17.7774 44.967 17.8961 44.5419 18.0545C44.1169 18.2129 43.5373 18.49 42.8417 18.8859C41.4506 19.6381 39.5958 21.0237 38.1274 23.0031C36.659 24.9825 35.8475 27.1599 35.4998 28.7434C35.3066 29.5352 35.2293 30.2082 35.152 30.6437C35.1133 31.1188 35.0747 31.3563 35.0747 31.3563C35.0747 31.3563 35.0747 31.2771 35.0747 31.1584C35.0747 31.0396 35.0747 30.8416 35.0747 30.6437C35.1133 30.1686 35.1906 29.5352 35.3452 28.7038C35.6543 27.0807 36.4658 24.9033 37.9728 22.8843C39.4799 20.8653 41.3347 19.5193 42.8031 18.7671C43.5373 18.3712 44.1169 18.1337 44.5419 17.9753C44.7352 17.8961 44.9284 17.8566 45.0443 17.817C45.1216 17.7774 45.1989 17.7378 45.1989 17.7774Z" fill="#263238"/>
<path d="M52.1152 16.2335C52.1152 16.2335 52.1925 16.1939 52.3471 16.1939C52.5017 16.1939 52.7335 16.1543 53.0426 16.1543C53.6609 16.1147 54.5497 16.1543 55.6316 16.2335C57.7956 16.3919 60.8096 16.8669 63.8237 18.4109C65.2921 19.1631 66.6059 20.1528 67.6492 21.1821C68.6539 22.251 69.3881 23.3595 69.8905 24.3492C70.3928 25.3389 70.6633 26.2098 70.8179 26.8037C70.8952 27.0808 70.9338 27.3183 70.9724 27.5163C71.0111 27.6746 71.0111 27.7538 71.0111 27.7538C71.0111 27.7538 70.9724 27.6746 70.9338 27.5163C70.8951 27.3579 70.8179 27.1204 70.7406 26.8433C70.5474 26.2494 70.2382 25.4181 69.7359 24.4284C69.2335 23.4386 68.4994 22.3697 67.4947 21.3404C66.49 20.3111 65.1762 19.361 63.7078 18.6088C60.7324 17.1045 57.7183 16.6294 55.593 16.3919C54.511 16.2731 53.6223 16.2731 53.0426 16.2731C52.7721 16.2731 52.5403 16.2731 52.3471 16.2731C52.1925 16.2335 52.1152 16.2335 52.1152 16.2335Z" fill="#263238"/>
<path d="M72.866 42.7578C72.866 42.7578 72.866 42.837 72.866 43.035C72.866 43.1933 72.8274 43.4704 72.7887 43.7872C72.7114 44.4602 72.5569 45.4499 72.2091 46.6771C71.8613 47.9044 71.2817 49.3692 70.2384 50.7944C69.6974 51.5069 69.0791 52.2195 68.2676 52.8134C67.4562 53.4072 66.5287 53.9219 65.4854 54.2386C65.1763 54.3573 64.8671 54.3177 64.558 54.2782C64.2489 54.2386 63.9784 54.1198 63.6693 54.001C63.1283 53.7239 62.5873 53.3676 62.1236 52.9321C61.1962 52.0612 60.3847 50.9527 59.6119 49.8046C59.2255 49.2108 58.8777 48.617 58.5299 48.0231C58.1821 47.4293 57.7957 46.7959 57.3706 46.2417C56.9456 45.6874 56.366 45.2123 55.709 44.9352C55.0521 44.6581 54.3179 44.4998 53.5837 44.4602H53.6224C53.0428 44.6581 52.4245 44.8956 51.9221 45.2519C50.9561 45.9645 50.4924 47.1126 50.0673 48.1815C49.6423 49.29 49.1786 50.3589 48.6762 51.3486C48.1739 52.3779 47.5943 53.328 46.8601 54.1594C46.4737 54.5553 46.0872 54.9512 45.6235 55.2283C45.1598 55.5054 44.6575 55.7033 44.1165 55.6242C42.6095 55.4262 41.257 54.8324 40.1364 53.9614C39.0544 53.1301 38.2043 52.1008 37.5474 51.0319C36.8905 49.963 36.4654 48.9337 36.1177 47.944C35.7699 46.9542 35.538 46.0041 35.4221 45.1728C35.113 43.6684 34.8425 42.4807 34.6879 41.6494C34.6106 41.2535 34.5333 40.9368 34.4947 40.7388C34.4947 40.6597 34.4561 40.5805 34.4561 40.5013C34.4561 40.4617 34.4561 40.4221 34.4561 40.4221C34.4561 40.4221 34.4561 40.4617 34.4947 40.5013C34.4947 40.5805 34.5333 40.6201 34.572 40.7388C34.6106 40.9368 34.6879 41.2535 34.8038 41.6494C34.997 42.4807 35.2675 43.6288 35.6153 45.1332C35.7699 45.9645 36.0017 46.8751 36.3495 47.8648C36.6973 48.8545 37.161 49.8838 37.7793 50.9131C38.3975 51.9424 39.2476 52.9717 40.3296 53.7635C41.4116 54.5949 42.764 55.1491 44.2324 55.347C44.6961 55.4262 45.1985 55.2283 45.6235 54.9512C46.0486 54.674 46.435 54.3177 46.8214 53.9219C47.517 53.1301 48.0966 52.18 48.599 51.1506C49.1013 50.1609 49.565 49.092 49.9901 47.9836C50.2219 47.4293 50.4538 46.8751 50.7243 46.3604C51.0334 45.8458 51.4198 45.3311 51.9221 44.9748C52.4631 44.5789 53.0814 44.3414 53.6997 44.1435C54.4339 44.2226 55.2067 44.3414 55.9023 44.6581C56.5978 44.9748 57.1774 45.4499 57.6411 46.0437C58.1048 46.6375 58.4526 47.271 58.839 47.8648C59.1868 48.4982 59.5732 49.092 59.921 49.6463C60.6552 50.7944 61.4667 51.8632 62.3941 52.7342C62.8578 53.1697 63.3601 53.526 63.9011 53.8031C64.1716 53.9219 64.4421 54.0406 64.7126 54.0802C64.9831 54.1198 65.2922 54.1198 65.5241 54.0406C66.5287 53.7239 67.4562 53.2488 68.229 52.655C69.0018 52.0612 69.6587 51.3882 70.1611 50.6756C71.2044 49.2504 71.784 47.8252 72.1705 46.598C72.5569 45.4103 72.7114 44.4206 72.7887 43.7476C72.8274 43.4309 72.866 43.1537 72.866 42.9954C72.866 42.837 72.866 42.7578 72.866 42.7578Z" fill="#263238"/>
<path d="M53.9706 39.5116C54.0093 39.5116 54.1252 40.5805 54.0093 41.8869C53.932 43.1933 53.7388 44.2622 53.6615 44.2622C53.6228 44.2622 53.7388 43.1933 53.8161 41.8869C53.932 40.5805 53.932 39.5116 53.9706 39.5116Z" fill="#263238"/>
<path d="M43.9621 47.2315C43.9234 47.4691 43.6916 47.667 43.4597 47.6274C43.2279 47.5878 43.0347 47.3503 43.0733 47.1127C43.1119 46.8752 43.3438 46.6773 43.5757 46.7169C43.8461 46.7565 44.0007 46.994 43.9621 47.2315Z" fill="#263238"/>
<path d="M46.1647 44.3018C46.1261 44.5394 45.8942 44.7373 45.6624 44.6977C45.4305 44.6581 45.2373 44.4206 45.2759 44.1831C45.3146 43.9455 45.5464 43.7476 45.7783 43.7872C46.0101 43.8268 46.1647 44.0643 46.1647 44.3018Z" fill="#263238"/>
<path d="M48.8693 46.5584C48.8307 46.7959 48.5988 46.9939 48.367 46.9543C48.1351 46.9147 47.9419 46.6772 47.9805 46.4397C48.0192 46.2021 48.251 46.0042 48.4829 46.0438C48.7147 46.0438 48.8693 46.2813 48.8693 46.5584Z" fill="#263238"/>
<path d="M50.5314 43.5496C50.4928 43.7872 50.2609 43.9851 50.0291 43.9455C49.7972 43.9059 49.604 43.6684 49.6426 43.4309C49.6813 43.1933 49.9131 42.9954 50.145 43.035C50.3768 43.0746 50.5314 43.3121 50.5314 43.5496Z" fill="#263238"/>
<path d="M45.8947 49.7254C45.856 49.9629 45.6242 50.1609 45.3923 50.1213C45.1605 50.0817 44.9673 49.8442 45.0059 49.6066C45.0446 49.3691 45.2764 49.1712 45.5083 49.2108C45.7401 49.2503 45.9333 49.4879 45.8947 49.7254Z" fill="#263238"/>
<path d="M65.1763 46.9147C65.1377 47.1523 65.3309 47.3898 65.5628 47.4294C65.7946 47.469 66.0264 47.271 66.0651 47.0335C66.1037 46.796 65.9105 46.5584 65.6787 46.5188C65.4468 46.4792 65.215 46.6376 65.1763 46.9147Z" fill="#263238"/>
<path d="M63.0128 43.9454C62.9741 44.1829 63.1673 44.4205 63.3992 44.46C63.631 44.4996 63.8629 44.3017 63.9015 44.0642C63.9402 43.8266 63.747 43.5891 63.5151 43.5495C63.2833 43.5099 63.0514 43.7079 63.0128 43.9454Z" fill="#263238"/>
<path d="M60.3072 45.1728C60.2686 45.4103 60.4618 45.6479 60.6936 45.6875C60.9255 45.7271 61.1573 45.5291 61.196 45.2916C61.2346 45.054 61.0414 44.8165 60.8095 44.7769C60.5391 44.7373 60.3072 44.9353 60.3072 45.1728Z" fill="#263238"/>
<path d="M58.9937 42.0454C58.9551 42.2829 59.1483 42.5204 59.3801 42.56C59.612 42.5996 59.8438 42.4017 59.8825 42.1641C59.9211 41.9266 59.7279 41.6891 59.4961 41.6495C59.2256 41.6099 59.0324 41.8078 58.9937 42.0454Z" fill="#263238"/>
<path d="M62.4327 48.419C62.394 48.6565 62.5872 48.8941 62.8191 48.9336C63.051 48.9732 63.2828 48.7753 63.3215 48.5378C63.3601 48.3002 63.1669 48.0627 62.935 48.0231C62.7032 47.9835 62.4713 48.1419 62.4327 48.419Z" fill="#263238"/>
<path d="M44.078 26.1702C44.078 26.4474 43.7689 26.7245 43.3052 27.0016C42.8415 27.2787 42.1846 27.5558 41.4504 27.833C39.982 28.3872 38.7068 28.7831 38.359 28.308C38.2045 28.0705 38.359 27.635 38.7455 27.1995C39.1705 26.7245 39.8274 26.2494 40.7162 25.8931C41.5663 25.5764 42.4164 25.4576 43.0347 25.5368C43.6916 25.616 44.078 25.8931 44.078 26.1702Z" fill="#263238"/>
<path d="M66.452 24.6263C66.3748 24.9034 65.9884 25.0222 65.4474 25.1013C64.9064 25.1805 64.2108 25.2201 63.438 25.2201C61.8923 25.2201 60.5399 25.1013 60.3853 24.5471C60.308 24.27 60.6171 23.9137 61.1581 23.6366C61.6991 23.3594 62.5106 23.1615 63.438 23.1615C64.3654 23.1615 65.1769 23.3594 65.7179 23.6762C66.2975 23.9929 66.568 24.3887 66.452 24.6263Z" fill="#263238"/>
<path d="M56.5976 31.0793C56.5976 31.1189 56.1726 31.0001 55.4384 30.921C54.7428 30.8418 53.7381 30.7626 52.6562 30.8418C51.5742 30.921 50.6082 31.1189 49.9126 31.3169C49.217 31.5148 48.792 31.6732 48.792 31.6336C48.792 31.6336 48.8693 31.5544 49.0625 31.4752C49.2557 31.396 49.5262 31.2773 49.874 31.1585C50.5695 30.921 51.5356 30.6834 52.6562 30.6043C53.7768 30.5251 54.7815 30.6043 55.477 30.723C55.8248 30.8022 56.1339 30.8418 56.3271 30.921C56.5204 31.0397 56.6363 31.0793 56.5976 31.0793Z" fill="#263238"/>
<g opacity="0.2">
<path d="M35.4611 28.2288C34.9202 30.7229 30.6309 26.8036 29.2398 24.7054C27.8487 22.6072 27.2304 20.0736 26.6508 17.5795C25.878 14.3332 25.1051 10.9682 25.6461 7.6823C25.8393 6.57382 26.1871 5.46534 26.8827 4.5548C27.5782 3.68385 28.6602 3.05043 29.7422 3.12961C30.9787 3.20878 32.022 4.11932 32.8721 5.02986C35.8476 8.19696 37.9729 12.1558 39.0162 16.4314C39.4026 18.0941 40.0982 20.1923 39.1321 21.5779C39.1321 21.5779 36.3499 24.3095 35.4611 28.2288Z" fill="black"/>
</g>
<g opacity="0.2">
<path d="M71.0496 27.2392C71.5905 29.7333 74.991 25.4973 76.3821 23.3991C77.7732 21.3009 78.3915 18.7672 78.9711 16.2732C79.744 13.0269 79.744 10.3744 79.1643 7.049C78.9711 5.94052 78.5461 4.43615 77.6959 2.8526C77.1936 1.86288 75.8411 0.793988 74.7205 0.873166C73.484 0.952343 72.2861 1.86288 71.3973 2.77342C68.4219 5.94052 67.6104 10.8099 66.5671 15.0855C66.1807 16.7482 65.4851 18.8464 66.4512 20.232C66.4898 20.2716 70.1608 23.3199 71.0496 27.2392Z" fill="black"/>
</g>
<path d="M57.0617 73.7161C57.0617 73.7161 57.0231 73.6765 56.9844 73.6369C56.9458 73.5578 56.8299 73.4786 56.7526 73.3202C56.5594 73.0431 56.2502 72.6472 55.9411 72.0534C55.3228 70.9449 54.6659 69.203 54.6273 67.1048L54.8205 67.1444C54.7046 67.6195 54.55 68.1737 54.0863 68.53C53.8544 68.6884 53.5453 68.7675 53.2748 68.6884C52.9657 68.6092 52.7725 68.3321 52.6565 68.055C52.3088 67.0652 52.3474 65.9963 52.6952 65.165L52.8111 65.2838C52.5793 65.3233 52.386 65.4817 52.2315 65.6796C52.0769 65.8776 51.9223 66.0755 51.7291 66.2735C51.5359 66.4318 51.3041 66.5902 51.0722 66.6298C50.8404 66.6694 50.5312 66.5902 50.4153 66.3526C50.2994 66.1151 50.2607 65.8776 50.2607 65.6796C50.2607 65.4817 50.2607 65.2442 50.2994 65.0462C50.338 64.6503 50.3767 64.294 50.454 63.9773C50.6085 63.3439 50.8017 62.8293 50.9563 62.5125C51.0336 62.3542 51.1109 62.2354 51.1495 62.1562C51.1881 62.0771 51.2268 62.0375 51.2268 62.0375C51.2268 62.0375 51.1495 62.2354 51.0336 62.5521C50.9177 62.8688 50.7244 63.3835 50.5699 64.0169C50.4926 64.3336 50.454 64.6899 50.4153 65.0858C50.4153 65.2838 50.4153 65.4817 50.4153 65.6796C50.4153 65.8776 50.454 66.1151 50.5312 66.2735C50.6472 66.4318 50.8404 66.511 51.0336 66.4714C51.2268 66.4318 51.42 66.313 51.6132 66.1547C51.7678 65.9963 51.9223 65.7984 52.0769 65.6005C52.2315 65.4025 52.4633 65.2046 52.7725 65.1254L52.9657 65.0858L52.8884 65.2442C52.5793 66.0755 52.5406 67.0652 52.8497 68.0154C52.927 68.2529 53.0816 68.4508 53.3134 68.53C53.5453 68.6092 53.7771 68.53 53.9704 68.3717C54.3568 68.0945 54.5113 67.5799 54.6273 67.1048L54.8205 66.4714V67.1444C54.8591 69.203 55.4774 70.9449 56.057 72.0534C56.3275 72.6076 56.598 73.0431 56.7912 73.3202C56.9844 73.5578 57.0617 73.7161 57.0617 73.7161Z" fill="#263238"/>
<path d="M70.4707 85.395C68.1521 83.6531 64.9449 83.2572 62.2399 84.3261C60.8488 81.4361 57.2552 79.9317 54.2797 81.0006C51.343 82.0695 49.4495 85.5929 50.1451 88.7204C47.0924 87.4536 43.1509 89.433 42.3008 92.7189L73.9484 93.1148C74.1416 90.1456 72.7892 87.1369 70.4707 85.395Z" fill="#E0E0E0"/>
<path d="M5.97705 88.2452L34.4174 88.364L42.5708 92.8771C44.6189 93.0355 76.2665 92.8771 76.2665 92.8771L80.7876 88.2452H103.586L92.2255 108H16.8354L5.97705 88.2452Z" fill="#FFB300"/>
<path d="M104.089 84.7614C97.9833 84.7614 91.8778 84.7614 85.7724 84.7614C84.961 84.7614 84.1495 84.7218 83.338 84.7614C81.6764 84.8801 80.8263 85.8699 79.7443 86.9783C77.8509 88.9182 75.9188 90.8976 74.0253 92.8375C63.6693 92.8375 53.2747 92.8375 42.9187 92.8375C41.1025 91.3331 39.2864 89.7891 37.4702 88.2848C35.6154 86.7408 33.9152 84.8406 31.4421 84.801C24.7957 84.6426 18.1493 84.801 11.5029 84.801C8.9912 84.801 6.47948 84.801 3.96776 84.801C-0.39876 84.801 -0.39876 91.729 3.96776 91.729C12.9327 91.729 21.9362 91.729 30.9011 91.729C33.6447 94.0251 36.3882 96.3609 39.1318 98.6174C41.4889 100.557 45.5463 99.8051 48.4058 99.8051C53.8543 99.8051 59.3028 99.8051 64.7513 99.8051C68.2677 99.8051 71.8228 100.003 75.3005 99.8051C77.5804 99.6467 79.1261 97.4298 80.6331 95.8858C81.9855 94.5002 83.338 93.1146 84.6905 91.729C91.1437 91.729 97.5968 91.729 104.089 91.729C108.455 91.6894 108.455 84.7614 104.089 84.7614Z" fill="#FFB300"/>
<path d="M104.089 84.7615C104.089 84.7615 104.127 84.7615 104.205 84.7615C104.282 84.7615 104.437 84.7615 104.591 84.8011C104.939 84.8407 105.441 84.9595 106.021 85.3553C106.562 85.7512 107.103 86.4638 107.296 87.4931C107.412 88.0078 107.412 88.562 107.296 89.1163C107.18 89.6705 106.91 90.3039 106.446 90.779C106.021 91.2541 105.364 91.6104 104.63 91.7291C104.282 91.8083 103.896 91.7687 103.509 91.7687C103.123 91.7687 102.736 91.7687 102.35 91.7687C100.766 91.7687 99.0653 91.7687 97.2105 91.7687C93.5396 91.7687 89.3276 91.7687 84.6519 91.7687L84.6906 91.7291C83.3381 93.1147 81.9084 94.5795 80.4786 96.0839C79.7444 96.8361 79.0875 97.6674 78.2374 98.4196C77.4259 99.1322 76.4212 99.7656 75.262 99.8448C73.0208 99.9636 70.7023 99.9636 68.3451 99.8844C65.988 99.8052 63.5149 99.8448 61.0032 99.8448C58.4914 99.8448 55.9411 99.8448 53.2748 99.8448C50.6472 99.8844 47.9422 99.7656 45.1987 99.9636C43.8462 100.003 42.4165 100.003 41.0254 99.6469C40.3298 99.4489 39.6729 99.1718 39.0933 98.7363C38.5136 98.3008 37.9726 97.8258 37.4317 97.3507C35.2291 95.4901 32.9879 93.6294 30.708 91.7291L30.7853 91.7687C22.2454 91.7687 13.1646 91.7687 3.85194 91.7687C3.23367 91.7687 2.65405 91.6499 2.11306 91.3332C1.57208 91.0165 1.14702 90.5415 0.876523 89.9872C0.335538 88.8787 0.335539 87.5327 0.837882 86.4638C1.10837 85.9096 1.49479 85.4345 1.99714 85.1178C2.49948 84.8011 3.11775 84.6428 3.69738 84.6428C4.85663 84.6428 5.97724 84.6428 7.1365 84.6428C11.6962 84.6428 16.14 84.6428 20.5066 84.6032C22.7091 84.6032 24.8344 84.5636 26.9984 84.6032C28.0803 84.6032 29.1237 84.6428 30.167 84.6428C30.708 84.6428 31.2103 84.6428 31.7513 84.6823C32.2923 84.7615 32.7946 84.8803 33.297 85.1178C34.263 85.5533 35.1132 86.2263 35.886 86.8993C36.6588 87.5723 37.4317 88.2453 38.2431 88.9183C39.7888 90.2248 41.3345 91.5312 42.8415 92.7584L42.8029 92.7188C54.4727 92.7188 64.9833 92.7188 73.9095 92.7584L73.8709 92.798C75.687 90.9374 77.4259 89.1559 79.0489 87.4931C79.4739 87.0577 79.8604 86.6618 80.2468 86.2659C80.6332 85.87 81.0583 85.4741 81.5606 85.197C82.0629 84.9199 82.5653 84.7615 83.1063 84.7219C83.6473 84.6823 84.1496 84.6823 84.6519 84.6823C88.7093 84.7219 92.2257 84.6823 95.0852 84.7219C97.9447 84.7219 100.147 84.7219 101.654 84.7219C102.389 84.7219 102.968 84.7219 103.355 84.7219C103.896 84.7615 104.089 84.7615 104.089 84.7615C104.089 84.7615 103.896 84.7615 103.509 84.7615C103.123 84.7615 102.543 84.7615 101.809 84.7615C100.302 84.7615 98.0993 84.7615 95.2398 84.7615C92.3803 84.7615 88.8639 84.8011 84.8065 84.7615C83.8018 84.7615 82.7198 84.6823 81.7538 85.2366C80.8264 85.7908 80.0922 86.7014 79.2807 87.4931C77.6578 89.1559 75.9189 90.9374 74.1027 92.798L74.0641 92.8376H74.0254C65.0605 92.8376 54.5886 92.8376 42.9188 92.8772H42.8802L42.8415 92.8376C41.3345 91.5708 39.7888 90.3039 38.2431 88.9975C37.4703 88.3641 36.6588 87.6911 35.886 86.9785C35.1132 86.3055 34.3017 85.6721 33.3356 85.2366C32.8719 85.0386 32.3696 84.8803 31.8672 84.8407C31.3649 84.8011 30.8239 84.8011 30.3216 84.8011C29.2782 84.8011 28.1963 84.7615 27.1529 84.7615C25.0276 84.7615 22.8637 84.7615 20.6611 84.7615C16.2946 84.8011 11.8122 84.8407 7.29106 84.8011C6.17045 84.8011 5.0112 84.8011 3.85194 84.8011C3.31096 84.8011 2.73133 84.9595 2.26763 85.2762C1.80393 85.5929 1.41751 86.0284 1.18566 86.543C0.683316 87.5723 0.683315 88.8787 1.2243 89.908C1.49479 90.4227 1.88121 90.8582 2.38355 91.1353C2.8859 91.4124 3.46552 91.5708 4.00651 91.5312C13.3192 91.5312 22.3614 91.5312 30.9398 91.5312H30.9785L31.0171 91.5708C33.297 93.471 35.5382 95.3317 37.7408 97.1924C38.2818 97.6674 38.8228 98.1425 39.4024 98.5384C39.9434 98.9739 40.6003 99.251 41.2572 99.4093C42.6097 99.7656 44.0008 99.7656 45.3532 99.726C48.0968 99.5281 50.8017 99.6073 53.4294 99.6073C56.057 99.6073 58.646 99.6073 61.1577 99.6073C63.6694 99.6073 66.1039 99.6073 68.4997 99.6469C70.8568 99.6864 73.1753 99.726 75.4165 99.6073C76.5372 99.5677 77.5032 98.9343 78.3147 98.2217C79.1262 97.5091 79.8217 96.6777 80.5173 95.9255C81.9857 94.4212 83.4154 92.9564 84.7679 91.5708L84.8065 91.5312H84.8451C89.5208 91.5312 93.7328 91.5312 97.4037 91.5312C99.2585 91.5312 100.959 91.5312 102.543 91.5312C102.93 91.5312 103.316 91.5312 103.702 91.5312C104.089 91.5312 104.437 91.5312 104.784 91.4916C105.48 91.4124 106.098 91.0561 106.562 90.5811C106.987 90.106 107.257 89.5122 107.373 88.9579C107.489 88.4037 107.489 87.8494 107.412 87.3348C107.219 86.3451 106.716 85.6325 106.137 85.2366C105.596 84.8407 105.055 84.7219 104.746 84.6823C104.591 84.6428 104.437 84.6428 104.359 84.6428C104.127 84.7615 104.089 84.7615 104.089 84.7615Z" fill="#263238"/>
<path d="M17.2223 71.5784C17.4155 70.3115 17.8019 69.2822 18.768 68.4509C17.9565 67.9758 17.2996 67.6591 17.145 66.3131C17.0677 65.6005 17.2996 64.8483 17.7633 64.2941C18.227 63.7398 18.8453 63.3439 19.4635 62.948C19.193 62.5522 19.0385 62.0375 19.0385 61.5229C19.2703 61.8396 19.6181 62.0771 19.9659 62.1959C19.734 61.5624 19.7727 60.8103 20.0818 60.2164C20.1204 61.2061 21.0092 61.9583 21.898 62.3542C22.7867 62.7501 23.7914 62.9876 24.487 63.7002C25.3371 64.492 25.6076 65.7984 25.2984 66.9069C24.9507 68.0154 24.0233 68.8864 22.9413 69.2427C24.0233 69.9552 25.3371 70.2324 26.6123 70.0344C27.8874 69.8365 29.0467 69.1635 29.8968 68.1738C30.631 69.2031 30.9788 70.5491 30.7856 71.8555C30.5924 73.1223 29.7422 74.7455 28.7376 75.5372H18.1497C17.4928 74.4684 17.0291 72.8452 17.2223 71.5784Z" fill="#FFB300"/>
<path d="M18.149 66.4319C18.0717 66.3131 17.4921 64.8483 17.4921 64.8483C17.4921 64.8483 16.6033 64.6899 16.0623 64.1753C16.0623 64.1753 15.7919 64.3336 16.2169 64.9671C16.642 65.6005 17.1057 65.9964 17.1057 65.9964C17.1057 65.9964 15.8691 66.0755 15.8691 66.9465L16.8738 66.9069L17.3375 67.2632L18.149 66.4319Z" fill="#FFB300"/>
<path opacity="0.3" d="M18.149 66.4319C18.0717 66.3131 17.4148 64.8483 17.4148 64.8483C17.4148 64.8483 16.6033 64.6899 16.0623 64.1753C16.0623 64.1753 15.7919 64.3336 16.2169 64.9671C16.642 65.6005 17.1057 65.9964 17.1057 65.9964C17.1057 65.9964 15.8691 66.0755 15.8691 66.9465L16.8738 66.9069L17.3375 67.2632L18.149 66.4319Z" fill="black"/>
<path d="M18.8062 65.3235C18.8062 65.6006 19.038 65.7986 19.3085 65.7986C19.579 65.7986 19.7722 65.561 19.7722 65.2839C19.7722 65.0068 19.5403 64.8088 19.2699 64.8088C18.9994 64.8484 18.8062 65.086 18.8062 65.3235Z" fill="#263238"/>
<path d="M19.6182 71.3805C19.6568 71.3409 19.9659 71.7764 20.7001 72.2515C21.3957 72.6869 22.5549 73.1224 23.7915 72.9245C25.0667 72.7265 26.0327 71.9744 26.5737 71.3409C27.1147 70.7075 27.3079 70.1929 27.3465 70.1929C27.3465 70.1929 27.3079 70.3116 27.2306 70.5492C27.1147 70.7867 26.9601 71.1034 26.6896 71.4201C26.1486 72.0931 25.1439 72.8849 23.8301 73.1224C22.5163 73.3204 21.3184 72.8453 20.6228 72.3702C20.2751 72.1327 20.0046 71.8952 19.85 71.6972C19.6954 71.4993 19.6182 71.3805 19.6182 71.3805Z" fill="#263238"/>
<path d="M16.4878 76.9626C16.8356 76.0124 17.6084 75.2207 18.5358 74.8644C19.4632 74.5081 20.5452 74.5872 21.4339 75.0623C22.0522 74.3101 22.9796 73.8746 23.9457 73.7559C24.9117 73.5975 25.8777 73.7163 26.8052 73.9142C27.7712 74.1122 28.7372 74.3893 29.5101 74.9435C30.3216 75.4978 30.9012 76.4083 30.9398 77.4376" fill="#E0E0E0"/>
</svg>
