<svg width="38" height="38" viewBox="0 0 38 38" fill="none" xmlns="http://www.w3.org/2000/svg">
<path d="M37.0553 18.6107C37.0247 28.8175 28.7164 37.0858 18.5212 37.0553C18.1814 37.0543 17.8416 37.0533 17.5018 37.0097C17.4594 37.0096 17.4594 37.0096 17.4169 37.0095C16.9922 36.9657 16.5674 36.9644 16.1854 36.8782C9.2637 36.0069 3.50073 31.2264 1.18331 24.8826C1.05689 24.542 0.930464 24.2014 0.846523 23.8609C0.80468 23.6482 0.720232 23.4778 0.678389 23.265C0.258175 21.7327 0.0506152 20.116 0.0554536 18.4999C0.0860115 8.29307 8.39439 0.0247998 18.5895 0.0553227C28.8271 0.0859727 37.0858 8.40384 37.0553 18.6107Z" fill="#E64A19"/>
<path d="M28.5277 29.1323C27.5072 29.4695 18.2534 27.1878 17.9958 28.0801C17.8244 28.5899 17.8537 32.9705 17.5017 37.0522C17.4592 37.0521 17.4592 37.0521 17.4167 37.052C16.992 37.0082 16.5673 37.0069 16.1852 36.9207C9.26354 36.0494 3.50057 31.2689 1.18315 24.9252C1.05673 24.5846 0.930304 24.2439 0.846363 23.9035C3.01754 22.3364 7.31831 18.9044 8.5613 15.2081C8.60441 14.9956 7.50427 13.5463 7.29556 12.3124C6.71167 8.69567 10.5867 5.56012 10.5867 5.56012C10.5867 5.56012 11.513 8.32728 12.6121 10.1168C13.077 10.9262 13.6276 11.4807 14.0945 11.6097C14.9436 11.7824 16.8553 11.7456 17.8739 12.0463C18.0012 12.0892 18.1285 12.1322 18.2557 12.2176C20.2491 13.2868 21.8156 15.0352 22.3626 16.7805C23.1197 19.292 30.4617 21.653 31.351 22.5913C32.1554 23.4868 29.5483 28.7952 28.5277 29.1323Z" fill="white"/>
<path d="M15.9411 5.02327C15.9411 5.02327 12.3226 7.56418 12.5668 11.1373C12.811 14.7105 14.6408 13.6527 14.7683 13.6531C14.8957 13.6535 17.9994 12.7697 17.9994 12.7697L15.9411 5.02327Z" fill="white"/>
</svg>
