<svg width="81" height="80" viewBox="0 0 81 80" fill="none" xmlns="http://www.w3.org/2000/svg">
<path d="M74.4636 44.6494C72.6599 40.6792 67.8187 38.7342 62.1834 39.2319C63.3822 38.4039 64.5125 37.3206 65.5559 36.2308C71.4681 29.6664 72.2597 21.3863 67.3119 17.3487C63.023 13.8605 56.0334 14.9244 50.3441 19.6709C51.919 12.6167 49.5985 6.18967 44.3162 4.29529C41.2463 3.23279 37.6987 3.88589 34.5619 6.07061C31.6985 8.1089 29.3636 11.2706 27.9549 14.9183C27.4149 16.2957 27.0428 17.769 26.7638 19.1658C24.5061 14.2445 20.3665 11.101 15.8744 11.517C9.7109 12.0587 5.60698 19.008 6.48062 27.2452C6.89865 31.0289 8.21747 34.4627 10.3933 36.9596C11.6802 38.4731 13.0849 39.5784 14.6945 40.282C7.90411 42.1946 3.35748 45.6919 2.07327 50.016C1.0495 53.1919 1.94572 56.4275 4.46953 58.9503C7.65221 62.0226 11.834 62.2506 15.5808 62.4462C18.3706 62.5706 20.9804 62.7649 22.9941 63.9156L23.1619 64.0115C25.1817 65.0792 26.5932 67.269 28.0916 69.4653C30.0564 72.4469 32.2575 75.7796 36.4521 77.0093C36.5391 77.0158 36.6261 77.0222 36.7069 77.1116C40.2242 78.0407 43.6101 77.2088 45.9763 74.7999C49.2742 71.6265 50.2099 66.109 48.6908 59.4915C49.6853 60.2327 50.7853 60.7316 52.0717 61.0775C55.5827 62.0895 60.1495 61.8458 64.5726 60.0071C72.5927 56.8518 76.9514 50.0048 74.4636 44.6494Z" fill="#616161"/>
<path d="M76.47 43.5481C74.6663 39.5778 69.8251 37.6329 64.1897 38.1306C65.3886 37.3026 66.5189 36.2193 67.5623 35.1295C73.4745 28.565 74.266 20.285 69.3183 16.2474C65.0294 12.7592 58.0398 13.8231 52.3504 18.5696C53.9254 11.5154 51.6049 5.08835 46.3226 3.19397C43.2526 2.13147 39.7051 2.78458 36.5683 4.96929C33.7048 7.00758 31.37 10.1693 29.9612 13.8169C29.4213 15.1944 29.0491 16.6677 28.7702 18.0645C26.5125 13.1432 22.3729 9.99965 17.8807 10.4156C11.7172 10.9573 7.61334 17.9066 8.48698 26.1439C8.90501 29.9276 10.2238 33.3614 12.3997 35.8583C13.6865 37.3718 15.0913 38.477 16.7009 39.1806C9.91047 41.0933 5.36383 44.5906 4.07962 48.9147C3.05585 52.0906 3.95207 55.3262 6.47587 57.849C9.65856 60.9213 13.8403 61.1493 17.5871 61.3449C20.377 61.4693 22.9867 61.6636 25.0004 62.8143L25.1682 62.9101C27.1881 63.9778 28.5995 66.1677 30.098 68.364C32.0628 71.3456 34.2639 74.6783 38.4585 75.908C38.5455 75.9144 38.6325 75.9209 38.7133 76.0103C42.2305 76.9393 45.6165 76.1074 47.9827 73.6986C51.2806 70.5252 52.2163 65.0077 50.6972 58.3902C51.6917 59.1314 52.7917 59.6302 54.078 59.9762C57.5891 60.9882 62.1558 60.7445 66.579 58.9058C74.6799 55.8399 78.9516 48.9864 76.47 43.5481Z" fill="#BDBDBD"/>
<path d="M42.2993 37.9723C35.7363 34.4816 30.6497 39.3563 21.579 41.3493C8.24628 44.1924 5.84514 51.7689 10.2462 56.0993C14.6473 60.4297 22.5743 57.3509 28.2735 60.6939C28.2735 60.6939 28.2735 60.6939 28.3605 60.7004C28.3605 60.7004 28.3605 60.7004 28.4475 60.7069C34.2523 63.8076 35.2191 71.9684 41.309 73.5894C47.3989 75.2104 53.1624 69.4687 49.2857 56.9217C46.6845 48.389 48.6636 41.7818 42.2993 37.9723Z" fill="#616161"/>
<path d="M29.475 24.5921C30.1988 31.3172 27.0636 37.0044 22.5715 37.4204C18.0794 37.8364 13.827 32.6831 13.097 26.0409C12.3732 19.3159 15.5084 13.6287 20.0005 13.2127C24.5796 12.8031 28.832 17.9564 29.475 24.5921Z" fill="#616161"/>
<path d="M60.7863 42.2679C54.2883 44.9528 50.5627 50.3459 52.3664 54.3161C54.1701 58.2864 60.9122 59.3722 67.3232 56.6808C73.8212 53.9959 77.5468 48.6028 75.7431 44.6325C73.9394 40.6623 67.1973 39.5765 60.7863 42.2679Z" fill="#616161"/>
<path d="M50.667 20.7502C48.0728 27.395 42.3459 31.4716 37.828 29.8843C33.3101 28.297 31.7972 21.5965 34.3044 14.9453C36.8986 8.30051 42.6255 4.22393 47.1434 5.81121C51.6613 7.39849 53.2612 14.1054 50.667 20.7502Z" fill="#616161"/>
<path d="M54.0292 22.585C49.1665 27.9768 48.2252 34.7446 51.9422 37.6899C55.566 40.7116 62.4496 38.7225 67.3061 33.4137C72.1687 28.0219 73.1101 21.254 69.3931 18.3088C65.7693 15.287 58.8857 17.2761 54.0292 22.585Z" fill="#616161"/>
</svg>
