<svg width="38" height="38" viewBox="0 0 38 38" fill="none" xmlns="http://www.w3.org/2000/svg">
<path d="M37.0552 18.6107C37.0246 28.8175 28.7162 37.0858 18.5211 37.0553C18.1813 37.0543 17.8414 37.0533 17.5017 37.0097C17.4592 37.0096 17.4592 37.0096 17.4168 37.0095C16.9921 36.9657 16.5673 36.9644 16.1852 36.8782C9.26358 36.0069 3.5006 31.2264 1.18319 24.8826C1.05677 24.542 0.930341 24.2014 0.846401 23.8609C0.804557 23.6482 0.72011 23.4778 0.678267 23.265C0.258053 21.7327 0.0504931 20.116 0.0553315 18.4999C0.0858894 8.29307 8.39426 0.0247998 18.5894 0.0553227C28.827 0.0859727 37.0857 8.40384 37.0552 18.6107Z" fill="#D68C3C"/>
<path d="M28.5276 29.1323C27.5071 29.4695 18.2533 27.1878 17.9957 28.0801C17.8243 28.5899 17.8536 32.9705 17.5016 37.0522C17.4591 37.0521 17.4591 37.0521 17.4166 37.052C16.9919 37.0082 16.5671 37.0069 16.1851 36.9207C9.26342 36.0494 3.50044 31.2689 1.18303 24.9252C1.05661 24.5846 0.930182 24.2439 0.846241 23.9035C3.01742 22.3364 7.31818 18.9044 8.56117 15.2081C8.60429 14.9956 7.50415 13.5463 7.29544 12.3124C6.71155 8.69567 10.5866 5.56012 10.5866 5.56012C10.5866 5.56012 11.5129 8.32728 12.612 10.1168C13.0769 10.9262 13.6275 11.4807 14.0944 11.6097C14.9434 11.7824 16.8552 11.7456 17.8738 12.0463C18.0011 12.0892 18.1284 12.1322 18.2556 12.2176C20.249 13.2868 21.8155 15.0352 22.3625 16.7805C23.1196 19.292 30.4616 21.653 31.3509 22.5913C32.1553 23.4868 29.5481 28.7952 28.5276 29.1323Z" fill="white"/>
<path d="M15.9408 5.02327C15.9408 5.02327 12.3224 7.56418 12.5666 11.1373C12.8108 14.7105 14.6406 13.6527 14.768 13.6531C14.8954 13.6535 17.9991 12.7697 17.9991 12.7697L15.9408 5.02327Z" fill="white"/>
</svg>
