<svg width="137" height="106" viewBox="0 0 137 106" fill="none" xmlns="http://www.w3.org/2000/svg">
<path d="M126.63 103.803H8.10034C5.9115 103.803 4.13867 101.769 4.13867 99.2567V12.3825C4.13867 9.87049 5.9115 7.83594 8.10034 7.83594H126.63C128.819 7.83594 130.591 9.87049 130.591 12.3825V99.2567C130.591 101.766 128.819 103.803 126.63 103.803Z" fill="#455A64"/>
<path d="M132.16 106H4.83993C2.16709 106 0 103.513 0 100.445V97.6027H137V100.445C137 103.516 134.833 106 132.16 106Z" fill="#455A64"/>
<path d="M54.9004 96.7041L56.5998 99.809H80.5221L82.0992 96.7041H54.9004Z" fill="#263238"/>
<path d="M129.504 96.7041C129.504 96.7571 101.438 96.7977 66.824 96.7977C32.1994 96.7977 4.13867 96.7571 4.13867 96.7041C4.13867 96.651 32.1994 96.6105 66.824 96.6105C101.438 96.6105 129.504 96.651 129.504 96.7041Z" fill="#263238"/>
<path d="M125.585 94.1672H8.65183C8.15968 94.1672 7.7627 93.7085 7.7627 93.1468V14.3765C7.7627 13.8117 8.1624 13.3561 8.65183 13.3561H125.588C126.08 13.3561 126.477 13.8148 126.477 14.3765V93.1468C126.474 93.7085 126.077 94.1672 125.585 94.1672Z" fill="#EBEBEB"/>
<path d="M126.35 94.2858H7.63281L7.76061 19.3943H126.35V94.2858Z" fill="white"/>
<path d="M17.4975 16.4767C17.4975 17.079 17.0733 17.5658 16.5486 17.5658C16.0238 17.5658 15.5996 17.079 15.5996 16.4767C15.5996 15.8745 16.0238 15.3877 16.5486 15.3877C17.0733 15.3877 17.4975 15.8745 17.4975 16.4767Z" fill="#263238"/>
<path d="M11.7519 16.4767C11.7519 17.079 11.3277 17.5658 10.803 17.5658C10.2782 17.5658 9.854 17.079 9.854 16.4767C9.854 15.8745 10.2782 15.3877 10.803 15.3877C11.3277 15.3877 11.7519 15.8745 11.7519 16.4767Z" fill="#263238"/>
<path d="M14.5092 16.4767C14.5092 17.079 14.0851 17.5658 13.5603 17.5658C13.0355 17.5658 12.6113 17.079 12.6113 16.4767C12.6113 15.8745 13.0355 15.3877 13.5603 15.3877C14.0851 15.3877 14.5092 15.8745 14.5092 16.4767Z" fill="#263238"/>
<path d="M126.475 87.0524H7.63281V94.2856H126.475V87.0524Z" fill="#263238"/>
<path d="M12.1241 91.5054V91.7363H11.1779V91.5522L11.689 90.9967C11.8141 90.8594 11.8359 90.7752 11.8359 90.6909C11.8359 90.5567 11.7543 90.4787 11.5966 90.4787C11.4715 90.4787 11.3682 90.5287 11.2948 90.6316L11.1289 90.485C11.2268 90.3321 11.4063 90.2416 11.6156 90.2416C11.8957 90.2416 12.0751 90.4038 12.0751 90.666C12.0751 90.8095 12.0398 90.9406 11.8631 91.1309L11.5205 91.5054H12.1241Z" fill="white"/>
<path d="M12.2524 90.7752C12.2524 90.6691 12.3204 90.6005 12.402 90.6005C12.4836 90.6005 12.5515 90.6691 12.5515 90.7752C12.5515 90.8751 12.4836 90.95 12.402 90.95C12.3204 90.95 12.2524 90.8782 12.2524 90.7752ZM12.2524 91.5772C12.2524 91.4711 12.3204 91.4024 12.402 91.4024C12.4836 91.4024 12.5515 91.4711 12.5515 91.5772C12.5515 91.677 12.4836 91.7519 12.402 91.7519C12.3204 91.7519 12.2524 91.6802 12.2524 91.5772Z" fill="white"/>
<path d="M13.1489 90.2634V91.7362H12.9096V90.4912H12.6377V90.2603H13.1489V90.2634Z" fill="white"/>
<path d="M14.5495 91.4025H14.3211V91.7364H14.09V91.4025H13.3857V91.2122L14.0193 90.2635H14.2749L13.6794 91.1716H14.1009V90.8752H14.3238V91.1716H14.5522V91.4025H14.5495Z" fill="white"/>
<path d="M114.054 90.8127H16.646V91.3214H114.054V90.8127Z" fill="white"/>
<path d="M47.0122 90.2666H16.5723V91.6271H47.0122V90.2666Z" fill="#FF725E"/>
<path d="M47.9965 91.0686C47.9965 92.0079 47.333 92.7693 46.5146 92.7693C45.6962 92.7693 45.0327 92.0079 45.0327 91.0686C45.0327 90.1293 45.6962 89.3679 46.5146 89.3679C47.333 89.3679 47.9965 90.1293 47.9965 91.0686Z" fill="#FF725E"/>
<path d="M116.506 91.0528C116.506 91.3461 116.299 91.5302 116.036 91.5302C115.685 91.5302 115.481 91.2712 115.481 90.7969C115.481 90.2914 115.737 90.0137 116.109 90.0137C116.237 90.0137 116.359 90.0449 116.446 90.1073L116.359 90.3132C116.289 90.2602 116.204 90.2415 116.115 90.2415C115.873 90.2415 115.72 90.4131 115.72 90.7501V90.7532C115.796 90.6502 115.921 90.6003 116.063 90.6003C116.318 90.6003 116.506 90.7782 116.506 91.0528ZM116.275 91.0653C116.275 90.9124 116.174 90.8156 116.019 90.8156C115.864 90.8156 115.758 90.9217 115.758 91.0684C115.758 91.2057 115.853 91.318 116.025 91.318C116.174 91.3149 116.275 91.2182 116.275 91.0653Z" fill="white"/>
<path d="M116.623 90.5474C116.623 90.4413 116.691 90.3727 116.773 90.3727C116.854 90.3727 116.922 90.4413 116.922 90.5474C116.922 90.6473 116.854 90.7222 116.773 90.7222C116.691 90.7222 116.623 90.6473 116.623 90.5474ZM116.623 91.3494C116.623 91.2433 116.691 91.1746 116.773 91.1746C116.854 91.1746 116.922 91.2433 116.922 91.3494C116.922 91.4492 116.854 91.5241 116.773 91.5241C116.691 91.5241 116.623 91.4492 116.623 91.3494Z" fill="white"/>
<path d="M117.077 90.7719C117.077 90.2883 117.308 90.0137 117.613 90.0137C117.92 90.0137 118.151 90.2883 118.151 90.7719C118.151 91.2556 117.92 91.5302 117.613 91.5302C117.308 91.5302 117.077 91.2556 117.077 90.7719ZM117.909 90.7719C117.909 90.4162 117.79 90.2508 117.613 90.2508C117.439 90.2508 117.316 90.4162 117.316 90.7719C117.316 91.1277 117.439 91.2931 117.613 91.2931C117.79 91.2931 117.909 91.1277 117.909 90.7719Z" fill="white"/>
<path d="M118.309 90.7719C118.309 90.2883 118.54 90.0137 118.845 90.0137C119.152 90.0137 119.383 90.2883 119.383 90.7719C119.383 91.2556 119.152 91.5302 118.845 91.5302C118.54 91.5302 118.309 91.2556 118.309 90.7719ZM119.144 90.7719C119.144 90.4162 119.024 90.2508 118.847 90.2508C118.673 90.2508 118.551 90.4162 118.551 90.7719C118.551 91.1277 118.673 91.2931 118.847 91.2931C119.021 91.2931 119.144 91.1277 119.144 90.7719Z" fill="white"/>
<path d="M121.458 90.6817H121.015V89.2119H122.29V89.7206H121.458V90.6817Z" fill="white"/>
<path d="M122.292 92.5975H121.012V91.134H121.455V92.0889H122.292V92.5975Z" fill="white"/>
<path d="M124.332 92.5976H123.054V92.0889H123.886V91.1278H124.332V92.5976Z" fill="white"/>
<path d="M124.331 90.6785H123.888V89.7206H123.051V89.2119H124.331V90.6785Z" fill="white"/>
<path d="M23.914 23.8472H16.9152L13.4185 30.7996L16.9152 37.7551H23.914L27.4108 30.7996L23.914 23.8472Z" fill="#EBEBEB"/>
<path d="M17.4863 32.1632C17.1736 31.7669 16.8582 31.3643 16.6298 30.8963C16.4014 30.4282 16.2654 29.8852 16.3416 29.3548C16.3851 29.0458 16.4993 28.7525 16.5183 28.4405C16.5428 28.0098 16.3851 27.5605 16.5183 27.1579C16.725 26.5276 17.4645 26.4309 17.9132 25.9971C18.2612 25.657 18.4325 25.1078 18.8159 24.8238C19.1504 24.5742 19.5827 24.5804 19.977 24.646C20.3712 24.7115 20.7709 24.8238 21.1652 24.7645C21.448 24.7208 21.7117 24.5898 21.9891 24.5118C22.2664 24.4338 22.5737 24.4119 22.8184 24.5773C23.0631 24.7427 23.2018 25.1421 23.0413 25.4105C23.5009 25.1671 24.0827 25.579 24.2078 26.1375C24.3329 26.6992 24.0827 27.3046 23.6939 27.6759C23.3051 28.0473 22.8021 28.2189 22.3072 28.325C20.9041 28.6277 19.3788 28.4561 18.1688 27.5854" fill="#263238"/>
<path d="M23.974 33.8795C23.9278 32.8841 23.683 30.8433 23.4465 28.9991C23.1909 27.0144 21.6492 25.5915 19.9063 25.7257L19.7322 25.7382C17.8724 26.0065 17.0322 27.9693 17.3177 30.0975L17.8642 37.7582H22.4051C22.4051 37.7582 22.299 36.4133 22.2963 36.4008C22.2963 36.3977 24.0719 35.939 23.974 33.8795Z" fill="#FFBE9D"/>
<path d="M22.2962 36.3697C22.2962 36.3697 21.1678 36.5631 19.9116 35.7861C19.9116 35.7861 20.5506 37.2247 22.3316 36.9033L22.2962 36.3697Z" fill="#EB996E"/>
<path d="M22.8674 30.7652C22.881 30.9212 22.7776 31.0616 22.6362 31.0804C22.4949 31.0991 22.3698 30.9899 22.3562 30.8339C22.3426 30.6778 22.4459 30.5374 22.5846 30.5187C22.7287 30.5 22.8538 30.6092 22.8674 30.7652Z" fill="#263238"/>
<path d="M23.1205 30.0351C23.0906 30.0756 22.8866 29.9258 22.612 29.9477C22.3374 29.9664 22.1443 30.1443 22.1117 30.1068C22.0954 30.0912 22.1253 30.0194 22.2069 29.9383C22.2885 29.8572 22.4326 29.776 22.6039 29.7636C22.7752 29.7511 22.9247 29.8135 23.0117 29.8821C23.1014 29.9477 23.1341 30.0163 23.1205 30.0351Z" fill="#263238"/>
<path d="M20.2624 30.9805C20.276 31.1366 20.1727 31.277 20.0313 31.2957C19.8899 31.3144 19.7648 31.2052 19.7512 31.0492C19.7376 30.8932 19.8409 30.7527 19.9796 30.734C20.1237 30.7153 20.2488 30.8245 20.2624 30.9805Z" fill="#263238"/>
<path d="M20.412 30.3035C20.3821 30.344 20.1781 30.1943 19.9035 30.2161C19.6289 30.2348 19.4358 30.4127 19.4032 30.3753C19.3869 30.3597 19.4168 30.2879 19.5011 30.2067C19.5827 30.1256 19.7268 30.0445 19.8981 30.032C20.0694 30.0195 20.2189 30.0819 20.3059 30.1506C20.3929 30.2161 20.4256 30.2848 20.412 30.3035Z" fill="#263238"/>
<path d="M21.5481 32.572C21.5454 32.5533 21.714 32.5065 21.9913 32.4441C22.062 32.4316 22.1272 32.4098 22.1354 32.3536C22.149 32.2943 22.1137 32.2101 22.0756 32.1165C21.9967 31.9261 21.9179 31.7264 21.8309 31.5173C21.491 30.6623 21.2381 29.9602 21.268 29.9446C21.2979 29.929 21.5997 30.6093 21.9396 31.4643C22.0212 31.6765 22.1001 31.8762 22.1762 32.0696C22.2088 32.1601 22.2605 32.26 22.2306 32.3848C22.2143 32.4472 22.1653 32.494 22.1218 32.5128C22.0783 32.5315 22.0375 32.5346 22.0022 32.5408C21.7248 32.5752 21.5508 32.5908 21.5481 32.572Z" fill="#263238"/>
<path d="M20.4092 29.0551C20.3875 29.1425 20.1101 29.1238 19.7893 29.1924C19.4657 29.2548 19.2128 29.3828 19.1639 29.311C19.1421 29.2767 19.1829 29.1924 19.2835 29.0988C19.3841 29.0083 19.5446 28.9147 19.7376 28.8773C19.9307 28.8367 20.1101 28.8585 20.2325 28.9053C20.3548 28.9521 20.4201 29.0146 20.4092 29.0551Z" fill="#263238"/>
<path d="M22.965 29.1269C22.9215 29.2018 22.7258 29.1425 22.4974 29.155C22.269 29.1613 22.0786 29.2361 22.0297 29.1644C22.0079 29.13 22.0351 29.0552 22.114 28.9803C22.1928 28.9054 22.3288 28.8398 22.4865 28.8336C22.6442 28.8274 22.7829 28.8835 22.8672 28.9491C22.9514 29.0177 22.9841 29.0895 22.965 29.1269Z" fill="#263238"/>
<path d="M17.5543 31.6076C17.5217 31.5951 16.2954 31.283 16.4178 32.6904C16.5401 34.0946 17.867 33.639 17.8643 33.5984C17.8643 33.5548 17.5543 31.6076 17.5543 31.6076Z" fill="#FFBE9D"/>
<path d="M17.3201 33.1366C17.3147 33.1335 17.3011 33.1554 17.2657 33.1803C17.2331 33.2022 17.1733 33.2209 17.1053 33.2022C16.972 33.1616 16.8415 32.94 16.8143 32.6873C16.8008 32.5593 16.8143 32.4345 16.8443 32.3316C16.8714 32.2255 16.9258 32.1474 16.9884 32.1256C17.0509 32.1006 17.1026 32.1412 17.1189 32.1786C17.1379 32.2161 17.1325 32.2442 17.1406 32.2473C17.1434 32.2504 17.1651 32.2223 17.1488 32.163C17.1406 32.135 17.1243 32.1038 17.0917 32.0819C17.0591 32.057 17.0156 32.0476 16.9693 32.0601C16.8769 32.0788 16.798 32.188 16.7654 32.3035C16.7273 32.4189 16.7083 32.5594 16.7246 32.7029C16.7572 32.9837 16.9068 33.2365 17.089 33.2739C17.176 33.2895 17.2467 33.2521 17.282 33.2147C17.3228 33.171 17.3255 33.1366 17.3201 33.1366Z" fill="#EB996E"/>
<path d="M23.3564 27.0736C23.2721 27.6321 22.2851 28.1439 21.4639 28.1189C20.708 28.094 20.3355 27.6633 19.7863 27.3575C19.4382 27.1641 19.4382 27.1641 18.9678 27.2514C18.5872 27.3232 18.3887 27.8381 18.1739 28.2063C18.5817 29.2267 18.4159 30.4125 18.2445 31.5171C18.2255 31.6388 18.201 31.7699 18.1195 31.8541C17.9808 31.9946 17.7578 31.9103 17.6246 31.7668C17.4071 31.539 17.3092 31.202 17.2385 30.8743C17.0754 30.1285 17.0155 29.3484 17.1161 28.5901C17.2195 27.8318 17.4914 27.0923 17.9455 26.5275C18.511 25.8191 19.3349 25.4103 20.1724 25.3604C21.0071 25.3105 21.8473 25.6069 22.5461 26.1343C22.867 26.3808 23.1715 26.6804 23.3564 27.0736Z" fill="#263238"/>
<path d="M21.7303 33.2834C21.5209 33.171 21.3143 33.0618 21.1049 32.9495C21.0696 32.9307 21.0315 32.912 20.9907 32.9151C20.9472 32.9214 20.9119 32.9588 20.882 32.9994C20.7378 33.1991 20.6998 33.5049 20.814 33.7327C20.9255 33.9605 21.1892 34.0791 21.3986 33.9792C21.6188 33.8731 21.7276 33.5798 21.7439 33.3052L21.7303 33.2834Z" fill="#EB996E"/>
<path d="M21.4206 34.0324C21.4314 34.0449 21.29 34.1478 21.0535 34.0698C20.9393 34.0292 20.8088 33.9294 20.7299 33.7671C20.6483 33.608 20.6184 33.3833 20.6891 33.1805C20.7218 33.0806 20.7761 32.9901 20.8414 32.9215C20.874 32.8872 20.9067 32.8559 20.9474 32.831C20.9882 32.7967 21.0725 32.7935 21.1106 32.8185C21.252 32.909 21.3499 32.987 21.445 33.0588C21.6272 33.1992 21.736 33.2928 21.7251 33.3147C21.7142 33.3334 21.5891 33.2741 21.3934 33.1586C21.2792 33.09 21.1704 33.0245 21.0589 32.9589C21.0317 32.9496 21.0344 32.9496 21.01 32.9652C20.9855 32.9839 20.9556 33.0089 20.9338 33.0369C20.8849 33.0931 20.8441 33.1618 20.8196 33.2398C20.7653 33.3958 20.7843 33.5674 20.8441 33.6985C20.9039 33.8295 20.9964 33.9169 21.0888 33.9637C21.2764 34.0542 21.4151 34.0043 21.4206 34.0324Z" fill="#263238"/>
<path d="M21.2222 30.7994C21.2086 30.7994 21.2113 30.6684 21.1542 30.4499C21.0998 30.2346 20.9693 29.9194 20.6865 29.6792C20.4119 29.4389 19.9632 29.3047 19.5309 29.4919C19.1013 29.6636 18.7315 30.1878 18.7369 30.7994C18.7315 31.411 19.1013 31.9353 19.5309 32.1069C19.9632 32.2941 20.4119 32.1599 20.6865 31.9197C20.9693 31.6794 21.1025 31.3642 21.1542 31.1489C21.2113 30.9305 21.2086 30.7994 21.2222 30.7994C21.2276 30.7994 21.2303 30.8306 21.233 30.893C21.2358 30.9554 21.2303 31.049 21.2086 31.1645C21.1678 31.3954 21.0454 31.7387 20.7463 32.0102C20.4581 32.2816 19.966 32.4439 19.4847 32.2473C19.0061 32.0663 18.5874 31.4828 18.5928 30.7994C18.5874 30.116 19.0061 29.5325 19.4847 29.3515C19.9687 29.1518 20.4581 29.3141 20.7463 29.5887C21.0454 29.8601 21.1678 30.2065 21.2086 30.4343C21.2303 30.5498 21.2358 30.6434 21.233 30.7058C21.2303 30.7682 21.2276 30.7994 21.2222 30.7994Z" fill="#263238"/>
<path d="M24.2758 30.6623C24.2622 30.6623 24.2622 30.5344 24.2105 30.3222C24.1588 30.1131 24.0311 29.8073 23.7537 29.5733C23.4872 29.3393 23.0495 29.2113 22.628 29.3923C22.2093 29.5577 21.8504 30.0694 21.8558 30.6655C21.8504 31.2615 22.212 31.7701 22.628 31.9386C23.0495 32.1196 23.4872 31.9917 23.7537 31.7576C24.0311 31.5236 24.1588 31.2178 24.2105 31.0087C24.2649 30.7903 24.2622 30.6623 24.2758 30.6623C24.2812 30.6623 24.2839 30.6935 24.2866 30.756C24.2894 30.8152 24.2839 30.9057 24.2649 31.0212C24.2268 31.2459 24.1072 31.5798 23.8162 31.8481C23.5362 32.1134 23.0576 32.2725 22.5845 32.079C22.1168 31.9012 21.709 31.3332 21.7144 30.6655C21.709 29.9977 22.1168 29.4297 22.5845 29.2519C23.0549 29.0584 23.5335 29.2176 23.8162 29.4828C24.1072 29.748 24.2268 30.085 24.2649 30.3097C24.2866 30.4221 24.2894 30.5126 24.2866 30.575C24.2839 30.6311 24.2812 30.6623 24.2758 30.6623Z" fill="#263238"/>
<path d="M21.7856 30.3407C21.7584 30.3719 21.6361 30.2814 21.4729 30.2876C21.3098 30.2876 21.1929 30.3843 21.163 30.3531C21.1249 30.3313 21.2391 30.1285 21.4702 30.1222C21.7013 30.1191 21.821 30.3157 21.7856 30.3407Z" fill="#263238"/>
<path d="M18.7421 30.5936C18.7666 30.631 18.5273 30.8775 18.2119 31.149C17.8965 31.4205 17.6192 31.6108 17.5974 31.5734C17.573 31.536 17.8122 31.2894 18.1276 31.018C18.4431 30.7465 18.7177 30.5561 18.7421 30.5936Z" fill="#263238"/>
<path d="M43.9813 30.7309C43.9813 30.7746 40.8354 30.812 36.9553 30.812C33.0752 30.812 29.9292 30.7746 29.9292 30.7309C29.9292 30.6872 33.0752 30.6498 36.9553 30.6498C40.8354 30.6498 43.9813 30.6841 43.9813 30.7309Z" fill="#263238"/>
<path d="M37.4826 32.4191C37.4826 32.4628 35.8131 32.5002 33.752 32.5002C31.691 32.5002 30.0215 32.4628 30.0215 32.4191C30.0215 32.3754 31.691 32.338 33.752 32.338C35.8131 32.3348 37.4826 32.3723 37.4826 32.4191Z" fill="#263238"/>
<path d="M86.0722 43.1971C86.0722 43.1971 89.8055 45.2847 91.1188 50.6769C92.4321 56.0691 96.4454 70.1113 96.4454 70.1113C96.4454 70.1113 98.7403 73.2099 98.9878 75.5035C99.2325 77.797 98.743 83.3484 98.0035 84.3844C97.2666 85.4204 96.2143 85.2487 96.2143 85.2487L86.5535 84.1971L82.7495 54.9645L86.0722 43.1971Z" fill="#FFB300"/>
<path d="M54.1286 42.6884C54.1286 42.6884 47.2221 45.1754 45.501 47.3379L51.1566 77.5348L51.0669 87.0616H83.8153C83.8153 86.5905 84.109 55.4293 84.109 55.4293L86.0776 43.2002L74.4372 40.8473L72.1424 38.7784L59.1915 39.5305L57.2229 41.7897L54.1286 42.6884Z" fill="#FFB300"/>
<g opacity="0.3">
<path d="M56.7529 68.8848C56.6523 68.6289 56.5082 68.3512 56.2689 68.2951C55.8746 68.2014 55.6109 68.7382 55.4776 69.1719C54.4145 72.6294 53.006 75.8092 51.1761 78.8111L51.0918 83.4481C53.0006 81.6039 54.8822 79.6286 56.1003 77.1291C57.313 74.6296 57.7807 71.4935 56.7529 68.8848Z" fill="black"/>
</g>
<path d="M45.4983 47.338C45.4983 47.338 43.2225 50.8985 42.2763 53.2232C41.33 55.548 33.4991 75.0697 33.0287 77.0856C32.5556 79.1014 31.3402 85.4516 34.9185 86.9244H42.2763L49.6612 69.7836L50.0392 49.8906L45.4983 47.338Z" fill="#FFB300"/>
<path d="M42.7496 74.5423C42.7388 74.5548 42.5865 74.3769 42.2466 74.1553C41.9094 73.9369 41.3819 73.6841 40.7022 73.5125C40.3623 73.4283 39.9843 73.3596 39.5765 73.3315C39.1686 73.3034 38.7309 73.3097 38.2849 73.4283C37.3931 73.6561 36.5067 74.3051 35.8079 75.2132C35.0982 76.1212 34.6631 77.1947 34.4048 78.2057C34.1438 79.2199 34.0323 80.1716 33.9616 80.9673C33.8936 81.7662 33.8664 82.4152 33.842 82.8646C33.8311 83.0737 33.8202 83.2453 33.8148 83.3826C33.8066 83.5012 33.8012 83.5636 33.7958 83.5636C33.7903 83.5636 33.7876 83.5012 33.7876 83.3826C33.7876 83.2453 33.7876 83.0737 33.7903 82.8646C33.7985 82.4152 33.8093 81.7631 33.8637 80.958C33.9208 80.156 34.0242 79.1949 34.2797 78.162C34.5326 77.1354 34.9758 76.0339 35.7018 75.104C36.4169 74.1741 37.3305 73.5094 38.2577 73.2816C38.72 73.163 39.1713 73.1599 39.5846 73.1973C39.9979 73.2317 40.3813 73.3066 40.7239 73.4002C41.4119 73.5874 41.9393 73.8589 42.2738 74.0992C42.4397 74.2209 42.562 74.3301 42.6381 74.4112C42.7143 74.4923 42.7523 74.5392 42.7496 74.5423Z" fill="#263238"/>
<path d="M39.2607 71.1285C39.2607 71.1161 39.3478 71.1004 39.5082 71.0817C39.6686 71.0599 39.9024 71.0536 40.1907 71.0724C40.4789 71.088 40.8215 71.1441 41.194 71.244C41.5638 71.3501 41.9662 71.5061 42.3659 71.7214C42.7629 71.943 43.1218 72.202 43.4263 72.4672C43.7282 72.7387 43.981 73.0071 44.1741 73.2567C44.3671 73.5032 44.5113 73.7154 44.5955 73.8714C44.6826 74.0275 44.7288 74.1148 44.7206 74.1211C44.6989 74.1398 44.5004 73.7997 44.1007 73.3347C43.9022 73.1007 43.6466 72.8448 43.3475 72.5889C43.043 72.3362 42.6922 72.0865 42.3034 71.8712C41.9118 71.659 41.523 71.5061 41.1614 71.3938C40.797 71.2877 40.4653 71.2221 40.1825 71.1941C39.6169 71.1254 39.2607 71.1597 39.2607 71.1285Z" fill="#263238"/>
<path d="M45.912 70.1893C45.9092 70.2018 45.7896 70.1893 45.5721 70.1581C45.3546 70.1269 45.0391 70.0895 44.6503 70.0551C43.8727 69.9865 42.7905 69.9709 41.605 70.1331C40.4222 70.2985 39.3726 70.6075 38.6303 70.8821C38.2578 71.0194 37.9587 71.1411 37.7548 71.2316C37.5508 71.3189 37.4339 71.3626 37.4312 71.3533C37.4285 71.3439 37.5345 71.2784 37.7357 71.1723C37.9342 71.063 38.2279 70.9257 38.6004 70.7728C39.34 70.467 40.395 70.1363 41.5914 69.9709C42.785 69.8086 43.8808 69.8429 44.6612 69.9397C45.0527 69.9865 45.3682 70.0427 45.583 70.0926C45.7978 70.1487 45.9147 70.18 45.912 70.1893Z" fill="#263238"/>
<path d="M66.8731 53.5103C66.8704 53.5134 66.8459 53.4791 66.7969 53.4073C66.7453 53.3262 66.6773 53.2232 66.5957 53.0984C66.4163 52.8113 66.1661 52.415 65.8562 51.9219C65.2199 50.8922 64.3362 49.4599 63.2921 47.7717L63.4063 47.753C63.0093 49.0885 62.5715 50.5645 62.112 52.1154L62.0821 52.2121L62.0087 52.156C61.9597 52.1216 61.9081 52.0811 61.8564 52.0436C61.2473 51.6005 60.709 51.0669 60.2549 50.4896C59.8008 49.9092 59.4229 49.2914 59.1102 48.6735C58.4848 47.4347 58.1068 46.2146 57.8512 45.1817C57.5956 44.1457 57.4624 43.2844 57.3754 42.6947C57.3319 42.4107 57.2993 42.186 57.2721 42.0144C57.2585 41.9364 57.2449 41.8802 57.2367 41.8397C57.2231 41.8053 57.2177 41.7835 57.2204 41.7835C57.2503 41.7679 57.3292 42.0955 57.4298 42.6853C57.5358 43.272 57.6826 44.127 57.9491 45.1536C58.2156 46.1771 58.599 47.3848 59.2244 48.6017C59.537 49.2102 59.9096 49.8156 60.3582 50.3867C60.8096 50.9515 61.3371 51.4757 61.9325 51.9095C61.9842 51.9469 62.0359 51.9843 62.0821 52.0187L61.9788 52.0624C62.4437 50.5115 62.8842 49.0386 63.2839 47.7062L63.3247 47.5657L63.3981 47.6874C64.4232 49.3881 65.2933 50.8329 65.9187 51.872C66.2178 52.3744 66.4543 52.7801 66.6284 53.0734C66.7045 53.2044 66.7643 53.3105 66.8133 53.3948C66.854 53.4697 66.8758 53.5071 66.8731 53.5103Z" fill="#263238"/>
<g opacity="0.3">
<path d="M75.3974 67.9238C75.0929 71.4156 75.7645 75.0104 77.2899 78.0498C78.8126 81.0923 81.0476 83.8008 83.8292 85.2581C83.919 82.1595 83.7884 78.5085 83.8782 75.4099L75.3974 67.9238Z" fill="black"/>
</g>
<path d="M75.0896 63.8453C75.0896 63.8453 73.9014 64.2229 74.7933 67.022C75.6851 69.8179 75.9815 69.6494 76.577 72.2675C77.1725 74.8825 77.8658 77.2728 78.9072 78.7519C79.9486 80.231 83.8151 83.2454 83.8151 83.2454L87.2846 79.4914C87.2846 79.4914 86.7136 76.6923 86.8496 74.792C86.9855 72.8916 87.3336 68.2265 87.2846 67.4308C87.2357 66.635 86.4907 64.7003 86.4907 64.7003V63.3773L84.707 57.077C84.707 57.077 83.7145 56.5652 83.3692 58.3845L82.7737 56.4529C82.7737 56.4529 81.8329 56.2813 81.5855 58.4999C81.3381 60.7186 81.784 63.7892 81.784 63.7892L81.2891 67.6586L80.5468 70.2735L79.9024 70.3859C79.9024 70.3859 78.9317 70.0832 78.4015 67.9862C77.8658 65.8924 76.4274 63.3897 75.0896 63.8453Z" fill="#FFBE9D"/>
<path d="M86.1215 73.7372C86.1187 73.7372 86.1133 73.6872 86.1052 73.5936C86.0997 73.4844 86.0916 73.3471 86.0807 73.1755C86.0616 72.7948 86.0372 72.2674 86.0073 71.609C85.9529 70.2516 85.8795 68.3606 85.7925 66.1544L85.8088 66.2012C85.6484 65.9828 85.3656 65.9173 85.1073 65.9921C84.8435 66.0639 84.6097 66.2511 84.4628 66.532C84.161 67.0905 84.142 67.8207 84.0495 68.526C83.8619 70.1205 83.6825 71.6371 83.5193 73.0226C83.4378 73.7122 83.3507 74.3706 83.2311 74.9791C83.1169 75.5876 82.9565 76.1431 82.8015 76.6392C82.6492 77.1354 82.5133 77.5847 82.429 77.9904C82.3447 78.3961 82.3093 78.7518 82.3175 79.0451C82.3284 79.6318 82.4779 79.9313 82.4535 79.9376C82.448 79.9407 82.4208 79.8658 82.3692 79.7191C82.3284 79.5694 82.2713 79.3447 82.2604 79.0482C82.2441 78.7518 82.2713 78.3836 82.3501 77.9717C82.429 77.5598 82.5595 77.1042 82.7063 76.6049C82.8559 76.1056 83.0081 75.5595 83.1169 74.9542C83.2284 74.3519 83.31 73.6966 83.3888 73.007C83.5492 71.6215 83.7233 70.1049 83.9081 68.5104C83.9517 68.1546 83.9843 67.8051 84.0387 67.4525C84.093 67.103 84.1773 66.7535 84.3459 66.454C84.5036 66.1482 84.781 65.9235 85.0746 65.8455C85.3656 65.7612 85.7109 65.8361 85.9094 66.1107L85.923 66.1326V66.1575C85.9882 68.3637 86.0453 70.2547 86.0861 71.6152C86.0997 72.2737 86.1133 72.801 86.1215 73.1849C86.1242 73.3565 86.1242 73.4938 86.1242 73.603C86.1269 73.6904 86.1242 73.7372 86.1215 73.7372Z" fill="#EB996E"/>
<path d="M84.2231 66.5694C84.215 66.5725 84.1606 66.4477 84.0763 66.2137C83.9947 65.9796 83.886 65.6333 83.7854 65.1933C83.6847 64.7564 83.5896 64.2228 83.5352 63.6268C83.508 63.3272 83.489 63.0089 83.5216 62.6782C83.5515 62.3474 83.6358 61.9979 83.8207 61.7046C83.9784 61.4487 84.2014 61.2427 84.4542 61.1585L84.5086 61.1398L84.5358 61.1959C85.0388 62.2132 85.4739 63.1119 85.7811 63.7579C85.9225 64.0605 86.0395 64.3133 86.1373 64.5224C86.2189 64.7034 86.2597 64.8032 86.2515 64.8095C86.2434 64.8157 86.189 64.7221 86.0938 64.5505C85.9878 64.3507 85.8573 64.1042 85.7023 63.8109C85.3733 63.1774 84.9219 62.2912 84.4135 61.2771L84.495 61.3145C84.2775 61.3894 84.079 61.5673 83.9376 61.8013C83.7718 62.0697 83.6902 62.388 83.6603 62.7C83.6304 63.0152 83.644 63.3241 83.6657 63.6174C83.7119 64.2072 83.7935 64.7346 83.8832 65.1714C83.9702 65.6083 84.0627 65.9578 84.128 66.1981C84.1959 66.4321 84.234 66.5663 84.2231 66.5694Z" fill="#EB996E"/>
<path d="M83.3941 67.0843C83.3832 67.0843 83.3723 66.9563 83.3615 66.7223C83.3533 66.4539 83.3397 66.1231 83.3261 65.7331C83.3016 64.8968 83.2799 63.7422 83.2636 62.4659C83.2554 61.1897 83.2119 60.032 83.3071 59.1926C83.3533 58.7744 83.4267 58.4405 83.492 58.219C83.5572 57.9943 83.6116 57.882 83.6198 57.8851C83.6442 57.8944 83.4675 58.3781 83.405 59.2082C83.337 60.0351 83.3941 61.1897 83.4023 62.4659C83.4186 63.7422 83.424 64.8968 83.424 65.7331C83.4213 66.1231 83.4158 66.4539 83.4131 66.7254C83.4104 66.9532 83.405 67.0811 83.3941 67.0843Z" fill="#EB996E"/>
<path d="M80.4606 77.5724C80.4416 77.5536 80.6564 77.2603 80.9256 76.7267C81.0616 76.4615 81.2002 76.1307 81.328 75.7562C81.4504 75.3755 81.5619 74.948 81.638 74.4893C81.7087 74.0275 81.7332 73.5844 81.7332 73.1787C81.7277 72.7731 81.6978 72.408 81.6516 72.1084C81.5619 71.503 81.4477 71.141 81.4721 71.1317C81.4803 71.1286 81.5156 71.2159 81.57 71.3782C81.6271 71.5405 81.6897 71.7839 81.7495 72.0865C81.8093 72.3924 81.8501 72.7637 81.8637 73.1756C81.8718 73.5906 81.8474 74.0462 81.7767 74.5174C81.7005 74.9886 81.5836 75.4255 81.4504 75.8093C81.3117 76.19 81.1595 76.5239 81.0099 76.786C80.8631 77.0481 80.7298 77.2509 80.6265 77.3789C80.5286 77.5099 80.4688 77.5786 80.4606 77.5724Z" fill="#EB996E"/>
<path d="M86.5514 75.6156L89.5614 76.8139C89.5614 76.8139 92.4354 75.107 94.4176 76.8139C96.3998 78.5208 98.121 83.0174 97.5772 84.8366C97.5772 84.8366 96.2095 86.7744 95.1681 87.0584C94.1267 87.3424 90.0807 86.219 88.3976 85.8102C86.7091 85.4014 83.8105 83.2389 83.8105 83.2389L86.5514 75.6156Z" fill="#FFBE9D"/>
<path d="M86.921 80.7051C86.9101 80.7051 86.8992 80.5959 86.8884 80.3993C86.8775 80.1653 86.8612 79.8876 86.8449 79.5661C86.8122 78.8609 86.7714 77.8873 86.7578 76.8076C86.7442 75.7279 86.7714 74.7512 86.8285 74.046C86.8557 73.6934 86.8884 73.4094 86.9183 73.2128C86.9482 73.0162 86.9699 72.9102 86.9808 72.9133C87.0026 72.9164 86.9563 73.3501 86.9264 74.0522C86.8965 74.7544 86.8856 75.7279 86.8992 76.8045C86.9155 77.8592 86.9319 78.8141 86.9427 79.563C86.9455 79.9156 86.9455 80.2027 86.94 80.3993C86.94 80.5959 86.9319 80.7051 86.921 80.7051Z" fill="#EB996E"/>
<path d="M96.8479 76.6767C96.8261 76.7017 96.5161 76.2086 95.8472 75.6407C95.1865 75.0728 94.1152 74.4674 92.8481 74.3863C91.5783 74.3083 90.4553 74.7732 89.7457 75.2538C89.0251 75.7343 88.6716 76.1837 88.6526 76.1587C88.6472 76.1525 88.7314 76.037 88.9 75.8498C89.0686 75.6625 89.3351 75.4129 89.694 75.157C90.4037 74.6422 91.5511 74.1429 92.8563 74.2271C94.1614 74.3114 95.2545 74.9511 95.9098 75.5502C96.2415 75.8498 96.4835 76.1337 96.633 76.3397C96.7826 76.5488 96.856 76.6736 96.8479 76.6767Z" fill="#263238"/>
<path d="M96.4618 73.7966C96.4427 73.8309 96.0403 73.3628 95.2083 73.0039C94.3898 72.6357 93.12 72.4672 91.8176 72.8885C91.1678 73.0976 90.5723 73.394 90.0638 73.7248C89.5553 74.0587 89.1312 74.4238 88.794 74.7545C88.4568 75.0853 88.1985 75.3755 88.0218 75.5752C87.8451 75.7781 87.7472 75.8873 87.739 75.881C87.7336 75.8748 87.8179 75.75 87.9837 75.5315C88.1496 75.3162 88.397 75.0135 88.7315 74.6672C89.0632 74.3208 89.4874 73.9401 90.0013 73.5937C90.5152 73.2505 91.1188 72.9415 91.7823 72.7294C93.1173 72.2987 94.4198 72.4922 95.2463 72.8947C95.6651 73.0913 95.9751 73.3191 96.1735 73.4939C96.2769 73.5781 96.3448 73.6592 96.3938 73.7092C96.44 73.7653 96.4645 73.7934 96.4618 73.7966Z" fill="#263238"/>
<path d="M96.4862 71.3001C96.478 71.3313 95.9533 71.1472 95.0777 71.013C94.6399 70.9413 94.1152 70.9007 93.5333 70.9007C92.9514 70.9101 92.3124 70.9662 91.649 71.0942C90.9882 71.2315 90.371 71.4312 89.819 71.6496C89.2725 71.8774 88.7912 72.1208 88.4024 72.3611C87.622 72.8323 87.1816 73.2098 87.1652 73.1849C87.1598 73.1755 87.2658 73.0788 87.4671 72.9072C87.5649 72.8198 87.69 72.7199 87.8396 72.6138C87.9891 72.5077 88.1577 72.3767 88.3535 72.2612C88.7396 72.0085 89.2236 71.7526 89.7728 71.5123C90.3275 71.2845 90.9529 71.0786 91.6218 70.9381C92.2934 70.8071 92.9405 70.754 93.5306 70.754C94.1206 70.7634 94.6508 70.8164 95.0886 70.9038C95.3088 70.935 95.5046 70.9943 95.6786 71.0349C95.8526 71.0754 95.9995 71.1222 96.1164 71.1628C96.3584 71.2408 96.4889 71.2908 96.4862 71.3001Z" fill="#263238"/>
<path d="M73.4202 40.7445C73.4202 40.7445 73.5589 41.0441 73.6296 41.6619C73.703 42.2767 73.6921 43.2003 73.5154 44.3424C73.4257 44.9135 73.306 45.5407 73.1266 46.2116C72.9389 46.8825 72.6562 47.569 72.3353 48.2867C71.6882 49.7221 70.8697 51.2855 69.9262 52.9549L69.8147 53.1515V52.9175C69.812 51.816 69.812 50.6583 69.8093 49.4538L69.9154 49.5131C69.1051 50.262 68.254 51.0515 67.3757 51.8659L67.3975 51.8285C66.8102 53.9691 66.4214 56.3532 66.2691 58.8339C66.0217 62.6316 66.2201 66.2638 66.3778 69.559C66.5111 72.8574 66.5981 75.8312 66.6878 78.3245C66.7748 80.8208 66.8537 82.8367 66.9189 84.2315C66.9543 84.9212 66.9815 85.461 67.0005 85.8355C67.0114 86.0133 67.0195 86.1506 67.025 86.2536C67.0304 86.3472 67.0277 86.3971 67.0277 86.3971C67.0277 86.3971 67.0195 86.3503 67.0087 86.2567C67.0005 86.1569 66.9869 86.0164 66.9706 85.8417C66.9407 85.4766 66.9026 84.9336 66.8618 84.2378C66.7803 82.8429 66.6851 80.8271 66.5872 78.3307C66.4893 75.8343 66.3751 72.8636 66.2446 69.5684C66.0815 66.2763 65.8775 62.6347 66.125 58.8246C66.28 56.3344 66.6688 53.9379 67.2643 51.7848L67.2697 51.7629L67.286 51.7473C68.1643 50.936 69.0181 50.1496 69.8283 49.4007L69.9344 49.304V49.46C69.9317 50.6614 69.9317 51.8191 69.929 52.9237L69.8175 52.8863C71.6855 49.563 73.2054 46.6734 73.4393 44.3362C73.6269 43.2034 73.6486 42.2891 73.5861 41.6744C73.5589 41.3655 73.5072 41.1377 73.4746 40.9817C73.4365 40.8225 73.4202 40.7445 73.4202 40.7445Z" fill="#263238"/>
<path d="M68.5421 80.9956L68.4442 80.9924C68.05 81.0049 67.6992 81.4168 67.6992 81.8693C67.6992 82.3218 68.0473 82.7368 68.4388 82.7524C68.8331 82.768 69.2056 82.381 69.2301 81.9317C69.26 81.4792 68.9337 81.0392 68.5421 80.9956Z" fill="white"/>
<path d="M68.5421 68.9692L68.4442 68.9661C68.05 68.9785 67.6992 69.3904 67.6992 69.8429C67.6992 70.2954 68.0473 70.7104 68.4388 70.726C68.8331 70.7416 69.2056 70.3547 69.2301 69.9053C69.26 69.4529 68.9337 69.0129 68.5421 68.9692Z" fill="white"/>
<path d="M68.4415 58.2097C68.8358 58.2253 69.2083 57.8384 69.2328 57.389C69.26 56.9397 68.9337 56.4997 68.5421 56.456L68.4442 56.4529C68.05 56.4654 67.6992 56.8773 67.6992 57.3297C67.6992 57.7791 68.0473 58.1941 68.4415 58.2097Z" fill="white"/>
<path d="M56.7009 26.6522C55.7465 25.4415 54.7867 24.2151 54.0906 22.7922C53.3946 21.3693 52.9813 19.706 53.2124 18.0959C53.3456 17.1535 53.6964 16.2579 53.7508 15.3062C53.8269 13.9956 53.3483 12.6257 53.7508 11.3993C54.3843 9.48023 56.6357 9.18378 58.0006 7.85757C59.0638 6.82469 59.5804 5.149 60.7523 4.27838C61.7747 3.52011 63.088 3.53571 64.2926 3.7323C65.4971 3.92889 66.7098 4.27838 67.9171 4.09115C68.7763 3.95697 69.5866 3.56067 70.4295 3.3204C71.2724 3.08012 72.2105 3.01771 72.9609 3.51698C73.7114 4.01626 74.1328 5.23949 73.6407 6.06018C75.0383 5.32062 76.8138 6.57193 77.1972 8.28196C77.5806 9.99198 76.8138 11.8424 75.6283 12.9689C74.4428 14.0985 72.912 14.6228 71.4002 14.9504C67.1177 15.8772 62.4735 15.353 58.7837 12.6943" fill="#263238"/>
<path d="M71.757 43.1721C71.5476 41.3123 71.3763 39.7614 71.3654 39.568C71.3654 39.568 76.7818 38.17 76.4827 31.8853C76.3386 28.8491 75.5963 22.6175 74.8703 16.9913C74.0899 10.95 69.3887 6.61254 64.0783 7.01821L63.5508 7.05877C57.8789 7.87634 55.3175 13.8614 56.1876 20.3458L59.2466 42.0862C59.2466 42.0862 60.5517 46.8948 63.3469 47.728L66.8708 53.5071L67.4527 51.0201L70.0793 48.3958C70.0793 48.3958 70.6829 47.6469 71.3736 46.1834C71.9446 44.9882 71.825 43.7556 71.757 43.1721Z" fill="#FFBE9D"/>
<path d="M71.3679 39.4774C71.3679 39.4774 67.9283 40.0672 64.0972 37.6987C64.0972 37.6987 66.0467 42.0892 71.474 41.1032L71.3679 39.4774Z" fill="#EB996E"/>
<path d="M73.1111 22.393C73.1546 22.8642 72.8392 23.2948 72.4096 23.3572C71.98 23.4165 71.5993 23.0826 71.5558 22.6114C71.515 22.1403 71.8277 21.7065 72.2546 21.6472C72.687 21.5848 73.0676 21.9218 73.1111 22.393Z" fill="#263238"/>
<path d="M73.8755 20.1649C73.7857 20.2897 73.1631 19.831 72.3229 19.8997C71.4827 19.9527 70.8927 20.4957 70.7948 20.3865C70.7458 20.3365 70.8328 20.1181 71.0884 19.8747C71.3413 19.6313 71.7791 19.3786 72.3038 19.3411C72.8286 19.3037 73.2827 19.4909 73.5492 19.7C73.8211 19.9028 73.919 20.1087 73.8755 20.1649Z" fill="#263238"/>
<path d="M65.1663 23.0451C65.2098 23.5163 64.8944 23.9469 64.4648 24.0093C64.0352 24.0686 63.6545 23.7347 63.611 23.2635C63.5702 22.7924 63.8829 22.3586 64.3125 22.2993C64.7421 22.2369 65.1255 22.5739 65.1663 23.0451Z" fill="#263238"/>
<path d="M65.6201 20.9792C65.5304 21.1041 64.9077 20.6454 64.0675 20.714C63.2273 20.7671 62.6373 21.31 62.5394 21.2008C62.4905 21.1509 62.5775 20.9324 62.8331 20.689C63.0832 20.4456 63.5237 20.1929 64.0458 20.1554C64.5705 20.118 65.0246 20.3052 65.2911 20.5143C65.563 20.7171 65.6636 20.9231 65.6201 20.9792Z" fill="#263238"/>
<path d="M69.0864 27.9037C69.0783 27.8507 69.5949 27.704 70.4351 27.5168C70.6472 27.4762 70.8484 27.4107 70.8756 27.239C70.9164 27.058 70.8103 26.7991 70.6907 26.5182C70.4541 25.9378 70.2067 25.3293 69.9457 24.6896C68.907 22.084 68.1402 19.9371 68.2327 19.8903C68.3251 19.8435 69.2387 21.9155 70.2774 24.5211C70.5275 25.1639 70.7668 25.7755 70.9952 26.3622C71.0931 26.6368 71.2508 26.9426 71.1638 27.3202C71.1176 27.5074 70.968 27.6541 70.8321 27.7071C70.6961 27.7664 70.5765 27.7789 70.4704 27.7945C69.6221 27.9131 69.0946 27.9567 69.0864 27.9037Z" fill="#263238"/>
<path d="M65.6149 17.1787C65.5469 17.447 64.7013 17.3877 63.7224 17.5999C62.7408 17.7903 61.9632 18.1834 61.8191 17.9557C61.7538 17.8464 61.8789 17.5906 62.1861 17.3097C62.4907 17.032 62.9855 16.7511 63.5729 16.6295C64.1602 16.5109 64.7094 16.5764 65.0792 16.7168C65.449 16.8604 65.6448 17.0538 65.6149 17.1787Z" fill="#263238"/>
<path d="M73.402 17.3939C73.2661 17.6248 72.6733 17.4407 71.9772 17.4844C71.2784 17.5 70.6993 17.7309 70.5497 17.5125C70.4845 17.4064 70.5633 17.1786 70.8107 16.9508C71.0527 16.7261 71.4688 16.5233 71.9473 16.5014C72.4259 16.4827 72.8528 16.6481 73.1084 16.8541C73.3694 17.0631 73.4618 17.2816 73.402 17.3939Z" fill="#263238"/>
<path d="M56.9024 24.9641C56.8072 24.9236 53.0685 23.9749 53.4383 28.2625C53.8081 32.5469 57.8541 31.1521 57.8514 31.0272C57.8459 30.9024 56.9024 24.9641 56.9024 24.9641Z" fill="#FFBE9D"/>
<path d="M56.1977 29.6199C56.1814 29.6074 56.1379 29.6792 56.0318 29.751C55.9285 29.8196 55.7491 29.8789 55.5478 29.8165C55.14 29.6948 54.7457 29.0145 54.6614 28.2438C54.6179 27.8537 54.6587 27.4761 54.7512 27.1547C54.8382 26.8271 54.9959 26.5899 55.1917 26.5275C55.3847 26.4526 55.537 26.5743 55.5941 26.6898C55.6539 26.8052 55.6376 26.8926 55.6593 26.8957C55.6702 26.9051 55.7327 26.8146 55.6892 26.6398C55.6675 26.5556 55.6131 26.462 55.5179 26.3871C55.4201 26.3122 55.2868 26.2872 55.1481 26.3184C54.8626 26.3746 54.6288 26.7085 54.5255 27.0611C54.4058 27.4168 54.3542 27.8443 54.4031 28.2812C54.501 29.1425 54.9551 29.907 55.5125 30.0224C55.7817 30.0724 55.9938 29.9569 56.0971 29.8415C56.2004 29.7229 56.2113 29.6261 56.1977 29.6199Z" fill="#EB996E"/>
<path d="M74.5954 11.1373C74.3398 12.8442 71.3244 14.4044 68.8256 14.3233C66.5225 14.2453 65.3833 12.9347 63.7083 12.0016C62.6479 11.4119 62.6479 11.4119 61.2122 11.6802C60.0485 11.8987 59.4475 13.4714 58.795 14.5979C60.0376 17.709 59.5346 21.3256 59.0098 24.6958C58.9527 25.0671 58.8793 25.4696 58.6318 25.7193C58.2131 26.1437 57.5306 25.8909 57.12 25.4572C56.4593 24.7644 56.1575 23.7315 55.9427 22.7361C55.4505 20.4644 55.2602 18.0835 55.5729 15.7681C55.8856 13.4527 56.7203 11.2059 58.0989 9.47717C59.8201 7.3178 62.3379 6.07273 64.8857 5.92294C67.4334 5.77316 69.9921 6.6781 72.1238 8.28203C73.1108 9.02158 74.0353 9.94213 74.5954 11.1373Z" fill="#263238"/>
<path d="M69.6387 30.0724C69.0052 29.7323 68.3689 29.3922 67.7354 29.0552C67.6266 28.9959 67.5097 28.9366 67.39 28.9553C67.2541 28.9771 67.148 29.0926 67.061 29.2112C66.6205 29.8259 66.5091 30.7496 66.8489 31.4423C67.1915 32.1351 67.9937 32.5002 68.6354 32.1944C69.3097 31.873 69.6387 30.9743 69.6904 30.138L69.6387 30.0724Z" fill="#EB996E"/>
<path d="M68.6947 32.3503C68.7001 32.369 68.6077 32.4314 68.4174 32.4782C68.2297 32.5188 67.9361 32.5375 67.5989 32.4096C67.2645 32.2879 66.8865 31.9883 66.6527 31.5078C66.4161 31.0397 66.3291 30.3813 66.5358 29.7853C66.6337 29.4888 66.7886 29.2267 66.9763 29.0207C67.0714 28.9178 67.172 28.8304 67.2862 28.7524C67.346 28.7149 67.4195 28.6775 67.5065 28.6713C67.5908 28.665 67.6669 28.69 67.7267 28.7212C67.8518 28.7836 67.9306 28.8522 68.0231 28.9147C68.1128 28.9771 68.1971 29.0395 68.2814 29.0988C68.4445 29.2173 68.5995 29.3266 68.7436 29.4326C69.3092 29.8446 69.6464 30.116 69.6273 30.1566C69.6083 30.194 69.2331 29.9912 68.643 29.6324C68.4935 29.5387 68.3331 29.4389 68.1618 29.3328C68.0748 29.2766 67.985 29.2205 67.8953 29.1643C67.8056 29.1081 67.705 29.0364 67.6261 29.002C67.5391 28.9677 67.501 28.9708 67.4167 29.0239C67.3324 29.0832 67.2427 29.1643 67.1666 29.2517C67.0089 29.4295 66.8811 29.6511 66.7968 29.9038C66.6228 30.4062 66.6853 30.9523 66.8784 31.3673C67.0687 31.7855 67.376 32.0601 67.6642 32.1974C67.9551 32.3378 68.2216 32.3565 68.401 32.3565C68.5859 32.3472 68.6865 32.3285 68.6947 32.3503Z" fill="#263238"/>
<path d="M68.0943 22.5021C68.0726 22.5052 68.0971 22.1027 67.9448 21.4162C67.7952 20.7453 67.4037 19.7561 66.5227 18.9884C66.085 18.614 65.5357 18.2988 64.9022 18.1709C64.2741 18.0492 63.5617 18.071 62.8873 18.3675C62.5475 18.5048 62.2184 18.7076 61.9193 18.9666C61.6148 19.2193 61.3375 19.5345 61.1091 19.8996C60.6387 20.6204 60.3722 21.5441 60.364 22.4958C60.3722 23.4476 60.636 24.3744 61.1091 25.0952C61.3375 25.4603 61.6148 25.7755 61.9193 26.0314C62.2212 26.2904 62.5475 26.4963 62.8873 26.6305C63.5617 26.9269 64.2741 26.9488 64.9022 26.8271C65.5357 26.6991 66.085 26.384 66.5227 26.0095C67.4037 25.245 67.7952 24.2558 67.9448 23.5818C68.0971 22.8984 68.0726 22.499 68.0943 22.5021C68.0971 22.5021 68.0971 22.5271 68.0971 22.5739C68.0971 22.6331 68.0943 22.7018 68.0943 22.786C68.0943 22.8797 68.0916 22.9951 68.0699 23.1324C68.0536 23.2697 68.04 23.4257 67.9965 23.6005C67.9339 23.95 67.7952 24.365 67.575 24.8081C67.352 25.2481 67.0285 25.7099 66.5825 26.1031C66.1393 26.4932 65.5765 26.824 64.9239 26.9613C64.2768 27.0923 63.5426 27.0736 62.8438 26.774C62.4904 26.6367 62.1505 26.4245 61.8378 26.1593C61.5224 25.8972 61.2341 25.5726 60.9976 25.1951C60.5082 24.4493 60.2308 23.4913 60.2227 22.5021C60.2308 21.5129 60.5082 20.5549 60.9976 19.8091C61.2341 19.4315 61.5224 19.107 61.8378 18.8449C62.1505 18.5796 62.4904 18.3675 62.8438 18.2301C63.5453 17.9275 64.2768 17.9087 64.9239 18.0429C65.5765 18.1802 66.1393 18.5141 66.5825 18.9011C67.0285 19.2942 67.352 19.7561 67.575 20.1961C67.7952 20.6392 67.9339 21.0542 67.9965 21.4037C68.04 21.5753 68.0536 21.7344 68.0699 21.8717C68.0889 22.0091 68.0943 22.1245 68.0943 22.2181C68.0943 22.3024 68.0971 22.3741 68.0971 22.4303C68.0971 22.4771 68.0971 22.5021 68.0943 22.5021Z" fill="#263238"/>
<path d="M77.4038 22.0809C77.3821 22.084 77.4065 21.6908 77.257 21.0231C77.1101 20.3678 76.7295 19.4035 75.8703 18.6609C75.4461 18.2958 74.9104 17.9868 74.2932 17.8651C73.6814 17.7466 72.988 17.7684 72.33 18.0586C71.9983 18.1897 71.6802 18.3894 71.3865 18.6421C71.0901 18.8886 70.821 19.1976 70.598 19.5533C70.1385 20.2554 69.8802 21.1541 69.872 22.084C69.8802 23.0139 70.1385 23.9126 70.5953 24.6147C70.8182 24.9705 71.0874 25.2763 71.3838 25.5259C71.6775 25.7787 71.9956 25.9784 72.3273 26.1094C72.9853 26.3965 73.676 26.4215 74.2905 26.3029C74.9077 26.1781 75.4434 25.8692 75.8675 25.5072C76.7268 24.7614 77.1074 23.8003 77.2515 23.145C77.4065 22.471 77.3821 22.0778 77.4038 22.0809C77.4092 22.0809 77.4093 22.1776 77.4065 22.3586C77.4065 22.4491 77.4038 22.5646 77.3848 22.6956C77.3685 22.8298 77.3549 22.9827 77.3141 23.1512C77.1808 23.819 76.8083 24.8144 75.9355 25.5914C75.5032 25.9721 74.9539 26.2967 74.3177 26.4277C73.6868 26.5557 72.9717 26.5369 72.2893 26.2436C71.9467 26.1094 71.6149 25.9035 71.3104 25.6414C71.0031 25.3855 70.7231 25.0703 70.4919 24.7021C70.0134 23.975 69.7442 23.042 69.7388 22.0778C69.7469 21.1136 70.0161 20.1805 70.4947 19.4535C70.7258 19.0852 71.0059 18.767 71.3131 18.5142C71.6176 18.2552 71.9494 18.0492 72.292 17.9151C72.9745 17.6217 73.6896 17.603 74.3204 17.731C74.9567 17.8651 75.5059 18.1897 75.9382 18.5672C76.811 19.3442 77.1836 20.3366 77.3168 21.0075C77.3576 21.176 77.3739 21.3289 77.3875 21.463C77.4065 21.5941 77.412 21.7096 77.4092 21.8001C77.4092 21.9842 77.4092 22.0809 77.4038 22.0809Z" fill="#263238"/>
<path d="M69.8065 21.0947C69.7901 21.1134 69.7004 21.0261 69.5373 20.9356C69.3741 20.8451 69.1294 20.7577 68.8521 20.7639C68.5774 20.7671 68.3327 20.8669 68.1723 20.9637C68.0091 21.0604 67.9249 21.1509 67.9085 21.1353C67.8949 21.1228 67.9575 20.998 68.1206 20.8669C68.2811 20.7359 68.5421 20.6079 68.8493 20.6017C69.1539 20.5954 69.4203 20.7109 69.5862 20.8357C69.7494 20.9605 69.8173 21.0822 69.8065 21.0947Z" fill="#263238"/>
<path d="M60.5292 21.8654C60.5537 21.9029 59.7896 22.6019 58.8244 23.4257C57.8591 24.2526 57.0597 24.8923 57.0352 24.858C57.0108 24.8205 57.7748 24.1216 58.7401 23.2978C59.7054 22.4708 60.5075 21.828 60.5292 21.8654Z" fill="#263238"/>
<g opacity="0.3">
<path d="M57.3134 42.1735C56.9354 46.408 58.3384 50.8796 61.2968 53.4446C61.5279 53.6475 61.8216 53.8441 62.0935 53.7317C62.2838 53.6537 62.4062 53.4446 62.5068 53.2418C63.3497 51.5661 63.6325 49.7157 63.3905 47.7997C62.9228 49.2164 62.5204 50.605 62.0472 52.0872C59.4669 50.293 57.8599 46.4735 57.3134 42.1735Z" fill="black"/>
</g>
<path opacity="0.3" d="M67.332 51.8034L69.5046 50.8923L69.8635 55.108C69.8635 55.108 72.2073 50.2057 73.178 47.9684C74.1487 45.731 73.6484 41.7836 73.6484 41.7836C73.6484 41.7836 73.9965 45.2223 71.6472 49.6066L69.8744 52.9143V49.4506L67.332 51.8034Z" fill="black"/>
<g opacity="0.3">
<path d="M42.067 73.2285C41.099 72.7043 39.9842 72.6325 38.9211 72.7761C37.7981 72.9259 36.6697 73.3222 35.7887 74.1366C34.9077 74.9511 34.3122 76.2367 34.421 77.5286L34.5298 77.5473C35.2884 75.1945 36.7947 73.4813 38.7389 73.2722C40.683 73.0663 42.5782 74.0586 43.9132 75.6937C43.7827 74.4705 43.0377 73.7528 42.067 73.2285Z" fill="black"/>
</g>
<g opacity="0.3">
<path d="M96.989 75.6346C96.2603 74.7328 95.2379 74.1867 94.1829 73.9745C92.3312 73.6032 90.3436 74.2647 88.9487 75.7126L89.362 75.3257C90.4143 74.6173 91.627 74.1992 92.8479 74.2398C94.066 74.2803 95.2869 74.7983 96.1706 75.7626C96.9836 76.6488 97.4703 77.8502 97.9352 79.0204C98.1201 77.8127 97.7177 76.5364 96.989 75.6346Z" fill="black"/>
</g>
<path d="M82.9889 56.0565C82.9808 56.0534 83.0161 55.9317 83.0868 55.7164C83.1711 55.4698 83.2744 55.1672 83.3968 54.8083C83.6606 54.0438 84.0195 52.9859 84.4029 51.8126C84.7835 50.6362 85.1125 49.5659 85.3491 48.7889C85.4606 48.4269 85.5557 48.1211 85.6319 47.8715C85.6999 47.6562 85.7434 47.5376 85.7515 47.5407C85.7597 47.5438 85.7352 47.6686 85.6835 47.8902C85.6319 48.1118 85.5503 48.4332 85.4443 48.8263C85.2322 49.6127 84.9168 50.6924 84.5361 51.8688C84.1554 53.0452 83.7775 54.0968 83.492 54.852C83.3479 55.2296 83.2282 55.5323 83.1412 55.7413C83.0515 55.9473 82.9971 56.0627 82.9889 56.0565Z" fill="#263238"/>
<path d="M48.7098 56.3624C48.6717 56.3718 48.3754 54.8864 48.0491 53.0453C47.7228 51.2043 47.4889 49.7064 47.527 49.6971C47.5651 49.6877 47.8615 51.173 48.1877 53.0141C48.514 54.8552 48.7479 56.353 48.7098 56.3624Z" fill="#263238"/>
<path d="M48.1954 74.9263C48.2824 74.9762 47.2002 65.2028 47.2002 65.2028C47.2002 65.2028 47.8827 57.7855 48.2661 57.4422L48.277 54.8241C48.277 54.8241 49.3347 54.0877 49.6174 55.2766C49.6174 55.2766 50.5555 54.3436 50.7187 56.5653C50.8818 58.7871 50.9172 61.062 50.9172 61.062L53.0027 67.047L53.3453 67.2468C53.3453 67.2468 53.7939 62.5567 54.055 61.867C54.316 61.1774 54.4954 59.4986 55.4825 59.7514C56.4722 60.0041 56.5538 60.9434 56.377 62.4724C56.2003 64.0014 55.9773 65.5804 56.0616 66.5696C56.1432 67.5588 56.5347 69.7338 56.4151 71.4594C56.2955 73.1882 55.4716 75.0105 54.6042 76.2899C53.7395 77.5693 52.0864 80.2155 51.1863 81.0143C50.8709 81.2952 48.1954 74.9263 48.1954 74.9263Z" fill="#FFBE9D"/>
<path d="M49.2505 66.972C49.2397 66.972 49.2424 66.8222 49.256 66.5538C49.275 66.2543 49.2968 65.8736 49.324 65.418C49.3865 64.46 49.4844 63.1369 49.6013 61.6765C49.6611 60.9495 49.7182 60.2536 49.7699 59.6201C49.7971 59.305 49.8134 59.0085 49.778 58.737C49.7454 58.4656 49.653 58.2315 49.517 58.063C49.2424 57.7198 48.8862 57.6324 48.6659 57.6355C48.4348 57.6324 48.3152 57.7042 48.3097 57.6886C48.307 57.6823 48.3369 57.6667 48.394 57.6386C48.4539 57.6137 48.5436 57.5825 48.6632 57.5731C48.8971 57.5544 49.2777 57.623 49.5904 57.9881C49.7454 58.1691 49.8542 58.4312 49.8922 58.7183C49.9357 59.0085 49.9194 59.3174 49.8977 59.6357C49.8487 60.2723 49.7944 60.9651 49.74 61.6953C49.6231 63.1556 49.5088 64.4756 49.4218 65.4305C49.3756 65.8829 49.3375 66.2636 49.3076 66.5601C49.2804 66.8253 49.2587 66.972 49.2505 66.972Z" fill="#EB996E"/>
<path d="M50.3701 62.9747C50.3918 62.9934 50.158 63.2274 50.0003 63.7454C49.8317 64.2541 49.7719 65.0217 49.6522 65.8549C49.5407 66.6912 49.4293 67.4463 49.345 67.9893C49.258 68.5354 49.1954 68.8693 49.1764 68.8661C49.1574 68.863 49.1845 68.5198 49.2471 67.9706C49.3069 67.4214 49.4021 66.6631 49.5135 65.8268C49.6305 64.9967 49.7066 64.226 49.9078 63.6986C50.003 63.4365 50.1172 63.2461 50.2096 63.1276C50.2994 63.0152 50.3646 62.9684 50.3701 62.9747Z" fill="#EB996E"/>
<path d="M49.6041 55.1486C49.6149 55.1455 49.6394 55.2547 49.6775 55.4575C49.7155 55.6573 49.7618 55.9475 49.8134 56.3094C49.9167 57.0303 50.0309 58.0319 50.1044 59.146C50.1751 60.26 50.1914 61.271 50.1805 62.0012C50.1751 62.3663 50.1669 62.6627 50.1533 62.8656C50.1424 63.0684 50.1316 63.1807 50.1207 63.1807C50.0989 63.1807 50.0962 62.7283 50.0799 62.0012C50.0636 61.271 50.0337 60.2662 49.963 59.1584C49.8923 58.0507 49.7944 57.049 49.7155 56.325C49.6367 55.598 49.585 55.1517 49.6041 55.1486Z" fill="#EB996E"/>
<path d="M55.6217 64.3104C55.6435 64.3478 55.3172 64.5194 54.9202 64.379C54.5205 64.2417 54.3356 63.8891 54.371 63.8735C54.4036 63.8423 54.6102 64.1075 54.961 64.2261C55.309 64.3509 55.6108 64.2636 55.6217 64.3104Z" fill="#EB996E"/>
<path d="M48.3123 73.7092L42.8008 76.3679H39.5162C39.5162 76.3679 36.2696 77.5318 35.7693 81.0236C35.269 84.5186 35.1983 86.316 36.6258 86.7466C38.0533 87.1772 42.0857 87.2272 44.0842 86.4658C46.0827 85.7044 51.3196 80.8551 51.3196 80.8551L51.8254 77.3477L48.3123 73.7092Z" fill="#FFBE9D"/>
<path d="M49.6044 77.5724C49.5963 77.5786 49.5419 77.5225 49.4467 77.407C49.3488 77.2978 49.2292 77.1168 49.0878 76.8859C48.8159 76.4178 48.5168 75.7095 48.3183 74.8857C48.1116 74.0619 48.0246 73.2911 47.9784 72.7356C47.9376 72.1802 47.9376 71.8338 47.9566 71.8307C47.9784 71.8276 48.011 72.1708 48.0763 72.72C48.147 73.2693 48.2503 74.0275 48.4515 74.8388C48.6473 75.6533 48.9246 76.3492 49.1694 76.8235C49.4222 77.2947 49.6234 77.5505 49.6044 77.5724Z" fill="#EB996E"/>
<path d="M52.0047 78.6802C51.9748 78.6677 52.2222 78.1872 52.3174 77.3228C52.3636 76.8953 52.3582 76.3742 52.2521 75.8156C52.1461 75.2571 51.9149 74.6829 51.5778 74.1462C51.2433 73.6063 50.8654 73.1383 50.55 72.6858C50.2291 72.2333 49.9735 71.7933 49.805 71.3939C49.6364 70.9945 49.5575 70.6419 49.5276 70.3953C49.5004 70.1488 49.5113 70.0115 49.5194 70.0115C49.5466 70.0053 49.5385 70.5701 49.8947 71.3409C50.0687 71.7247 50.3297 72.1491 50.6506 72.589C50.9714 73.0322 51.3521 73.5002 51.6947 74.0494C52.04 74.5955 52.282 75.2009 52.3826 75.7782C52.486 76.3555 52.4778 76.8953 52.418 77.3322C52.3581 77.7722 52.2521 78.1123 52.1651 78.337C52.1243 78.4493 52.0835 78.5336 52.0536 78.5897C52.0237 78.6553 52.0074 78.6833 52.0047 78.6802Z" fill="#EB996E"/>
<path d="M43.5086 63.4522C43.4732 63.474 42.8723 62.2164 42.1653 60.6468C41.4584 59.0772 40.9146 57.7885 40.9472 57.7666C40.9825 57.7448 41.5835 59.0023 42.2904 60.5719C42.9974 62.1415 43.5439 63.4303 43.5086 63.4522Z" fill="white"/>
<path d="M52.4213 52.0655C52.3859 52.0468 52.7584 51.0014 53.2506 49.7283C53.7454 48.4551 54.1751 47.4378 54.2104 47.4566C54.2458 47.4753 53.8732 48.5206 53.3811 49.7938C52.8862 51.067 52.4566 52.0842 52.4213 52.0655Z" fill="white"/>
<path d="M61.1498 59.4548C61.1199 59.4829 60.5598 58.7652 59.9018 57.8509C59.241 56.9366 58.7326 56.1721 58.7625 56.144C58.7924 56.1159 59.3525 56.8336 60.0105 57.7479C60.6685 58.6622 61.1797 59.4267 61.1498 59.4548Z" fill="white"/>
<path d="M59.1395 69.6183C59.1068 69.5933 59.5283 68.8631 60.0803 67.9894C60.6322 67.1157 61.1054 66.4292 61.1353 66.4573C61.1679 66.4822 60.7464 67.2124 60.1945 68.0861C59.6452 68.9599 59.1721 69.6464 59.1395 69.6183Z" fill="white"/>
<path d="M56.4371 83.9757C56.4207 83.985 56.2957 83.7479 56.1189 83.3485C55.9395 82.949 55.7083 82.3905 55.4772 81.7632C55.2434 81.1329 55.0558 80.5556 54.928 80.1312C54.8029 79.7069 54.7376 79.4385 54.7567 79.4322C54.7757 79.426 54.8736 79.6788 55.0231 80.0907C55.1944 80.5587 55.3902 81.1017 55.6077 81.7008C55.8307 82.2968 56.0346 82.8336 56.2114 83.3016C56.3636 83.7073 56.4561 83.9632 56.4371 83.9757Z" fill="white"/>
<path d="M64.1156 77.8721C64.1075 77.9158 63.3679 77.7878 62.4651 77.5881C61.5597 77.3884 60.8337 77.1887 60.8419 77.145C60.85 77.1013 61.5896 77.2293 62.4923 77.429C63.3978 77.6287 64.1238 77.8284 64.1156 77.8721Z" fill="white"/>
<path d="M70.0732 64.4571C70.0433 64.4259 70.7502 63.5023 71.6475 62.3883C72.5448 61.2774 73.298 60.4005 73.3252 60.4317C73.3551 60.4629 72.6481 61.3866 71.7508 62.5006C70.8508 63.6115 70.1004 64.4883 70.0732 64.4571Z" fill="white"/>
<path d="M76.0635 82.3467C76.0336 82.3748 75.1553 81.2077 74.1003 79.738C73.0453 78.2682 72.216 77.0543 72.2459 77.0263C72.2758 76.9982 73.1541 78.1652 74.2091 79.635C75.2641 81.1047 76.0934 82.3186 76.0635 82.3467Z" fill="white"/>
<path d="M38.8721 74.7233C38.8912 74.767 38.089 75.2351 37.2135 76.0058C36.3352 76.7703 35.7289 77.538 35.6963 77.5036C35.6827 77.4912 35.8159 77.2821 36.0661 76.9732C36.3135 76.6674 36.6833 76.2679 37.1265 75.8779C37.5697 75.4909 38.0047 75.1883 38.3283 74.9917C38.6519 74.7982 38.864 74.7046 38.8721 74.7233Z" fill="white"/>
<path d="M41.1123 67.827C41.1449 67.852 40.8594 68.4106 40.4733 69.0752C40.0872 69.7399 39.75 70.2579 39.7174 70.2329C39.6848 70.208 39.9703 69.6494 40.3564 68.9847C40.7398 68.3201 41.0796 67.8021 41.1123 67.827Z" fill="white"/>
<path d="M46.1591 74.5987C46.1292 74.6205 45.8437 74.0744 45.6968 73.3162C45.5446 72.561 45.5962 71.9276 45.6316 71.9307C45.6751 71.9307 45.6887 72.5454 45.8355 73.2787C45.9769 74.0151 46.1971 74.5768 46.1591 74.5987Z" fill="white"/>
<path d="M46.9065 53.0922C46.9119 53.1359 46.4443 53.2514 45.8597 53.345C45.2751 53.4417 44.7965 53.4823 44.7911 53.4386C44.7856 53.3949 45.2533 53.2795 45.8379 53.1858C46.4225 53.0891 46.9011 53.0485 46.9065 53.0922Z" fill="white"/>
<path d="M50.6972 45.3753C50.7162 45.4159 50.3056 45.7186 49.7808 46.0525C49.2561 46.3864 48.8128 46.6267 48.7965 46.5861C48.7775 46.5455 49.1881 46.2428 49.7129 45.9089C50.2376 45.5751 50.6781 45.3379 50.6972 45.3753Z" fill="white"/>
<path d="M61.3583 48.6361C61.3284 48.6642 60.858 48.0151 60.3087 47.1882C59.7595 46.3613 59.3407 45.6717 59.3734 45.6436C59.4033 45.6155 59.8737 46.2646 60.4229 47.0915C60.9695 47.9153 61.3909 48.608 61.3583 48.6361Z" fill="white"/>
<path d="M74.8917 56.3937C74.8645 56.4218 74.3696 55.8382 73.9128 54.9895C73.4506 54.1407 73.214 53.3762 73.2466 53.3606C73.2847 53.3419 73.5784 54.0689 74.0324 54.9052C74.4865 55.7415 74.9243 56.3625 74.8917 56.3937Z" fill="white"/>
<path d="M80.0578 58.3472C80.0932 58.3659 79.843 59.0898 79.4977 59.9605C79.1524 60.8342 78.8451 61.5269 78.807 61.5082C78.7717 61.4895 79.0218 60.7655 79.3672 59.8949C79.7125 59.0212 80.0225 58.3284 80.0578 58.3472Z" fill="white"/>
<path d="M80.7807 50.2557C80.7508 50.2837 80.1363 49.4943 79.4076 48.4895C78.6789 47.4847 78.1133 46.6453 78.1432 46.6172C78.1731 46.5891 78.7876 47.3786 79.5163 48.3834C80.2423 49.3913 80.8106 50.2276 80.7807 50.2557Z" fill="white"/>
<path d="M72.89 43.684C72.852 43.6871 72.7949 43.01 72.7677 42.1706C72.7378 41.3343 72.7486 40.654 72.7867 40.6509C72.8248 40.6478 72.8819 41.3249 72.9091 42.1643C72.939 43.0037 72.9308 43.684 72.89 43.684Z" fill="white"/>
<path d="M79.3236 43.2752C79.329 43.3189 78.5759 43.4718 77.6459 43.6153C76.7133 43.7588 75.9547 43.8369 75.9492 43.7932C75.9438 43.7495 76.6943 43.5966 77.6269 43.453C78.5568 43.3095 79.3182 43.2315 79.3236 43.2752Z" fill="white"/>
<path d="M89.4545 51.8159C89.4192 51.8347 88.9678 50.8455 88.443 49.6066C87.921 48.3678 87.524 47.3443 87.5593 47.3256C87.5947 47.3069 88.046 48.296 88.5708 49.5349C89.0929 50.7737 89.4899 51.7972 89.4545 51.8159Z" fill="white"/>
<path d="M87.747 59.1959C87.7089 59.1865 87.815 58.3908 87.9836 57.4203C88.1521 56.4468 88.3207 55.6666 88.3588 55.676C88.3969 55.6853 88.2908 56.4811 88.1222 57.4515C87.9536 58.422 87.7878 59.2053 87.747 59.1959Z" fill="white"/>
<path d="M92.4482 65.0125C92.4102 65.0281 92.0512 63.9546 91.6407 62.616C91.2328 61.2773 90.931 60.1789 90.9691 60.1633C91.0071 60.1477 91.366 61.2211 91.7766 62.5598C92.1845 63.9016 92.4836 64.9969 92.4482 65.0125Z" fill="white"/>
<path d="M91.7936 68.4169C91.7854 68.4575 91.1356 68.3015 90.4205 67.8521C89.7026 67.409 89.2322 66.8692 89.2594 66.8411C89.2866 66.8036 89.7869 67.2779 90.4884 67.7117C91.1845 68.1454 91.8072 68.3701 91.7936 68.4169Z" fill="white"/>
<path d="M97.8134 76.1744C97.7781 76.1931 97.5605 75.7188 97.3267 75.1166C97.0929 74.5143 96.9324 74.0119 96.9678 73.9932C97.0031 73.9745 97.2206 74.4488 97.4545 75.0511C97.6883 75.6533 97.8488 76.1557 97.8134 76.1744Z" fill="white"/>
<path d="M62.2587 86.9963C62.2206 87.0025 62.1254 86.3815 62.0466 85.6139C61.9677 84.8463 61.9378 84.2191 61.9759 84.2128C62.014 84.2066 62.1091 84.8275 62.188 85.5952C62.2668 86.3628 62.2967 86.99 62.2587 86.9963Z" fill="white"/>
<path d="M80.7293 86.4595C80.6912 86.4501 80.7701 85.8448 80.906 85.1083C81.042 84.3719 81.1834 83.7821 81.2214 83.7915C81.2595 83.8009 81.1807 84.4062 81.0447 85.1427C80.9087 85.8791 80.7674 86.4689 80.7293 86.4595Z" fill="white"/>
<path d="M84.269 24.5834L86.6564 19.7529C85.5987 17.7839 84.9896 15.4685 84.9896 12.9877C84.9896 5.85117 90.0307 0.0657959 96.2492 0.0657959C102.468 0.0657959 107.509 5.85117 107.509 12.9877C107.509 20.1242 102.468 25.9096 96.2492 25.9096C93.6525 25.9096 91.2625 24.8986 89.3591 23.2042L89.3619 23.2104L84.269 24.5834Z" fill="#FAFAFA"/>
<path d="M84.269 24.5835C84.511 24.5211 86.1234 24.0967 89.37 23.2448L89.4217 23.2323L89.389 23.1824L89.3863 23.1762L89.3374 23.2323C89.9791 23.8034 90.7486 24.3651 91.654 24.8363C92.5595 25.2981 93.5981 25.6726 94.7429 25.8473C95.3139 25.9316 95.9121 25.9846 96.5266 25.9503C96.8338 25.9316 97.1465 25.9222 97.4619 25.891C97.7746 25.8379 98.0928 25.7818 98.4136 25.7256C99.6888 25.4354 100.991 24.8799 102.209 24.0156C103.425 23.1512 104.551 21.981 105.453 20.5425C106.353 19.1039 107.036 17.4002 107.357 15.5497C107.672 13.6993 107.648 11.7178 107.223 9.79867C106.796 7.88581 106 6.01976 104.809 4.48449L104.349 3.90408C104.197 3.70749 104.018 3.54834 103.854 3.36735C103.683 3.19885 103.528 3.00538 103.343 2.85559L102.802 2.39064C102.628 2.22838 102.435 2.09732 102.242 1.96626C102.052 1.83208 101.861 1.70102 101.671 1.56684C101.47 1.4545 101.271 1.34528 101.073 1.23295C100.872 1.12685 100.679 1.00203 100.469 0.924018C98.8323 0.178223 97.0894 -0.105742 95.4199 0.0346794C93.7504 0.171981 92.1543 0.721186 90.7866 1.6074C89.4135 2.48426 88.2552 3.65756 87.3606 4.96504C86.4633 6.27564 85.8325 7.71731 85.441 9.15585C85.0521 10.6006 84.9461 12.0329 84.9515 13.3591C84.9842 14.6885 85.1962 15.9148 85.5035 16.9883C85.8108 18.0648 86.2159 18.9916 86.6319 19.7686V19.7312C85.1228 22.8329 84.386 24.3463 84.269 24.5835C84.3887 24.3463 85.1419 22.8454 86.6863 19.7717L86.6972 19.753L86.6863 19.7343C86.2757 18.9573 85.8787 18.0336 85.5769 16.9633C85.2778 15.893 85.0712 14.6791 85.044 13.3591C85.044 12.0423 85.1527 10.6256 85.5416 9.19641C85.9331 7.77348 86.5612 6.34741 87.4503 5.05241C88.3368 3.76053 89.4842 2.60284 90.8437 1.73846C92.1978 0.86473 93.7776 0.324884 95.4254 0.190703C97.0731 0.0565228 98.797 0.337367 100.412 1.0738C100.619 1.14869 100.809 1.27351 101.008 1.37961C101.203 1.48883 101.402 1.59804 101.598 1.71038C101.785 1.84144 101.973 1.9725 102.163 2.10356C102.354 2.23462 102.544 2.36256 102.715 2.52482L103.248 2.98354C103.43 3.1302 103.583 3.32055 103.751 3.48905C103.912 3.66692 104.091 3.82607 104.241 4.01954L104.695 4.5937C105.872 6.11026 106.658 7.95446 107.079 9.84235C107.498 11.7365 107.525 13.6961 107.215 15.5247C106.9 17.3534 106.228 19.0415 105.339 20.4613C104.45 21.8874 103.338 23.0482 102.136 23.9032C100.934 24.7645 99.6453 25.3168 98.3837 25.607C98.0656 25.6632 97.7502 25.7194 97.4429 25.7724C97.1302 25.8036 96.8202 25.813 96.5184 25.8348C95.9093 25.8723 95.3166 25.8192 94.751 25.7381C93.6145 25.5696 92.5839 25.2014 91.6839 24.7489C90.7839 24.2871 90.0171 23.7347 89.3754 23.173L89.1661 22.9889L89.3265 23.2292L89.3292 23.2355L89.3483 23.173C86.118 24.0686 84.511 24.518 84.269 24.5835Z" fill="#263238"/>
<path d="M99.2896 12.448C99.2896 13.1439 99.7817 13.7118 100.391 13.7118C101 13.7118 101.492 13.147 101.492 12.448C101.492 11.7521 101 11.1842 100.391 11.1842C99.7817 11.1842 99.2896 11.7521 99.2896 12.448Z" fill="#263238"/>
<path d="M94.8872 12.448C94.8872 13.1439 95.3794 13.7118 95.9884 13.7118C96.5975 13.7118 97.0896 13.147 97.0896 12.448C97.0896 11.7521 96.5975 11.1842 95.9884 11.1842C95.3794 11.1842 94.8872 11.7521 94.8872 12.448Z" fill="#263238"/>
<path d="M90.4958 11.818C90.1913 12.4234 90.3735 13.1941 90.8982 13.5436C91.4257 13.8931 92.0973 13.6841 92.4019 13.0818C92.7064 12.4764 92.5242 11.7057 91.9994 11.3562C91.4719 11.0067 90.7976 11.2126 90.4958 11.818Z" fill="#263238"/>
</svg>
